SplineFontDB: 3.0
FontName: AmaticSC-Bold
FullName: Amatic SC Bold
FamilyName: Amatic SC
Weight: Bold
Copyright: Copyright (c) 2011 by vernon adams (vern@newtypography.co.uk), with Reserved Font Names "Amatic" "Amatic SC"
Version: 1.002
ItalicAngle: 0
UnderlinePosition: -102
UnderlineWidth: 102
Ascent: 1638
Descent: 410
sfntRevision: 0x00010000
LayerCount: 2
Layer: 0 1 "Back"  1
Layer: 1 1 "Fore"  0
NeedsXUIDChange: 1
XUID: [1021 14 500265001 2509695]
FSType: 0
OS2Version: 4
OS2_WeightWidthSlopeOnly: 0
OS2_UseTypoMetrics: 1
CreationTime: 1313748250
ModificationTime: 1318191821
PfmFamily: 81
TTFWeight: 700
TTFWidth: 5
LineGap: 0
VLineGap: 0
Panose: 0 0 0 0 0 0 0 0 0 0
OS2TypoAscent: 443
OS2TypoAOffset: 1
OS2TypoDescent: -91
OS2TypoDOffset: 1
OS2TypoLinegap: 0
OS2WinAscent: -139
OS2WinAOffset: 1
OS2WinDescent: -59
OS2WinDOffset: 1
HheadAscent: -139
HheadAOffset: 1
HheadDescent: 59
HheadDOffset: 1
OS2SubXSize: 1331
OS2SubYSize: 1229
OS2SubXOff: 0
OS2SubYOff: 154
OS2SupXSize: 1331
OS2SupYSize: 1229
OS2SupXOff: 0
OS2SupYOff: 717
OS2StrikeYSize: 102
OS2StrikeYPos: 614
OS2Vendor: 'newt'
OS2CodePages: 00000001.00000000
OS2UnicodeRanges: 00000001.00000000.00000000.00000000
MarkAttachClasses: 1
DEI: 91125
TtTable: prep
PUSHW_1
 511
SCANCTRL
PUSHB_1
 4
SCANTYPE
EndTTInstrs
LangName: 1033 "" "" "" "" "" "Version 1.002" "" "" "" "" "" "" "" "This Font Software is licensed under the SIL Open Font License, Version 1.1. This license is available with a FAQ at: http://scripts.sil.org/OFL" "http://scripts.sil.org/OFL" "" "Amatic SC" "Bold" 
GaspTable: 1 65535 15
Encoding: UnicodeBmp
Compacted: 1
UnicodeInterp: none
NameList: Adobe Glyph List
DisplaySize: -48
AntiAlias: 1
FitToEm: 1
WinInfo: 50 25 10
BeginChars: 65540 385

StartChar: .notdef
Encoding: 65536 -1 0
Width: 748
Flags: HW
LayerCount: 2
Fore
SplineSet
68 0 m 1,0,-1
 68 1365 l 1,1,-1
 612 1365 l 1,2,-1
 612 0 l 1,3,-1
 68 0 l 1,0,-1
136 68 m 1,4,-1
 544 68 l 1,5,-1
 544 1297 l 1,6,-1
 136 1297 l 1,7,-1
 136 68 l 1,4,-1
EndSplineSet
EndChar

StartChar: ordfeminine
Encoding: 170 170 1
Width: 692
Flags: HW
LayerCount: 2
Fore
SplineSet
365 817.400390625 m 1,0,-1
 311 815.400390625 l 1,1,2
 297.140625 821.134765625 297.140625 821.134765625 247 827.400390625 c 1,3,4
 195 652.400390625 l 1,5,6
 159.002929688 518.216796875 159.002929688 518.216796875 149.120117188 508.465332031 c 0,7,8
 139.237304688 498.713867188 139.237304688 498.713867188 121.618652344 512.557128906 c 0,9,10
 104 526.400390625 104 526.400390625 104 539.400390625 c 1,11,12
 144.999023438 606.399414062 144.999023438 606.399414062 289.361328125 1210.59765625 c 1,13,14
 304.012695312 1347.68945312 304.012695312 1347.68945312 314 1366 c 1,15,-1
 342 1364 l 1,16,17
 367 1364 367 1364 379 1376 c 1,18,19
 392 1376 392 1376 404 1367.5 c 128,-1,20
 416 1359 416 1359 416 1345 c 1,21,-1
 550 665.900390625 l 2,22,23
 567 576.400390625 567 576.400390625 567 539.900390625 c 128,-1,24
 567 503.400390625 567 503.400390625 551 494.400390625 c 1,25,26
 509.427734375 494.400390625 509.427734375 494.400390625 499.713867188 506.400390625 c 128,-1,27
 490 518.400390625 490 518.400390625 490 544.900390625 c 128,-1,28
 490 571.400390625 490 571.400390625 486.5 609.900390625 c 128,-1,29
 483 648.400390625 483 648.400390625 479.5 671.400390625 c 128,-1,30
 476 694.400390625 476 694.400390625 467.5 743.900390625 c 128,-1,31
 459 793.400390625 459 793.400390625 457 807.400390625 c 1,32,33
 418 817.400390625 418 817.400390625 365 817.400390625 c 1,0,-1
263 892.400390625 m 1,34,-1
 337 876.400390625 l 1,35,36
 421.684570312 868.401367188 421.684570312 868.401367188 436 862.400390625 c 1,37,-1
 457 862.400390625 l 1,38,-1
 359 1282.40039062 l 1,39,40
 302.999023438 1032.39941406 302.999023438 1032.39941406 263 892.400390625 c 1,34,-1
557.5 392.900390625 m 0,41,42
 557.5 385.900390625 557.5 385.900390625 425 380.400390625 c 128,-1,43
 292.5 374.900390625 292.5 374.900390625 241.5 374.900390625 c 0,44,45
 190.5 374.900390625 190.5 374.900390625 176.5 384.400390625 c 128,-1,46
 162.5 393.900390625 162.5 393.900390625 162.5 409.900390625 c 0,47,48
 162.5 416.900390625 162.5 416.900390625 296.5 422.400390625 c 128,-1,49
 430.5 427.900390625 430.5 427.900390625 512.5 427.900390625 c 0,50,51
 527.5 427.900390625 527.5 427.900390625 542.5 417.400390625 c 128,-1,52
 557.5 406.900390625 557.5 406.900390625 557.5 392.900390625 c 0,41,42
EndSplineSet
EndChar

StartChar: ordmasculine
Encoding: 186 186 2
Width: 729
Flags: HW
LayerCount: 2
Fore
SplineSet
606.866210938 825.5 m 1,0,1
 606.866210938 663.72265625 606.866210938 663.72265625 458.866210938 563 c 0,2,3
 422.866210938 538.5 422.866210938 538.5 377.866210938 538.5 c 0,4,5
 136 538.5 136 538.5 136 887.48828125 c 0,6,7
 136 918.147460938 136 918.147460938 138.478515625 962.892578124 c 0,8,9
 140.95703125 1007.63769531 140.95703125 1007.63769531 178.366210938 1220.5 c 0,10,11
 188.861328125 1281.37011719 188.861328125 1281.37011719 244.251953125 1314.40039062 c 0,12,13
 274.663085938 1333.44335938 274.663085938 1333.44335938 327.045898438 1333.44335938 c 0,14,15
 379.428710938 1333.44335938 379.428710938 1333.44335938 442.366210938 1322 c 0,16,17
 483.298828125 1314.55761719 483.298828125 1314.55761719 520.866210938 1243 c 1,18,19
 602.240234375 1112.90429688 602.240234375 1112.90429688 606.866210938 825.5 c 1,0,1
201.866210938 953.5 m 1,20,21
 206.356445312 597.5 206.356445312 597.5 369.366210938 597.5 c 0,22,23
 543.866210938 597.5 543.866210938 597.5 543.866210938 841.5 c 0,24,25
 543.866210938 1145.5 543.866210938 1145.5 480.366210938 1209.75 c 0,26,27
 397.100585938 1294 397.100585938 1294 344.866210938 1294 c 0,28,29
 219.586914062 1294 219.586914062 1294 201.866210938 953.5 c 1,20,21
551.866210938 448.900390625 m 0,30,31
 551.866210938 441.900390625 551.866210938 441.900390625 419.366210938 436.400390625 c 128,-1,32
 286.866210938 430.900390625 286.866210938 430.900390625 235.866210938 430.900390625 c 0,33,34
 184.866210938 430.900390625 184.866210938 430.900390625 170.866210938 440.400390625 c 128,-1,35
 156.866210938 449.900390625 156.866210938 449.900390625 156.866210938 465.900390625 c 0,36,37
 156.866210938 472.900390625 156.866210938 472.900390625 290.866210938 478.400390625 c 128,-1,38
 424.866210938 483.900390625 424.866210938 483.900390625 506.866210938 483.900390625 c 0,39,40
 521.866210938 483.900390625 521.866210938 483.900390625 536.866210938 473.400390625 c 128,-1,41
 551.866210938 462.900390625 551.866210938 462.900390625 551.866210938 448.900390625 c 0,30,31
EndSplineSet
EndChar

StartChar: exclam
Encoding: 33 33 4
Width: 345
Flags: HW
LayerCount: 2
Fore
SplineSet
203 543 m 1,0,-1
 199 430 l 1,1,2
 199 303 199 303 167 303 c 128,-1,3
 135 303 135 303 135 482 c 2,4,-1
 134 821 l 1,5,6
 117 1493 l 2,7,8
 117 1525 117 1525 144 1548.5 c 128,-1,9
 171 1572 171 1572 198 1572 c 128,-1,10
 225 1572 225 1572 239.5 1557.5 c 128,-1,11
 254 1543 254 1543 254 1522 c 0,12,13
 254 1358 254 1358 228.5 1032 c 128,-1,14
 203 706 203 706 203 543 c 1,0,-1
148 -38 m 1,15,16
 98 -25 98 -25 70 33 c 1,17,18
 70 68 70 68 95 96.5 c 128,-1,19
 120 125 120 125 157 125 c 128,-1,20
 194 125 194 125 216.5 96 c 128,-1,21
 239 67 239 67 239 26 c 0,22,23
 239 -46 239 -46 148 -52 c 1,24,-1
 148 -38 l 1,15,16
EndSplineSet
EndChar

StartChar: quotedbl
Encoding: 34 34 5
Width: 489
Flags: HW
LayerCount: 2
Fore
SplineSet
144 1578 m 0,0,1
 189.214285714 1578 189.214285714 1578 194 1511 c 1,2,3
 194 1422 194 1422 170.5 1307.5 c 128,-1,4
 147 1193 147 1193 119 1193 c 0,5,6
 113.682926829 1193 113.682926829 1193 108.341463415 1339 c 128,-1,7
 103 1485 103 1485 103 1518 c 128,-1,8
 103 1551 103 1551 116 1564.5 c 128,-1,9
 129 1578 129 1578 144 1578 c 0,0,1
289 1531 m 0,10,11
 289 1551 289 1551 308.5 1564.5 c 128,-1,12
 328 1578 328 1578 351.5 1578 c 128,-1,13
 375 1578 375 1578 384 1531 c 1,14,15
 381 1433 381 1433 364 1313 c 128,-1,16
 347 1193 347 1193 325 1193 c 0,17,18
 316 1193 316 1193 302.5 1324 c 128,-1,19
 289 1455 289 1455 289 1531 c 0,10,11
EndSplineSet
EndChar

StartChar: numbersign
Encoding: 35 35 6
Width: 795
Flags: HW
LayerCount: 2
Fore
SplineSet
309 686 m 1,0,1
 317 685 317 685 379.5 685 c 128,-1,2
 442 685 442 685 495 681 c 1,3,4
 515 859 515 859 516 952 c 1,5,6
 482 960 482 960 427.5 960 c 128,-1,7
 373 960 373 960 341 954 c 1,8,9
 315 859 315 859 309 686 c 1,0,1
465 -92 m 0,10,11
 424 -92 424 -92 424 -47 c 0,12,13
 424 115.888888889 424 115.888888889 451.5 311.444444444 c 128,-1,14
 479 507 479 507 487 581 c 1,15,16
 442 585 442 585 351 585 c 2,17,-1
 301 585 l 1,18,19
 294 543 294 543 275 367 c 0,20,21
 230.376690947 -46.3527575442 230.376690947 -46.3527575442 190 -80 c 0,22,23
 185 -84 185 -84 173.5 -84 c 128,-1,24
 162 -84 162 -84 147 -70 c 128,-1,25
 132 -56 132 -56 132 -40 c 0,26,27
 132 126.2 132 126.2 164 320.6 c 128,-1,28
 196 515 196 515 203 576 c 1,29,30
 158 571 158 571 143 571 c 0,31,32
 58 571 58 571 58 637 c 0,33,34
 58 683 58 683 154 683 c 1,35,-1
 216 681 l 1,36,37
 235 790 235 790 247 948 c 1,38,39
 208 945 208 945 196 945 c 0,40,41
 99 945 99 945 99 1004 c 2,42,-1
 99 1047 l 1,43,-1
 192 1046 l 2,44,45
 224 1046 224 1046 255 1049 c 1,46,47
 259 1084 259 1084 273 1174.5 c 0,48,49
 300 1349.03571429 300 1349.03571429 300 1457 c 1,50,-1
 299 1494 l 2,51,52
 299 1527 299 1527 309.5 1547 c 128,-1,53
 320 1567 320 1567 352 1567 c 1,54,-1
 388 1520 l 1,55,56
 388 1440 388 1440 371 1286.5 c 128,-1,57
 354 1133 354 1133 353 1058 c 1,58,59
 370 1054 370 1054 405 1054 c 2,60,-1
 444 1054 l 2,61,62
 507 1054 507 1054 539 1056 c 1,63,64
 559.097560976 1174.91056911 559.097560976 1174.91056911 575.548780488 1328.45528455 c 128,-1,65
 592 1482 592 1482 599 1535 c 1,66,67
 623 1566 623 1566 645 1566 c 128,-1,68
 667 1566 667 1566 683.5 1554 c 128,-1,69
 700 1542 700 1542 700 1518.5 c 128,-1,70
 700 1495 700 1495 690.5 1426 c 128,-1,71
 681 1357 681 1357 670.5 1296.5 c 128,-1,72
 660 1236 660 1236 645 1155.5 c 128,-1,73
 630 1075 630 1075 627 1056 c 1,74,-1
 693 1056 l 1,75,-1
 736 1020 l 1,76,77
 722.444444444 959 722.444444444 959 682 959 c 2,78,-1
 615 959 l 1,79,80
 592 853 592 853 590 698 c 1,81,-1
 611 699 l 1,82,83
 696 699 696 699 696 637 c 0,84,85
 696 586 696 586 619 586 c 2,86,-1
 613 586 l 1,87,88
 604 484 604 484 570 278.5 c 128,-1,89
 536 73 536 73 527 -39 c 0,90,91
 525 -62 525 -62 506 -77 c 128,-1,92
 487 -92 487 -92 465 -92 c 0,10,11
EndSplineSet
EndChar

StartChar: dollar
Encoding: 36 36 7
Width: 542
Flags: HW
LayerCount: 2
Fore
SplineSet
222 243 m 1,0,-1
 266 248 l 1,1,2
 263.534188034 371.290598291 263.534188034 371.290598291 244 695 c 1,3,-1
 236 810 l 1,4,5
 218 849 218 849 189 904 c 128,-1,6
 160 959 160 959 141.5 995.5 c 128,-1,7
 123 1032 123 1032 104 1079.5 c 0,8,9
 66 1174.5 66 1174.5 66 1265.25 c 128,-1,10
 66 1356 66 1356 93 1427.5 c 128,-1,11
 120 1499 120 1499 179 1518 c 1,12,13
 173 1566 173 1566 173 1584 c 0,14,15
 173 1641 173 1641 204 1641 c 1,16,17
 235.32718894 1638.15207373 235.32718894 1638.15207373 238.5 1617 c 0,18,19
 241 1600.33333333 241 1600.33333333 241 1564.66666667 c 128,-1,20
 241 1529 241 1529 248 1529 c 0,21,22
 284 1529 284 1529 326 1502 c 1,23,24
 330 1497 330 1497 347.5 1481 c 128,-1,25
 365 1465 365 1465 376 1454 c 0,26,27
 407 1423 407 1423 407 1399 c 256,28,29
 407 1371.93333333 407 1371.93333333 395.5 1361.96666667 c 128,-1,30
 384 1352 384 1352 367 1352 c 128,-1,31
 350 1352 350 1352 329.5 1367 c 128,-1,32
 309 1382 309 1382 286.5 1405 c 128,-1,33
 264 1428 264 1428 246 1439 c 1,34,-1
 249 1293 l 1,35,36
 249 1206.85714286 249 1206.85714286 259 1115.42857143 c 128,-1,37
 269 1024 269 1024 270 1010 c 1,38,39
 280.427350427 1012.08547009 280.427350427 1012.08547009 333.213675214 887.542735043 c 128,-1,40
 386 763 386 763 416.5 682 c 0,41,42
 490 486.803278689 490 486.803278689 490 433.901639344 c 128,-1,43
 490 381 490 381 479.5 344.5 c 128,-1,44
 469 308 469 308 452.5 282.5 c 128,-1,45
 436 257 436 257 415 235.5 c 0,46,47
 378.108108108 197.72972973 378.108108108 197.72972973 336 180 c 1,48,49
 342 71 342 71 342 64 c 0,50,51
 342 -16 342 -16 304 -16 c 128,-1,52
 266 -16 266 -16 266 45 c 2,53,-1
 266 163 l 1,54,55
 177 163 177 163 128.5 187.5 c 128,-1,56
 80 212 80 212 80 281 c 0,57,58
 80 298 80 298 92.5 311 c 128,-1,59
 105 324 105 324 121.5 324 c 128,-1,60
 138 324 138 324 148.5 312.5 c 128,-1,61
 159 301 159 301 169.5 280 c 128,-1,62
 180 259 180 259 187 250 c 1,63,-1
 222 243 l 1,0,-1
328 269 m 1,64,65
 392 323 392 323 392 382.5 c 128,-1,66
 392 442 392 442 376.5 511 c 0,67,68
 355.363636364 605.090909091 355.363636364 605.090909091 331.181818182 665.545454545 c 128,-1,69
 307 726 307 726 304 735 c 1,70,71
 306 673 306 673 316 514 c 128,-1,72
 326 355 326 355 328 269 c 1,64,65
188 1418 m 1,73,74
 146 1377.61538462 146 1377.61538462 146 1286.30769231 c 128,-1,75
 146 1195 146 1195 212 1084 c 1,76,77
 198 1186 198 1186 188 1418 c 1,73,74
EndSplineSet
EndChar

StartChar: percent
Encoding: 37 37 8
Width: 1127
Flags: HW
LayerCount: 2
Fore
SplineSet
345.5 714 m 128,-1,1
 311 700 311 700 271.5 700 c 128,-1,2
 232 700 232 700 203 713.5 c 128,-1,3
 174 727 174 727 154.5 753.5 c 128,-1,4
 135 780 135 780 120 809 c 128,-1,5
 105 838 105 838 96.5 880.5 c 128,-1,6
 88 923 88 923 82.5 955 c 128,-1,7
 77 987 77 987 75 1033 c 0,8,9
 72 1102 72 1102 72 1154 c 128,-1,10
 72 1206 72 1206 80 1264.5 c 128,-1,11
 88 1323 88 1323 105 1391.5 c 128,-1,12
 122 1460 122 1460 158 1506.5 c 128,-1,13
 194 1553 194 1553 241 1553 c 0,14,15
 470 1553 470 1553 470 1147 c 0,16,17
 470 1130 470 1130 471 1087 c 128,-1,18
 472 1044 472 1044 472.5 1015.5 c 128,-1,19
 473 987 473 987 470 943 c 128,-1,20
 467 899 467 899 460.5 869 c 128,-1,21
 454 839 454 839 439 804.5 c 128,-1,22
 424 770 424 770 402 749 c 128,-1,0
 380 728 380 728 345.5 714 c 128,-1,1
950.5 38.5 m 128,-1,24
 905 2 905 2 854.5 2 c 128,-1,25
 804 2 804 2 774.5 31 c 128,-1,26
 745 60 745 60 727.5 102.5 c 128,-1,27
 710 145 710 145 698.5 197.5 c 0,28,29
 679 286.52173913 679 286.52173913 677.5 347.760869565 c 128,-1,30
 676 409 676 409 676 451.5 c 128,-1,31
 676 494 676 494 679 550 c 128,-1,32
 682 606 682 606 694.5 654.5 c 128,-1,33
 707 703 707 703 726.5 745.5 c 0,34,35
 768.941176471 838 768.941176471 838 860 838 c 0,36,37
 1046.96969697 838 1046.96969697 838 1057 507 c 0,38,39
 1058 474 1058 474 1058 429 c 2,40,-1
 1058 378 l 2,41,42
 1058 245.5 1058 245.5 1027 160.25 c 128,-1,23
 996 75 996 75 950.5 38.5 c 128,-1,24
364.5 32 m 128,-1,44
 347 54 347 54 347 78.5 c 128,-1,45
 347 103 347 103 360.5 182 c 128,-1,46
 374 261 374 261 402.5 379.5 c 128,-1,47
 431 498 431 498 456 600 c 128,-1,48
 481 702 481 702 523 855.5 c 128,-1,49
 565 1009 565 1009 585 1084 c 128,-1,50
 605 1159 605 1159 644 1297 c 128,-1,51
 683 1435 683 1435 683.5 1451.5 c 128,-1,52
 684 1468 684 1468 699 1502 c 128,-1,53
 714 1536 714 1536 738.5 1536 c 128,-1,54
 763 1536 763 1536 778.5 1522.5 c 128,-1,55
 794 1509 794 1509 794 1470.5 c 128,-1,56
 794 1432 794 1432 760.5 1286 c 128,-1,57
 727 1140 727 1140 678.5 957 c 128,-1,58
 630 774 630 774 620 732 c 0,59,60
 550 429 550 429 428 36 c 0,61,62
 420 10 420 10 401 10 c 128,-1,43
 382 10 382 10 364.5 32 c 128,-1,44
248 1449 m 0,63,64
 223 1449 223 1449 197 1332 c 128,-1,65
 171 1215 171 1215 171 1179 c 128,-1,66
 171 1143 171 1143 172 1115.5 c 128,-1,67
 173 1088 173 1088 176 1043 c 128,-1,68
 179 998 179 998 185.5 958 c 128,-1,69
 192 918 192 918 201.5 881 c 0,70,71
 222.297297297 800 222.297297297 800 264 800 c 0,72,73
 376 800 376 800 376 1092 c 0,74,75
 376 1449 376 1449 248 1449 c 0,63,64
854 733 m 0,76,77
 826 733 826 733 806.5 684.5 c 128,-1,78
 787 636 787 636 781.5 573 c 0,79,80
 766.831516353 404.979187314 766.831516353 404.979187314 777 366 c 1,81,82
 777 322 777 322 799.5 219 c 128,-1,83
 822 116 822 116 845 116 c 0,84,85
 958 116 958 116 958 386 c 2,86,-1
 958 434 l 2,87,88
 958 733 958 733 854 733 c 0,76,77
EndSplineSet
EndChar

StartChar: ampersand
Encoding: 38 38 9
Width: 937
Flags: HW
LayerCount: 2
Fore
SplineSet
277 969 m 1,0,1
 172 797 172 797 172 570 c 0,2,3
 172 413 172 413 255 330 c 0,4,5
 302 283 302 283 371 283 c 0,6,7
 402 283 402 283 448.5 300 c 128,-1,8
 495 317 495 317 515 338 c 1,9,10
 508 348 508 348 472 386 c 128,-1,11
 436 424 436 424 400 494 c 128,-1,12
 364 564 364 564 339.5 658.5 c 0,13,14
 306.934782609 784.108695652 306.934782609 784.108695652 277 969 c 1,0,1
500 1600 m 1,15,-1
 494 1496 l 1,16,17
 494 1475 494 1475 499 1452 c 1,18,19
 482 1414 482 1414 452.5 1322 c 128,-1,20
 423 1230 423 1230 409 1203 c 128,-1,21
 395 1176 395 1176 381 1155 c 0,22,23
 349 1107 349 1107 349 1086 c 0,24,25
 349 988 349 988 424.5 734.5 c 128,-1,26
 500 481 500 481 555 418 c 1,27,28
 617 565 617 565 617 780 c 2,29,-1
 617 789 l 1,30,31
 582 789 582 789 566 824 c 1,32,-1
 566 876 l 1,33,34
 617 876 617 876 699 883.5 c 128,-1,35
 781 891 781 891 815 902 c 1,36,37
 873 890 873 890 873 848 c 0,38,39
 873 792 873 792 760 792 c 2,40,-1
 709 792 l 1,41,42
 709 731 709 731 704 654 c 1,43,44
 724.85106383 656.31678487 724.85106383 656.31678487 684.425531915 525.158392435 c 128,-1,45
 644 394 644 394 625 355 c 1,46,47
 686 292 686 292 755 292 c 1,48,-1
 838 298 l 1,49,-1
 876 267 l 1,50,51
 876 226 876 226 847.5 212.5 c 128,-1,52
 819 199 819 199 772 199 c 0,53,54
 677 199 677 199 575 276 c 1,55,56
 465 198 465 198 371.5 198 c 128,-1,57
 278 198 278 198 213 250.5 c 128,-1,58
 148 303 148 303 113 380 c 128,-1,59
 78 457 78 457 78 538 c 128,-1,60
 78 619 78 619 88 689 c 128,-1,61
 98 759 98 759 125 833 c 0,62,63
 162.8 936.6 162.8 936.6 257 1125 c 1,64,-1
 243 1406 l 1,65,-1
 243 1576 l 2,66,67
 243 1655.56097561 243 1655.56097561 270 1691.7804878 c 128,-1,68
 297 1728 297 1728 342 1728 c 128,-1,69
 387 1728 387 1728 443.5 1692 c 128,-1,70
 500 1656 500 1656 500 1600 c 1,15,-1
333 1471 m 1,71,-1
 335 1286 l 1,72,-1
 335 1263 l 1,73,74
 362 1321 362 1321 387 1402 c 128,-1,75
 412 1483 412 1483 412 1531 c 0,76,77
 412 1628 412 1628 364 1630 c 1,78,79
 350 1618 350 1618 333 1580 c 1,80,-1
 333 1471 l 1,71,-1
EndSplineSet
EndChar

StartChar: quotesingle
Encoding: 39 39 10
Width: 318
Flags: HW
LayerCount: 2
Fore
SplineSet
215 1525 m 1,0,-1
 211 1511 l 1,1,2
 211 1422 211 1422 187.5 1307.5 c 128,-1,3
 164 1193 164 1193 136 1193 c 0,4,5
 127 1193 127 1193 113.5 1324 c 128,-1,6
 100 1455 100 1455 100 1531 c 0,7,8
 100 1551 100 1551 119.5 1564.5 c 128,-1,9
 139 1578 139 1578 161 1578 c 0,10,11
 198 1578 198 1578 215 1531 c 1,12,-1
 215 1525 l 1,0,-1
EndSplineSet
EndChar

StartChar: parenleft
Encoding: 40 40 11
Width: 467
Flags: HW
LayerCount: 2
Fore
SplineSet
424 -318 m 1,0,1
 407.277777778 -361 407.277777778 -361 366 -361 c 0,2,3
 312 -361 312 -361 263 -249 c 128,-1,4
 214 -137 214 -137 182 24.5 c 128,-1,5
 150 186 150 186 126 366 c 0,6,7
 80 711 80 711 80 822.5 c 128,-1,8
 80 934 80 934 95 1053 c 128,-1,9
 110 1172 110 1172 136.5 1309.5 c 128,-1,10
 163 1447 163 1447 207.5 1549 c 128,-1,11
 252 1651 252 1651 301 1651 c 2,12,-1
 346 1651 l 1,13,14
 346 1584.61290323 346 1584.61290323 290.5 1457.5 c 0,15,16
 182 1209 182 1209 182 908 c 0,17,18
 182 140 182 140 366.5 -188.5 c 0,19,20
 410.229102167 -266.359133127 410.229102167 -266.359133127 424 -318 c 1,0,1
EndSplineSet
EndChar

StartChar: parenright
Encoding: 41 41 12
Width: 482
Flags: HW
LayerCount: 2
Fore
SplineSet
406 817 m 1,0,-1
 406 815 l 2,1,2
 406 678.13559322 406 678.13559322 361 434.06779661 c 128,-1,3
 316 190 316 190 280 43.5 c 128,-1,4
 244 -103 244 -103 195 -203 c 128,-1,5
 146 -303 146 -303 98 -303 c 0,6,7
 77 -303 77 -303 60.5 -289.5 c 128,-1,8
 44 -276 44 -276 44 -257 c 128,-1,9
 44 -238 44 -238 60.5 -203 c 128,-1,10
 77 -168 77 -168 101 -125.5 c 0,11,12
 194.684172791 40.3990559837 194.684172791 40.3990559837 249.342086395 329.699527992 c 128,-1,13
 304 619 304 619 304 794 c 0,14,15
 304 1252.14285714 304 1252.14285714 184 1475 c 0,16,17
 139 1558.57142857 139 1558.57142857 139 1610 c 2,18,-1
 139 1621 l 1,19,-1
 176 1621 l 2,20,21
 234 1621 234 1621 281 1517 c 128,-1,22
 328 1413 328 1413 353 1268 c 0,23,24
 403.61461794 974.435215947 403.61461794 974.435215947 406 817 c 1,0,-1
EndSplineSet
EndChar

StartChar: asterisk
Encoding: 42 42 13
Width: 893
Flags: HW
LayerCount: 2
Fore
SplineSet
590 1189 m 1,0,-1
 725 1199 l 1,1,2
 829 1199 829 1199 829 1137 c 0,3,4
 829 1085 829 1085 758 1085 c 0,5,6
 713 1085 713 1085 625 1089.5 c 128,-1,7
 537 1094 537 1094 495 1094 c 1,8,9
 501 1077 501 1077 572 934 c 128,-1,10
 643 791 643 791 643 761 c 128,-1,11
 643 731 643 731 619 711 c 128,-1,12
 595 691 595 691 573 691 c 1,13,-1
 433 1011 l 1,14,15
 424 987 424 987 405 934 c 128,-1,16
 386 881 386 881 374 848.5 c 0,17,18
 341.186295503 759.629550321 341.186295503 759.629550321 304 697 c 1,19,-1
 255 697 l 1,20,-1
 211 736 l 1,21,-1
 211 742 l 1,22,23
 212 781 212 781 283 924 c 128,-1,24
 354 1067 354 1067 364 1096 c 1,25,26
 248.5 1096 248.5 1096 180.75 1096 c 128,-1,27
 113 1096 113 1096 104 1097 c 128,-1,28
 95 1098 95 1098 83.5 1102.5 c 0,29,30
 63 1110.52173913 63 1110.52173913 63 1139.76086957 c 128,-1,31
 63 1169 63 1169 76.5 1183.5 c 128,-1,32
 90 1198 90 1198 109 1198 c 2,33,-1
 350 1198 l 1,34,-1
 319 1260 l 2,35,36
 216 1466 216 1466 216 1494 c 0,37,38
 216 1547 216 1547 272 1547 c 0,39,40
 314.833333333 1547 314.833333333 1547 384.5 1349 c 0,41,42
 413 1268 413 1268 418 1258 c 1,43,44
 484.222222222 1489.77777778 484.222222222 1489.77777778 526 1542 c 0,45,46
 546 1567 546 1567 566 1567 c 128,-1,47
 586 1567 586 1567 603.5 1550.5 c 128,-1,48
 621 1534 621 1534 621 1520 c 128,-1,49
 621 1506 621 1506 619.5 1499.5 c 128,-1,50
 618 1493 618 1493 616 1488 c 128,-1,51
 614 1483 614 1483 610.5 1476.5 c 128,-1,52
 607 1470 607 1470 604.5 1466 c 128,-1,53
 602 1462 602 1462 597 1455 c 128,-1,54
 592 1448 592 1448 577.5 1425.5 c 128,-1,55
 563 1403 563 1403 537 1310 c 128,-1,56
 511 1217 511 1217 502 1194 c 1,57,58
 540 1189 540 1189 590 1189 c 1,0,-1
EndSplineSet
EndChar

StartChar: plus
Encoding: 43 43 14
Width: 740
Flags: HW
LayerCount: 2
Fore
SplineSet
298 705 m 1,0,-1
 286 855 l 1,1,2
 286 968 286 968 352 968 c 0,3,4
 376 968 376 968 394 950.5 c 128,-1,5
 412 933 412 933 412 909 c 2,6,-1
 412 884 l 2,7,8
 412 878 412 878 411.5 853.5 c 128,-1,9
 411 829 411 829 411.5 805.5 c 128,-1,10
 412 782 412 782 413 757 c 0,11,12
 415.24 701 415.24 701 431 701 c 1,13,-1
 550 709 l 1,14,15
 656 709 656 709 656 647 c 0,16,17
 656 623 656 623 639 607 c 128,-1,18
 622 591 622 591 598 591 c 1,19,-1
 477 602 l 1,20,21
 412 602 412 602 412 553 c 1,22,-1
 431 389 l 1,23,24
 431 364 431 364 410.5 348.5 c 128,-1,25
 390 333 390 333 365 333 c 128,-1,26
 340 333 340 333 319 347.5 c 128,-1,27
 298 362 298 362 298 385 c 2,28,-1
 304 584 l 1,29,-1
 304 599 l 1,30,-1
 171 590 l 1,31,32
 84 590 84 590 84 655 c 0,33,34
 84 676 84 676 96.5 692 c 128,-1,35
 109 708 109 708 130 708 c 1,36,-1
 251 701 l 1,37,38
 277 701 277 701 298 705 c 1,0,-1
EndSplineSet
EndChar

StartChar: comma
Encoding: 44 44 15
Width: 425
Flags: HW
LayerCount: 2
Fore
SplineSet
332 91 m 1,0,-1
 329 77 l 1,1,2
 329 30 329 30 303 -35 c 128,-1,3
 277 -100 277 -100 232 -151 c 128,-1,4
 187 -202 187 -202 143 -202 c 2,5,-1
 82 -202 l 1,6,-1
 82 -130 l 1,7,8
 90 -122 90 -122 121.5 -96.5 c 0,9,10
 189.137055838 -41.7461928934 189.137055838 -41.7461928934 196 -4 c 1,11,12
 137 39 137 39 137 86.5 c 128,-1,13
 137 134 137 134 168.5 159 c 128,-1,14
 200 184 200 184 237.5 184 c 128,-1,15
 275 184 275 184 296 161.5 c 128,-1,16
 317 139 317 139 332 98 c 1,17,-1
 332 91 l 1,0,-1
EndSplineSet
EndChar

StartChar: hyphen
Encoding: 45 45 16
Width: 649
Flags: HW
LayerCount: 2
Fore
SplineSet
546 739 m 0,0,1
 546 715.815602837 546 715.815602837 427 709.907801418 c 0,2,3
 247.571428571 701 247.571428571 701 196.285714286 701 c 0,4,5
 104 701 104 701 104 760 c 0,6,7
 104 783.184397163 104 783.184397163 223 789.092198582 c 0,8,9
 402.428571429 798 402.428571429 798 453.214285714 798 c 0,10,11
 546 798 546 798 546 739 c 0,0,1
EndSplineSet
EndChar

StartChar: period
Encoding: 46 46 17
Width: 355
Flags: HW
LayerCount: 2
Fore
SplineSet
125.5 -9.5 m 128,-1,1
 105 13 105 13 105 42.5 c 128,-1,2
 105 72 105 72 128 96 c 128,-1,3
 151 120 151 120 181 120 c 128,-1,4
 211 120 211 120 233 96 c 128,-1,5
 255 72 255 72 255 40.5 c 128,-1,6
 255 9 255 9 232 -11.5 c 128,-1,7
 209 -32 209 -32 177.5 -32 c 128,-1,0
 146 -32 146 -32 125.5 -9.5 c 128,-1,1
EndSplineSet
EndChar

StartChar: slash
Encoding: 47 47 18
Width: 567
Flags: HW
LayerCount: 2
Fore
SplineSet
64 30 m 0,0,1
 64 166 64 166 129.5 437 c 128,-1,2
 195 708 195 708 281.5 1016.5 c 128,-1,3
 368 1325 368 1325 380.5 1390 c 128,-1,4
 393 1455 393 1455 396 1470.5 c 128,-1,5
 399 1486 399 1486 400.5 1493 c 128,-1,6
 402 1500 402 1500 406.5 1513.5 c 128,-1,7
 411 1527 411 1527 416.5 1534 c 0,8,9
 431.428571429 1553 431.428571429 1553 451.714285714 1553 c 128,-1,10
 472 1553 472 1553 488.5 1539 c 128,-1,11
 505 1525 505 1525 505 1499 c 128,-1,12
 505 1473 505 1473 498.5 1442 c 128,-1,13
 492 1411 492 1411 479.5 1370 c 0,14,15
 431.343317972 1212.04608295 431.343317972 1212.04608295 232 292 c 0,16,17
 230 285 230 285 221.5 237.5 c 128,-1,18
 213 190 213 190 204.5 151.5 c 128,-1,19
 196 113 196 113 182 67.5 c 0,20,21
 151.692307692 -31 151.692307692 -31 110 -31 c 1,22,23
 64 -3 64 -3 64 30 c 0,0,1
EndSplineSet
EndChar

StartChar: zero
Encoding: 48 48 19
Width: 644
Flags: HW
LayerCount: 2
Fore
SplineSet
98 1233 m 2,0,1
 98 1406.13043478 98 1406.13043478 123.5 1466 c 0,2,3
 151.70184386 1532.21302472 151.70184386 1532.21302472 199.5 1551.5 c 0,4,5
 228 1563 228 1563 262 1563 c 128,-1,6
 296 1563 296 1563 333 1542 c 128,-1,7
 370 1521 370 1521 387.5 1506.5 c 128,-1,8
 405 1492 405 1492 418.5 1473.5 c 128,-1,9
 432 1455 432 1455 442.5 1441 c 128,-1,10
 453 1427 453 1427 461 1403 c 128,-1,11
 469 1379 469 1379 473.5 1366 c 128,-1,12
 478 1353 478 1353 483.5 1323.5 c 128,-1,13
 489 1294 489 1294 490.5 1283 c 0,14,15
 499.8 1214.8 499.8 1214.8 502.9 1190.4 c 128,-1,16
 506 1166 506 1166 517 1085.5 c 128,-1,17
 528 1005 528 1005 533 968.5 c 128,-1,18
 538 932 538 932 546 861.5 c 128,-1,19
 554 791 554 791 558 744 c 0,20,21
 568 626.5 568 626.5 568 521 c 0,22,23
 568 7 568 7 343 7 c 0,24,25
 289 7 289 7 246.5 54 c 128,-1,26
 204 101 204 101 178.5 180.5 c 128,-1,27
 153 260 153 260 135.5 345.5 c 128,-1,28
 118 431 118 431 110.5 529.5 c 0,29,30
 98 693.666666667 98 693.666666667 98 804 c 2,31,-1
 98 1233 l 2,0,1
195 990 m 1,32,-1
 217 790 l 1,33,34
 217 627.769230769 217 627.769230769 234 451.884615385 c 0,35,36
 268.011152416 100 268.011152416 100 363 100 c 0,37,38
 395 100 395 100 418.5 161 c 128,-1,39
 442 222 442 222 452.5 309 c 0,40,41
 473 478.857142857 473 478.857142857 473 568 c 0,42,43
 473 780 473 780 399 1254 c 0,44,45
 383 1356 383 1356 345 1407 c 128,-1,46
 307 1458 307 1458 269.5 1458 c 128,-1,47
 232 1458 232 1458 208 1424.5 c 128,-1,48
 184 1391 184 1391 184 1338 c 1,49,-1
 195 990 l 1,32,-1
EndSplineSet
EndChar

StartChar: one
Encoding: 49 49 20
Width: 602
Flags: HW
LayerCount: 2
Fore
SplineSet
389 96 m 1,0,1
 437 102 437 102 464 102 c 1,2,-1
 464 103 l 1,3,4
 550 103 550 103 550 52 c 0,5,6
 550 -8 550 -8 317 -8 c 1,7,-1
 256 -9 l 2,8,9
 218 -9 218 -9 195.5 2 c 128,-1,10
 173 13 173 13 173 47 c 2,11,-1
 173 91 l 1,12,13
 238 86 238 86 245 86 c 0,14,15
 290 86 290 86 290 120 c 0,16,17
 290 430 290 430 255 924 c 0,18,19
 252 967 252 967 244.5 1045 c 0,20,21
 228 1216.6 228 1216.6 228 1308 c 1,22,23
 231 1383 l 1,24,25
 231 1479 231 1479 160 1479 c 1,26,-1
 113 1477 l 1,27,28
 55 1477 55 1477 55 1521 c 0,29,30
 55 1575 55 1575 220 1575 c 0,31,32
 291.866666667 1575 291.866666667 1575 310 1541 c 1,33,34
 306 1534 306 1534 309.5 1498 c 128,-1,35
 313 1462 313 1462 313 1427 c 128,-1,36
 313 1392 313 1392 328.5 1267 c 128,-1,37
 344 1142 344 1142 344 1030 c 128,-1,38
 344 918 344 918 366.5 594.5 c 128,-1,39
 389 271 389 271 389 109 c 2,40,-1
 389 96 l 1,0,1
EndSplineSet
EndChar

StartChar: two
Encoding: 50 50 21
Width: 578
Flags: HW
LayerCount: 2
Fore
SplineSet
443 4 m 1,0,-1
 131 -15 l 1,1,2
 102 -15 102 -15 79 2 c 128,-1,3
 56 19 56 19 56 47 c 2,4,-1
 56 55 l 1,5,6
 98.6600372902 105.863890615 98.6600372902 105.863890615 127.830018645 189.431945308 c 128,-1,7
 157 273 157 273 169 299 c 0,8,9
 286 558 286 558 343 774 c 128,-1,10
 400 990 400 990 400 1241 c 128,-1,11
 400 1492 400 1492 302 1500 c 1,12,13
 268.849056604 1481.58280922 268.849056604 1481.58280922 256.5 1402 c 0,14,15
 244.862068966 1327 244.862068966 1327 195.431034483 1327 c 128,-1,16
 146 1327 146 1327 146 1390 c 0,17,18
 146 1488.52380952 146 1488.52380952 203.5 1551.5 c 0,19,20
 235 1586 235 1586 278 1586 c 1,21,-1
 278 1587 l 1,22,23
 385.152173913 1587 385.152173913 1587 432.5 1521 c 0,24,25
 467.751054852 1471.86216596 467.751054852 1471.86216596 476.875527426 1432.93108298 c 128,-1,26
 486 1394 486 1394 489.5 1371 c 128,-1,27
 493 1348 493 1348 495 1312 c 0,28,29
 498 1258 498 1258 498 1201 c 0,30,31
 498 1024 498 1024 453.5 800.5 c 128,-1,32
 409 577 409 577 340 422 c 0,33,34
 328 394 328 394 268 274.5 c 128,-1,35
 208 155 208 155 185 86 c 1,36,37
 309 107 309 107 417 107 c 1,38,-1
 479 55 l 1,39,-1
 443 4 l 1,0,-1
EndSplineSet
EndChar

StartChar: three
Encoding: 51 51 22
Width: 600
Flags: HW
LayerCount: 2
Fore
SplineSet
234 865 m 1,0,-1
 234 889 l 2,1,2
 234 920.244444444 234 920.244444444 275.5 969.122222222 c 0,3,4
 354 1061.57777778 354 1061.57777778 354 1150 c 0,5,6
 354 1229 354 1229 340 1313 c 0,7,8
 312.666666667 1477 312.666666667 1477 247 1477 c 0,9,10
 222 1477 222 1477 205.5 1458.5 c 128,-1,11
 189 1440 189 1440 182 1418.5 c 128,-1,12
 175 1397 175 1397 157.5 1378.5 c 128,-1,13
 140 1360 140 1360 114.5 1360 c 128,-1,14
 89 1360 89 1360 73 1376.5 c 128,-1,15
 57 1393 57 1393 53 1416 c 1,16,17
 81 1485 81 1485 131.5 1529 c 128,-1,18
 182 1573 182 1573 246 1573 c 128,-1,19
 310 1573 310 1573 357 1522 c 1,20,21
 401 1521 401 1521 428.5 1366 c 128,-1,22
 456 1211 456 1211 456 1152.5 c 128,-1,23
 456 1094 456 1094 446.5 1065 c 128,-1,24
 437 1036 437 1036 427.5 1020.5 c 128,-1,25
 418 1005 418 1005 395 972 c 128,-1,26
 372 939 372 939 364 927 c 1,27,28
 490.120274914 852.357388316 490.120274914 852.357388316 527 502 c 0,29,30
 535 426 535 426 535 371 c 128,-1,31
 535 316 535 316 533 280.5 c 128,-1,32
 531 245 531 245 524.5 197 c 128,-1,33
 518 149 518 149 503.5 114 c 128,-1,34
 489 79 489 79 466.5 46.5 c 0,35,36
 420.461538462 -20 420.461538462 -20 323 -20 c 0,37,38
 245.956521739 -20 245.956521739 -20 208.97826087 11.5 c 128,-1,39
 172 43 172 43 172 76 c 2,40,-1
 172 89 l 1,41,-1
 206 89 l 1,42,43
 217 87 217 87 234.5 85.5 c 128,-1,44
 252 84 252 84 261 83 c 0,45,46
 282 80.6666666667 282 80.6666666667 307 64 c 1,47,48
 432 69 432 69 432 294 c 0,49,50
 432 594.5 432 594.5 378 727.5 c 0,51,52
 351 794 351 794 307 849 c 1,53,54
 303 848 303 848 287.5 848 c 128,-1,55
 272 848 272 848 234 865 c 1,0,-1
EndSplineSet
EndChar

StartChar: four
Encoding: 52 52 23
Width: 554
Flags: HW
LayerCount: 2
Fore
SplineSet
210 1333 m 1,0,-1
 191 622 l 2,1,2
 191 598 191 598 194 576 c 1,3,4
 236 577 236 577 286 587 c 1,5,-1
 269 1160 l 2,6,7
 269 1181 269 1181 285 1193.5 c 128,-1,8
 301 1206 301 1206 318 1206 c 1,9,-1
 360 1170 l 1,10,-1
 360 1041 l 2,11,12
 360 757.2 360 757.2 386 596 c 1,13,-1
 445 601 l 1,14,15
 506 601 506 601 506 557 c 0,16,17
 506 527 506 527 488.5 517 c 128,-1,18
 471 507 471 507 431 507 c 128,-1,19
 391 507 391 507 391 489 c 0,20,21
 391 420 391 420 396.5 299 c 128,-1,22
 402 178 402 178 412 155 c 1,23,24
 408 131 408 131 408 111.5 c 128,-1,25
 408 92 408 92 418 76 c 1,26,-1
 418 39 l 2,27,28
 418 -38 418 -38 369 -38 c 0,29,30
 338 -38 338 -38 323 -6.5 c 128,-1,31
 308 25 308 25 308 59 c 2,32,-1
 308 66 l 1,33,34
 315 90 315 90 315 140 c 1,35,-1
 300 339 l 1,36,-1
 302 428 l 2,37,38
 302 463 302 463 298 491 c 1,39,-1
 170 480 l 1,40,-1
 170 479 l 1,41,42
 131 479 131 479 89 512 c 1,43,44
 89 558 89 558 98 591 c 1,45,46
 89 639 89 639 89 707.5 c 128,-1,47
 89 776 89 776 104.5 917 c 128,-1,48
 120 1058 120 1058 120 1124 c 2,49,-1
 120 1503 l 2,50,51
 120 1543 120 1543 159 1543 c 0,52,53
 182 1543 182 1543 200.5 1529 c 128,-1,54
 219 1515 219 1515 219 1492 c 1,55,-1
 210 1333 l 1,0,-1
EndSplineSet
EndChar

StartChar: five
Encoding: 53 53 24
Width: 578
Flags: HW
LayerCount: 2
Fore
SplineSet
245 907 m 1,0,-1
 178 891 l 1,1,2
 129.368421053 891 129.368421053 891 115 930 c 0,3,4
 103 962.571428571 103 962.571428571 103 1008 c 1,5,-1
 114 1112 l 1,6,7
 114 1240 114 1240 64 1540 c 1,8,-1
 99 1574 l 1,9,-1
 266 1574 l 2,10,11
 328.5 1574 328.5 1574 339.75 1557.5 c 128,-1,12
 351 1541 351 1541 351 1524 c 2,13,-1
 351 1513 l 1,14,-1
 313 1482 l 1,15,-1
 269 1482 l 1,16,-1
 269 1477 l 1,17,-1
 175 1477 l 1,18,19
 179 1365 179 1365 215 1002 c 1,20,21
 220 1001 220 1001 254.5 998 c 128,-1,22
 289 995 289 995 303 992.5 c 0,23,24
 354.333333333 983.333333333 354.333333333 983.333333333 381 965 c 0,25,26
 428 933 428 933 459 821 c 0,27,28
 509 640.35483871 509 640.35483871 509 434 c 0,29,30
 509 259 509 259 499 219 c 128,-1,31
 489 179 489 179 476.5 142 c 128,-1,32
 464 105 464 105 446 78.5 c 0,33,34
 404.32 17.1377777778 404.32 17.1377777778 336 -36 c 1,35,-1
 301 -37 l 1,36,37
 189 -37 189 -37 189 21 c 0,38,39
 189 44 189 44 208.5 55.5 c 128,-1,40
 228 67 228 67 255 67 c 128,-1,41
 282 67 282 67 305 50 c 1,42,43
 354 67 354 67 382.5 162 c 128,-1,44
 411 257 411 257 411 328 c 0,45,46
 411 447.52 411 447.52 393 603.76 c 0,47,48
 357.258064516 914 357.258064516 914 285 914 c 2,49,-1
 245 914 l 1,50,-1
 245 907 l 1,0,-1
EndSplineSet
EndChar

StartChar: six
Encoding: 54 54 25
Width: 531
Flags: HW
LayerCount: 2
Fore
SplineSet
349 522.32 m 0,0,1
 313.825246887 865.625590382 313.825246887 865.625590382 234 882 c 1,2,3
 207 862 207 862 199 836 c 128,-1,4
 191 810 191 810 191 770 c 0,5,6
 191 577 191 577 240 207 c 0,7,8
 241 200 241 200 243 178.5 c 128,-1,9
 245 157 245 157 246.5 147 c 128,-1,10
 248 137 248 137 253 120 c 128,-1,11
 258 103 258 103 265 95 c 0,12,13
 284.25 73 284.25 73 316 73 c 0,14,15
 367 73 367 73 367 209.82 c 128,-1,16
 367 346.64 367 346.64 349 522.32 c 0,0,1
375 1 m 128,-1,18
 344 -14 344 -14 299.5 -14 c 128,-1,19
 255 -14 255 -14 223 8 c 128,-1,20
 191 30 191 30 174.5 61.5 c 128,-1,21
 158 93 158 93 147 141 c 128,-1,22
 136 189 136 189 133.5 227.5 c 128,-1,23
 131 266 131 266 128 317 c 128,-1,24
 125 368 125 368 122 391 c 0,25,26
 91 644 91 644 91 880 c 0,27,28
 91 1586 91 1586 306 1586 c 0,29,30
 321 1586 321 1586 336.5 1573.5 c 128,-1,31
 352 1561 352 1561 352 1539.5 c 128,-1,32
 352 1518 352 1518 329 1499.5 c 128,-1,33
 306 1481 306 1481 277 1475 c 1,34,35
 242 1439 242 1439 220 1261 c 128,-1,36
 198 1083 198 1083 192 949 c 1,37,38
 208 952 208 952 239 952 c 128,-1,39
 270 952 270 952 308.5 920 c 128,-1,40
 347 888 347 888 371.5 839 c 128,-1,41
 396 790 396 790 414 719.5 c 128,-1,42
 432 649 432 649 441 586 c 128,-1,43
 450 523 450 523 455.5 447 c 0,44,45
 463 343.363636364 463 343.363636364 463 267.681818182 c 128,-1,46
 463 192 463 192 461 162 c 128,-1,47
 459 132 459 132 449.5 96 c 128,-1,48
 440 60 440 60 423 38 c 128,-1,17
 406 16 406 16 375 1 c 128,-1,18
EndSplineSet
EndChar

StartChar: seven
Encoding: 55 55 26
Width: 465
Flags: HW
LayerCount: 2
Fore
SplineSet
114 1489 m 1,0,1
 66 1511.73684211 66 1511.73684211 66 1549 c 0,2,3
 66 1582 66 1582 254 1582 c 2,4,-1
 292 1582 l 2,5,6
 347.444444444 1582 347.444444444 1582 368.222222222 1565.5 c 128,-1,7
 389 1549 389 1549 396 1523 c 1,8,9
 390 1496 390 1496 372 1280 c 128,-1,10
 354 1064 354 1064 302 679.5 c 128,-1,11
 250 295 250 295 189 119 c 1,12,13
 190 114 190 114 190 87 c 128,-1,14
 190 60 190 60 172 24.5 c 128,-1,15
 154 -11 154 -11 120 -11 c 1,16,-1
 71 24 l 1,17,18
 71 66.5 71 66.5 87.5 116.75 c 128,-1,19
 104 167 104 167 126 250 c 128,-1,20
 148 333 148 333 173 500 c 128,-1,21
 198 667 198 667 221.5 894.5 c 128,-1,22
 245 1122 245 1122 253 1184 c 128,-1,23
 261 1246 261 1246 270.5 1303.5 c 0,24,25
 290.272590361 1423.17620482 290.272590361 1423.17620482 292 1494 c 1,26,27
 260 1498 260 1498 235.5 1498 c 128,-1,28
 211 1498 211 1498 114 1489 c 1,0,1
EndSplineSet
EndChar

StartChar: eight
Encoding: 56 56 27
Width: 526
Flags: HW
LayerCount: 2
Fore
SplineSet
219 1515 m 1,0,1
 170 1460 170 1460 170 1399.5 c 128,-1,2
 170 1339 170 1339 196 1196.5 c 128,-1,3
 222 1054 222 1054 248 969 c 1,4,5
 289 1151 289 1151 289 1312 c 0,6,7
 289 1356 289 1356 275.5 1437 c 128,-1,8
 262 1518 262 1518 240 1518 c 1,9,-1
 219 1515 l 1,0,1
276 6 m 0,10,11
 372 6 372 6 372 147 c 128,-1,12
 372 288 372 288 343 438.5 c 128,-1,13
 314 589 314 589 260 783 c 1,14,15
 211 583 211 583 211 190 c 2,16,-1
 211 188 l 2,17,18
 211 147 211 147 231.5 76.5 c 128,-1,19
 252 6 252 6 276 6 c 0,10,11
460 72 m 1,20,-1
 460 60 l 1,21,22
 397 -82 397 -82 274 -82 c 0,23,24
 229 -82 229 -82 196 -53 c 128,-1,25
 163 -24 163 -24 146.5 21.5 c 0,26,27
 115 108.363636364 115 108.363636364 115 198 c 0,28,29
 115 540 115 540 181 759 c 0,30,31
 209 854 209 854 211 863 c 1,32,33
 156.31147541 1003.13934426 156.31147541 1003.13934426 113.155737705 1168.56967213 c 128,-1,34
 70 1334 70 1334 70 1415.5 c 128,-1,35
 70 1497 70 1497 105.5 1552 c 128,-1,36
 141 1607 141 1607 212 1607 c 2,37,-1
 253 1607 l 1,38,39
 352.529411765 1543.41176471 352.529411765 1543.41176471 367 1459 c 0,40,41
 376 1406.5 376 1406.5 376 1288.25 c 128,-1,42
 376 1170 376 1170 313 891 c 0,43,44
 309 872 309 872 307 862 c 1,45,46
 375 698 375 698 420.5 492 c 128,-1,47
 466 286 466 286 466 119 c 0,48,49
 466 94 466 94 460 72 c 1,20,-1
EndSplineSet
EndChar

StartChar: nine
Encoding: 57 57 28
Width: 531
Flags: HW
LayerCount: 2
Fore
SplineSet
167.5 1317 m 128,-1,1
 163 1276 163 1276 163 1229.5 c 128,-1,2
 163 1183 163 1183 179 1162 c 1,3,4
 186.914792899 1096.70295858 186.914792899 1096.70295858 206.95739645 1077.35147929 c 128,-1,5
 227 1058 227 1058 240 1051 c 128,-1,6
 253 1044 253 1044 280 1032 c 128,-1,7
 307 1020 307 1020 326 1009 c 1,8,9
 335 1165 335 1165 335 1427 c 0,10,11
 335 1474 335 1474 320.5 1500.5 c 128,-1,12
 306 1527 306 1527 270 1527 c 128,-1,13
 234 1527 234 1527 213 1492.5 c 128,-1,14
 192 1458 192 1458 182 1408 c 128,-1,0
 172 1358 172 1358 167.5 1317 c 128,-1,1
328 686 m 1,15,-1
 324 931 l 1,16,17
 210 957 210 957 136.5 1042.5 c 128,-1,18
 63 1128 63 1128 63 1243 c 0,19,20
 63 1505.27027027 63 1505.27027027 175 1587 c 0,21,22
 212 1614 212 1614 261 1614 c 0,23,24
 361 1614 361 1614 397 1568 c 128,-1,25
 433 1522 433 1522 433 1420 c 0,26,27
 433 1223 433 1223 420.5 828.5 c 128,-1,28
 408 434 408 434 408 237 c 1,29,-1
 395 90 l 1,30,-1
 396 49 l 1,31,32
 396 -34 396 -34 339 -34 c 1,33,-1
 296 4 l 1,34,35
 328 100 328 100 328 686 c 1,15,-1
EndSplineSet
EndChar

StartChar: colon
Encoding: 58 58 29
Width: 354
Flags: HW
LayerCount: 2
Fore
SplineSet
135 973.5 m 128,-1,1
 115 996 115 996 115 1025 c 128,-1,2
 115 1054 115 1054 138 1078.5 c 128,-1,3
 161 1103 161 1103 190.5 1103 c 128,-1,4
 220 1103 220 1103 242 1079 c 128,-1,5
 264 1055 264 1055 264 1023.5 c 128,-1,6
 264 992 264 992 241 971.5 c 128,-1,7
 218 951 218 951 186.5 951 c 128,-1,0
 155 951 155 951 135 973.5 c 128,-1,1
114.5 199.5 m 128,-1,9
 94 222 94 222 94 251.5 c 128,-1,10
 94 281 94 281 117 305 c 128,-1,11
 140 329 140 329 170 329 c 128,-1,12
 200 329 200 329 221.5 305 c 128,-1,13
 243 281 243 281 243 249.5 c 128,-1,14
 243 218 243 218 220 197.5 c 128,-1,15
 197 177 197 177 166 177 c 128,-1,8
 135 177 135 177 114.5 199.5 c 128,-1,9
EndSplineSet
EndChar

StartChar: semicolon
Encoding: 59 59 30
Width: 410
Flags: HW
LayerCount: 2
Fore
SplineSet
125 -11 m 0,0,1
 113 -11 113 -11 98 2 c 128,-1,2
 83 15 83 15 83 27 c 2,3,-1
 83 51 l 1,4,5
 88 56 88 56 120.5 82 c 0,6,7
 184.063829787 132.85106383 184.063829787 132.85106383 191 171 c 1,8,9
 132 214 132 214 132 261.5 c 128,-1,10
 132 309 132 309 163.5 334 c 128,-1,11
 195 359 195 359 233.5 359 c 128,-1,12
 272 359 272 359 298 328.5 c 128,-1,13
 324 298 324 298 324 255 c 128,-1,14
 324 212 324 212 296.5 149.5 c 128,-1,15
 269 87 269 87 221 38 c 128,-1,16
 173 -11 173 -11 125 -11 c 0,0,1
188 974.5 m 128,-1,18
 168 997 168 997 168 1026 c 128,-1,19
 168 1055 168 1055 191 1079.5 c 128,-1,20
 214 1104 214 1104 243.5 1104 c 128,-1,21
 273 1104 273 1104 295 1080 c 128,-1,22
 317 1056 317 1056 317 1024.5 c 128,-1,23
 317 993 317 993 294 972.5 c 128,-1,24
 271 952 271 952 239.5 952 c 128,-1,17
 208 952 208 952 188 974.5 c 128,-1,18
EndSplineSet
EndChar

StartChar: less
Encoding: 60 60 31
Width: 553
Flags: HW
LayerCount: 2
Fore
SplineSet
388 1447 m 1,0,-1
 395 1446 l 1,1,-1
 440 1411 l 1,2,3
 423.267272727 1277.13818182 423.267272727 1277.13818182 300.5 1037 c 0,4,5
 182 805.208791209 182 805.208791209 182 702 c 0,6,7
 182 687 182 687 319.5 410 c 128,-1,8
 457 133 457 133 493 69 c 1,9,10
 492 60 492 60 493 48 c 128,-1,11
 494 36 494 36 493 24 c 128,-1,12
 492 12 492 12 490 1.5 c 0,13,14
 485.523809524 -22 485.523809524 -22 465 -22 c 1,15,-1
 421 -18 l 1,16,17
 314.125858124 144.85583524 314.125858124 144.85583524 204.562929062 390.42791762 c 128,-1,18
 95 636 95 636 65 698 c 1,19,20
 67 754 67 754 171 980 c 128,-1,21
 275 1206 275 1206 282.5 1232.5 c 128,-1,22
 290 1259 290 1259 297 1288.5 c 128,-1,23
 304 1318 304 1318 311 1340 c 128,-1,24
 318 1362 318 1362 329.5 1389.5 c 0,25,26
 353.545454545 1447 353.545454545 1447 388 1447 c 1,0,-1
EndSplineSet
EndChar

StartChar: equal
Encoding: 61 61 32
Width: 783
Flags: HW
LayerCount: 2
Fore
SplineSet
624 579 m 2,0,-1
 192 589 l 1,1,2
 110 589 110 589 110 634 c 0,3,4
 110 655 110 655 122.5 667.5 c 128,-1,5
 135 680 135 680 156 680 c 2,6,-1
 463 680 l 2,7,8
 672 680 672 680 672 626 c 0,9,10
 672 605 672 605 658.5 592 c 128,-1,11
 645 579 645 579 624 579 c 2,0,-1
311 770 m 1,12,-1
 233 767 l 1,13,14
 110 767 110 767 110 826 c 0,15,16
 110 847 110 847 122.5 859.5 c 128,-1,17
 135 872 135 872 156 872 c 2,18,-1
 523 872 l 2,19,20
 682 872 682 872 682 818 c 128,-1,21
 682 764 682 764 466 764 c 0,22,23
 374 764 374 764 320 770 c 1,24,-1
 311 770 l 1,12,-1
EndSplineSet
EndChar

StartChar: greater
Encoding: 62 62 33
Width: 578
Flags: HW
LayerCount: 2
Fore
SplineSet
155 -19 m 1,0,1
 113 -23 l 1,2,3
 88 -23 88 -23 74 -0.5 c 128,-1,4
 60 22 60 22 59 49 c 1,5,6
 129 178 129 178 261.5 433 c 128,-1,7
 394 688 394 688 394 702 c 0,8,9
 394 804.12 394 804.12 303.5 981.5 c 0,10,11
 192.124787776 1199.79541596 192.124787776 1199.79541596 165.062393888 1276.89770798 c 128,-1,12
 138 1354 138 1354 137 1411 c 1,13,-1
 182 1446 l 1,14,-1
 182 1444 l 1,15,16
 225.971119134 1423.06137184 225.971119134 1423.06137184 241.985559567 1389.03068592 c 128,-1,17
 258 1355 258 1355 262.5 1343.5 c 0,18,19
 271.846153846 1319.61538462 271.846153846 1319.61538462 286.923076923 1262.30769231 c 128,-1,20
 302 1205 302 1205 406 981 c 128,-1,21
 510 757 510 757 512 698 c 1,22,-1
 155 -19 l 1,0,1
EndSplineSet
EndChar

StartChar: question
Encoding: 63 63 34
Width: 1161
Flags: HW
LayerCount: 2
Fore
SplineSet
670 1298 m 2,0,1
 670 1525 670 1525 566 1525 c 0,2,3
 505 1525 505 1525 483 1494.5 c 128,-1,4
 461 1464 461 1464 461 1407 c 1,5,-1
 469 1263 l 1,6,7
 469 1090 469 1090 492 1000 c 1,8,9
 670 1075.70114943 670 1075.70114943 670 1272 c 2,10,-1
 670 1298 l 2,0,1
534 210 m 0,11,12
 534 143 534 143 479 143 c 256,13,14
 451 143 451 143 428.5 161.5 c 128,-1,15
 406 180 406 180 406 215.5 c 128,-1,16
 406 251 406 251 389 338.5 c 128,-1,17
 372 426 372 426 372 470 c 2,18,-1
 372 1454 l 2,19,20
 372 1564.28571429 372 1564.28571429 417.5 1600.5 c 0,21,22
 460.846153846 1635 460.846153846 1635 560 1635 c 0,23,24
 787 1635 787 1635 787 1270 c 0,25,26
 787 1101.27027027 787 1101.27027027 704.5 1021 c 0,27,28
 686 1003 686 1003 670.5 990.5 c 128,-1,29
 655 978 655 978 652 969 c 1,30,31
 655 893 655 893 827 314 c 1,32,33
 827 292 827 292 844.5 255.5 c 128,-1,34
 862 219 862 219 862 200 c 128,-1,35
 862 181 862 181 843 162 c 128,-1,36
 824 143 824 143 807 143 c 0,37,38
 742.995192308 143 742.995192308 143 677.5 382 c 0,39,40
 639.690544413 519.971346705 639.690544413 519.971346705 599.345272206 702.485673352 c 128,-1,41
 559 885 559 885 548 914 c 1,42,-1
 495 914 l 1,43,44
 490 834 490 834 490 766 c 128,-1,45
 490 698 490 698 512 503 c 128,-1,46
 534 308 534 308 534 210 c 0,11,12
624 1832 m 0,47,48
 211 1832 211 1832 211 954 c 0,49,50
 211 180 211 180 345 27 c 0,51,52
 365 4 365 4 410 -25.5 c 128,-1,53
 455 -55 455 -55 467 -64 c 1,54,-1
 526 -64 l 1,55,-1
 526 -84 l 1,56,57
 761.542957177 -81.1621330461 761.542957177 -81.1621330461 866 132.5 c 0,58,59
 963 330.909090909 963 330.909090909 963 706 c 0,60,61
 963 989 963 989 938.5 1219 c 128,-1,62
 914 1449 914 1449 842 1655 c 1,63,-1
 842 1670 l 1,64,65
 811 1719 811 1719 740.5 1775.5 c 128,-1,66
 670 1832 670 1832 624 1832 c 0,47,48
784.5 -150 m 128,-1,68
 709 -190 709 -190 609.5 -190 c 128,-1,69
 510 -190 510 -190 428.5 -156.5 c 128,-1,70
 347 -123 347 -123 293.5 -72 c 128,-1,71
 240 -21 240 -21 201 61.5 c 128,-1,72
 162 144 162 144 141.5 220 c 128,-1,73
 121 296 121 296 109.5 402.5 c 0,74,75
 93 555.304347826 93 555.304347826 93 670.152173913 c 2,76,-1
 93 833 l 1,77,78
 90 885 90 885 92 948.5 c 128,-1,79
 94 1012 94 1012 94.5 1082 c 128,-1,80
 95 1152 95 1152 103 1226 c 128,-1,81
 111 1300 111 1300 121 1373 c 128,-1,82
 131 1446 131 1446 152 1516.5 c 128,-1,83
 173 1587 173 1587 199 1650 c 128,-1,84
 225 1713 225 1713 265 1765.5 c 128,-1,85
 305 1818 305 1818 353 1856.5 c 0,86,87
 454.61038961 1938 454.61038961 1938 609 1938 c 0,88,89
 694 1938 694 1938 772.5 1886 c 128,-1,90
 851 1834 851 1834 907 1755 c 1,91,92
 999.21169687 1699.67298188 999.21169687 1699.67298188 1052.5 1188.5 c 0,93,94
 1077 953.481481481 1077 953.481481481 1077 829.240740741 c 128,-1,95
 1077 705 1077 705 1076 643.5 c 128,-1,96
 1075 582 1075 582 1066 464.5 c 128,-1,97
 1057 347 1057 347 1040.5 270.5 c 128,-1,98
 1024 194 1024 194 990 98.5 c 128,-1,99
 956 3 956 3 908 -53.5 c 128,-1,67
 860 -110 860 -110 784.5 -150 c 128,-1,68
EndSplineSet
EndChar

StartChar: at
Encoding: 64 64 35
Width: 1078
Flags: HW
LayerCount: 2
Fore
SplineSet
518 1246 m 0,0,1
 421 1246 421 1246 421 920.5 c 2,2,-1
 421 855 l 2,3,4
 421 648.571428571 421 648.571428571 432 587.285714286 c 128,-1,5
 443 526 443 526 454.5 487.5 c 0,6,7
 477.649350649 410 477.649350649 410 529 410 c 0,8,9
 571 410 571 410 615 484 c 128,-1,10
 659 558 659 558 659 605 c 2,11,-1
 659 759 l 2,12,13
 659 878.142857143 659 878.142857143 638.5 1004.07142857 c 0,14,15
 599.11627907 1246 599.11627907 1246 518 1246 c 0,0,1
200 1051.5 m 128,-1,17
 198 995 198 995 199 951.5 c 128,-1,18
 200 908 200 908 200 873 c 0,19,20
 199 -31 199 -31 463 -31 c 0,21,22
 641.977777778 -31 641.977777778 -31 703.5 25.5 c 0,23,24
 728 48 728 48 775.5 92 c 128,-1,25
 823 136 823 136 877 169 c 1,26,-1
 877 179 l 1,27,-1
 926 140 l 1,28,29
 910 81 910 81 857 29.5 c 128,-1,30
 804 -22 804 -22 736.5 -53.5 c 0,31,32
 594 -120 594 -120 470 -120 c 0,33,34
 90 -120 90 -120 90 956 c 0,35,36
 90 1256.29032258 90 1256.29032258 124.5 1386.5 c 0,37,38
 168.085154284 1550.9988081 168.085154284 1550.9988081 244 1622.5 c 0,39,40
 346.456790123 1719 346.456790123 1719 505 1719 c 0,41,42
 759 1719 759 1719 870 1467 c 0,43,44
 925.689289502 1341.18345705 925.689289502 1341.18345705 963.844644751 1090.59172853 c 128,-1,45
 1002 840 1002 840 1002 786 c 128,-1,46
 1002 732 1002 732 1001.5 708 c 128,-1,47
 1001 684 1001 684 997.5 643 c 128,-1,48
 994 602 994 602 987.5 573 c 128,-1,49
 981 544 981 544 968.5 510 c 128,-1,50
 956 476 956 476 938 455.5 c 0,51,52
 894.536585366 406 894.536585366 406 839.268292683 406 c 128,-1,53
 784 406 784 406 737 449 c 1,54,55
 701 386 701 386 640.5 346 c 128,-1,56
 580 306 580 306 529.5 306 c 128,-1,57
 479 306 479 306 450.5 319 c 128,-1,58
 422 332 422 332 401 352 c 128,-1,59
 380 372 380 372 363.5 405.5 c 128,-1,60
 347 439 347 439 336.5 470 c 128,-1,61
 326 501 326 501 318.5 546 c 128,-1,62
 311 591 311 591 307.5 624.5 c 128,-1,63
 304 658 304 658 302 706.5 c 0,64,65
 299 779.25 299 779.25 299 842.625 c 128,-1,66
 299 906 299 906 299.5 941.5 c 128,-1,67
 300 977 300 977 304.5 1035 c 128,-1,68
 309 1093 309 1093 317 1131.5 c 128,-1,69
 325 1170 325 1170 341.5 1215 c 128,-1,70
 358 1260 358 1260 380.5 1287 c 0,71,72
 433.833333333 1351 433.833333333 1351 520.916666667 1351 c 128,-1,73
 608 1351 608 1351 675 1284 c 0,74,75
 706.720930233 1252.27906977 706.720930233 1252.27906977 728.860465116 1094.13953488 c 128,-1,76
 751 936 751 936 760.5 855 c 0,77,78
 778.893617021 698.170212766 778.893617021 698.170212766 791 565 c 1,79,-1
 791 556 l 1,80,-1
 836 510 l 1,81,82
 857 522 857 522 869.5 581 c 0,83,84
 887 663.6 887 663.6 887 776 c 0,85,86
 887 1123 887 1123 778 1404 c 1,87,88
 732 1517 732 1517 670.5 1564.5 c 128,-1,89
 609 1612 609 1612 496 1612 c 0,90,91
 344.428571429 1612 344.428571429 1612 270.5 1474 c 0,92,93
 235.565445026 1408.78883072 235.565445026 1408.78883072 220.282722513 1315.39441536 c 128,-1,94
 205 1222 205 1222 203.5 1165 c 128,-1,16
 202 1108 202 1108 200 1051.5 c 128,-1,17
EndSplineSet
EndChar

StartChar: A
Encoding: 65 65 36
Width: 709
Flags: HW
LayerCount: 2
Fore
SplineSet
482 447 m 1,0,1
 479 484 479 484 461.5 668.5 c 0,2,3
 417 1137.65714286 417 1137.65714286 417 1193.32857143 c 128,-1,4
 417 1249 417 1249 418 1254 c 1,5,6
 406.145228216 1240.45168939 406.145228216 1240.45168939 360.572614108 964.225844695 c 128,-1,7
 315 688 315 688 309 664 c 128,-1,8
 303 640 303 640 290 598.5 c 0,9,10
 262.56384505 510.915351506 262.56384505 510.915351506 261 464 c 1,11,12
 346 441 346 441 402 441 c 128,-1,13
 458 441 458 441 482 447 c 1,0,1
490 1529 m 1,14,15
 530 1242 530 1242 574 782 c 128,-1,16
 618 322 618 322 618 70 c 0,17,18
 618 1 618 1 551 1 c 128,-1,19
 484 1 484 1 484 54 c 2,20,-1
 484 321 l 1,21,22
 455 341 455 341 380.5 355 c 128,-1,23
 306 369 306 369 248 373 c 1,24,25
 223 331 223 331 209.5 201.5 c 128,-1,26
 196 72 196 72 166 23 c 1,27,28
 67 23 67 23 57 64 c 1,29,30
 102.702716298 130.796277666 102.702716298 130.796277666 243.5 918.5 c 0,31,32
 299 1229 299 1229 310 1279 c 0,33,34
 365 1543 365 1543 429 1543 c 0,35,36
 467 1543 467 1543 490 1525 c 1,37,-1
 490 1529 l 1,14,15
EndSplineSet
EndChar

StartChar: B
Encoding: 66 66 37
Width: 625
Flags: HW
LayerCount: 2
Fore
SplineSet
104 1403 m 2,0,1
 104 1537 104 1537 181 1537 c 0,2,3
 275 1537 275 1537 344.5 1492.5 c 0,4,5
 484 1403.17985612 484 1403.17985612 484 1201 c 0,6,7
 484 1045 484 1045 359 869 c 1,8,9
 446.278350515 745.783505155 446.278350515 745.783505155 464.639175258 723.891752577 c 128,-1,10
 483 702 483 702 497 678.5 c 128,-1,11
 511 655 511 655 513 649.5 c 128,-1,12
 515 644 515 644 520 618 c 128,-1,13
 525 592 525 592 525.5 573 c 0,14,15
 526.8 523.6 526.8 523.6 535.4 456.8 c 128,-1,16
 544 390 544 390 547 382.5 c 0,17,18
 550.243478261 374.391304348 550.243478261 374.391304348 539.62173913 330.695652174 c 128,-1,19
 529 287 529 287 525 272.5 c 128,-1,20
 521 258 521 258 514 232.5 c 128,-1,21
 507 207 507 207 502 194.5 c 128,-1,22
 497 182 497 182 488 161.5 c 128,-1,23
 479 141 479 141 470 130.5 c 128,-1,24
 461 120 461 120 448 103.5 c 128,-1,25
 435 87 435 87 420 76.5 c 128,-1,26
 405 66 405 66 386 52.5 c 0,27,28
 323.028571429 7.75714285714 323.028571429 7.75714285714 273.514285714 -4.62142857143 c 128,-1,29
 224 -17 224 -17 217.5 -17 c 2,30,-1
 208 -17 l 2,31,32
 151.8 -17 151.8 -17 137.4 -9 c 0,33,34
 108 7.33333333333 108 7.33333333333 108 34 c 2,35,-1
 118 538 l 1,36,-1
 104 1370 l 1,37,-1
 104 1403 l 2,0,1
292 785 m 1,38,-1
 292 786 l 1,39,-1
 222 786 l 1,40,41
 231 532 231 532 231 90 c 1,42,43
 330 106 330 106 387 184.5 c 128,-1,44
 444 263 444 263 444 369 c 0,45,46
 444 715 444 715 292 785 c 1,38,-1
243 1421 m 0,47,48
 215 1421 215 1421 215 1347.5 c 128,-1,49
 215 1274 215 1274 219 1116.5 c 128,-1,50
 223 959 223 959 223 888 c 1,51,52
 296.193579767 905.427042802 296.193579767 905.427042802 348.5 1068.5 c 0,53,54
 376.125 1154.625 376.125 1154.625 384 1173 c 1,55,-1
 384 1246 l 2,56,57
 384 1306 384 1306 341.5 1363.5 c 128,-1,58
 299 1421 299 1421 243 1421 c 0,47,48
EndSplineSet
EndChar

StartChar: C
Encoding: 67 67 38
Width: 685
Flags: HW
LayerCount: 2
Fore
SplineSet
206 999 m 1,0,-1
 188 856 l 1,1,2
 188 752 188 752 215.5 475 c 128,-1,3
 243 198 243 198 269 160 c 0,4,5
 315 93 315 93 410 93 c 128,-1,6
 505 93 505 93 555 152 c 1,7,8
 590 152 590 152 620 162 c 1,9,-1
 620 135 l 2,10,11
 620 73 620 73 584.5 33.5 c 0,12,13
 524.734177215 -33 524.734177215 -33 396 -33 c 0,14,15
 327 -33 327 -33 260 13.5 c 128,-1,16
 193 60 193 60 158 134 c 128,-1,17
 123 208 123 208 103 515 c 128,-1,18
 83 822 83 822 83 988 c 128,-1,19
 83 1154 83 1154 97 1226 c 1,20,21
 91 1259 91 1259 91 1290 c 0,22,23
 91 1416 91 1416 185 1490.5 c 128,-1,24
 279 1565 279 1565 417 1565 c 0,25,26
 466 1565 466 1565 513 1537.5 c 128,-1,27
 560 1510 560 1510 560 1465 c 0,28,29
 560 1443 560 1443 543 1431 c 128,-1,30
 526 1419 526 1419 495.5 1419 c 128,-1,31
 465 1419 465 1419 450 1444 c 1,32,-1
 450 1440 l 1,33,-1
 418 1440 l 1,34,-1
 418 1448 l 1,35,36
 259.896551724 1448 259.896551724 1448 220 1314.5 c 0,37,38
 200 1247.57692308 200 1247.57692308 200 1140 c 1,39,-1
 206 999 l 1,0,-1
EndSplineSet
EndChar

StartChar: D
Encoding: 68 68 39
Width: 691
Flags: HW
LayerCount: 2
Fore
SplineSet
103 982 m 1,0,-1
 109 1206 l 1,1,2
 109 1301 109 1301 100 1342.5 c 128,-1,3
 91 1384 91 1384 77.5 1421.5 c 128,-1,4
 64 1459 64 1459 64 1478.5 c 128,-1,5
 64 1498 64 1498 72 1511 c 128,-1,6
 80 1524 80 1524 96 1531.5 c 128,-1,7
 112 1539 112 1539 127 1543.5 c 128,-1,8
 142 1548 142 1548 165 1549.5 c 0,9,10
 203.333333333 1552 203.333333333 1552 220.166666667 1552 c 2,11,-1
 240 1552 l 2,12,13
 324.384615385 1552 324.384615385 1552 419 1462 c 0,14,15
 533.617446615 1352.97364834 533.617446615 1352.97364834 559 1231.5 c 0,16,17
 573.777777778 1160.77777778 573.777777778 1160.77777778 578.888888889 1073.88888889 c 128,-1,18
 584 987 584 987 586.5 957.5 c 0,19,20
 592.063829787 891.846808511 592.063829787 891.846808511 602 868 c 1,21,-1
 602 773 l 1,22,23
 591 754 591 754 591 711 c 0,24,25
 591 556 591 556 520 372 c 128,-1,26
 449 188 449 188 344 92 c 0,27,28
 266.078534031 21.1623036649 266.078534031 21.1623036649 238.539267016 8.08115183246 c 128,-1,29
 211 -5 211 -5 184.5 -5 c 128,-1,30
 158 -5 158 -5 127 12.5 c 128,-1,31
 96 30 96 30 96 65 c 1,32,33
 141 112 141 112 141 306 c 0,34,35
 141 420 141 420 122 645 c 128,-1,36
 103 870 103 870 103 982 c 1,0,-1
239 310 m 1,37,-1
 239 114 l 1,38,39
 398.015924302 225.590122317 398.015924302 225.590122317 461.5 531 c 0,40,41
 494 687.351351351 494 687.351351351 494 854 c 0,42,43
 494 1429 494 1429 210 1429 c 1,44,-1
 210 1427 l 2,45,46
 210 1237 210 1237 224 864.5 c 128,-1,47
 238 492 238 492 239 310 c 1,37,-1
EndSplineSet
EndChar

StartChar: E
Encoding: 69 69 40
Width: 505
Flags: HW
LayerCount: 2
Fore
SplineSet
315 750 m 2,0,-1
 264 752 l 2,1,2
 240 752 240 752 228 737 c 1,3,-1
 228 105 l 1,4,5
 333 111 333 111 336 111 c 0,6,7
 450 111 450 111 450 57 c 2,8,-1
 450 50 l 1,9,10
 436 22 436 22 402.5 7 c 128,-1,11
 369 -8 369 -8 344 -10 c 128,-1,12
 319 -12 319 -12 278 -12 c 2,13,-1
 214 -12 l 2,14,15
 135.793103448 -12 135.793103448 -12 118.5 17.5 c 0,16,17
 110 32 110 32 110 55 c 2,18,-1
 110 1533 l 1,19,-1
 287 1551 l 1,20,21
 318 1551 318 1551 349.5 1532.5 c 128,-1,22
 381 1514 381 1514 381 1484 c 0,23,24
 381 1423 381 1423 288 1423 c 1,25,-1
 229 1425 l 2,26,27
 214 1425 214 1425 207 1424 c 1,28,-1
 223 1086 l 1,29,30
 223 1045 223 1045 218 966.5 c 128,-1,31
 213 888 213 888 213 852 c 1,32,33
 224 854 224 854 243 859 c 0,34,35
 284.8 870 284.8 870 308.4 870 c 128,-1,36
 332 870 332 870 350.5 853 c 128,-1,37
 369 836 369 836 369 812 c 128,-1,38
 369 788 369 788 354 769 c 128,-1,39
 339 750 339 750 315 750 c 2,0,-1
EndSplineSet
EndChar

StartChar: F
Encoding: 70 70 41
Width: 452
Flags: HW
LayerCount: 2
Fore
SplineSet
391 828 m 0,0,1
 391 761 391 761 221 761 c 1,2,3
 221 650 221 650 240.5 428 c 128,-1,4
 260 206 260 206 260 94 c 1,5,-1
 256 81 l 1,6,7
 259 72 259 72 259 51 c 128,-1,8
 259 30 259 30 240 14 c 128,-1,9
 221 -2 221 -2 190 -2 c 0,10,11
 131 -2 131 -2 131 129 c 0,12,13
 131 324 131 324 110.5 866 c 128,-1,14
 90 1408 90 1408 69 1440 c 1,15,16
 69 1546.27906977 69 1546.27906977 213.5 1553 c 0,17,18
 235 1554 235 1554 273 1554 c 128,-1,19
 311 1554 311 1554 332.5 1540 c 128,-1,20
 354 1526 354 1526 354 1483 c 128,-1,21
 354 1440 354 1440 297 1440 c 1,22,-1
 247 1442 l 1,23,24
 190 1442 190 1442 190 1419 c 0,25,26
 190 1324 190 1324 205 1140.5 c 128,-1,27
 220 957 220 957 221 869 c 1,28,29
 309 891 309 891 333.5 891 c 128,-1,30
 358 891 358 891 374.5 871.5 c 128,-1,31
 391 852 391 852 391 828 c 0,0,1
EndSplineSet
EndChar

StartChar: G
Encoding: 71 71 42
Width: 771
Flags: HW
LayerCount: 2
Fore
SplineSet
540 371 m 1,0,-1
 463 363 l 1,1,2
 395 363 395 363 395 421 c 0,3,4
 395 470.76 395 470.76 522 486 c 0,5,6
 547 489 547 489 577.5 489 c 128,-1,7
 608 489 608 489 630 457 c 128,-1,8
 652 425 652 425 652 371.5 c 128,-1,9
 652 318 652 318 672.5 197 c 128,-1,10
 693 76 693 76 693 34 c 0,11,12
 693 -41 693 -41 642 -41 c 128,-1,13
 591 -41 591 -41 574 2 c 1,14,-1
 574 4 l 1,15,16
 562 -2 562 -2 531 -19.5 c 0,17,18
 469.885714286 -54 469.885714286 -54 422.442857143 -54 c 128,-1,19
 375 -54 375 -54 328.5 -35 c 128,-1,20
 282 -16 282 -16 248.5 13.5 c 128,-1,21
 215 43 215 43 188.5 90 c 128,-1,22
 162 137 162 137 144.5 183 c 128,-1,23
 127 229 127 229 114.5 291 c 128,-1,24
 102 353 102 353 96 402 c 128,-1,25
 90 451 90 451 86 515.5 c 0,26,27
 81 596.125 81 596.125 81 711 c 2,28,-1
 80 862 l 1,29,30
 80 1342.50704225 80 1342.50704225 215.5 1499 c 0,31,32
 295.158536585 1591 295.158536585 1591 421 1591 c 0,33,34
 503 1591 503 1591 503 1533 c 0,35,36
 503 1511 503 1511 487.5 1498 c 128,-1,37
 472 1485 472 1485 451 1485 c 1,38,-1
 395 1495 l 1,39,40
 321.112359551 1495 321.112359551 1495 278.5 1402.5 c 0,41,42
 234.15984556 1306.24942085 234.15984556 1306.24942085 221.07992278 1212.62471042 c 128,-1,43
 208 1119 208 1119 202 1063 c 128,-1,44
 196 1007 196 1007 193.5 938 c 0,45,46
 190 841.4 190 841.4 190 744 c 2,47,-1
 189 617 l 1,48,49
 189 416.5 189 416.5 206 335.75 c 128,-1,50
 223 255 223 255 240.5 206 c 128,-1,51
 258 157 258 157 282.5 124.5 c 0,52,53
 337.907692308 51 337.907692308 51 425.453846154 51 c 128,-1,54
 513 51 513 51 571 137 c 1,55,56
 568 321 568 321 540 371 c 1,0,-1
EndSplineSet
EndChar

StartChar: H
Encoding: 72 72 43
Width: 624
Flags: HW
LayerCount: 2
Fore
SplineSet
392 824 m 1,0,-1
 374 1496 l 2,1,2
 373 1511 373 1511 390 1529 c 128,-1,3
 407 1547 407 1547 428.5 1547 c 128,-1,4
 450 1547 450 1547 467 1511 c 128,-1,5
 484 1475 484 1475 484 1393 c 0,6,7
 484 1168 484 1168 503 717.5 c 128,-1,8
 522 267 522 267 522 43 c 0,9,10
 522 16 522 16 505 -7.5 c 128,-1,11
 488 -31 488 -31 462 -31 c 0,12,13
 410 -31 410 -31 410 37 c 0,14,15
 410 419 410 419 393 759 c 1,16,17
 338 769 338 769 292 769 c 128,-1,18
 246 769 246 769 210 753 c 1,19,20
 211 641 211 641 227.5 409.5 c 128,-1,21
 244 178 244 178 244 59 c 0,22,23
 244 39 244 39 232 22 c 128,-1,24
 220 5 220 5 200 5 c 0,25,26
 166.6 5 166.6 5 150.3 32.5 c 128,-1,27
 134 60 134 60 129.5 177.5 c 128,-1,28
 125 295 125 295 124 435 c 128,-1,29
 123 575 123 575 121 602 c 0,30,31
 84 1134 84 1134 84 1510 c 2,32,-1
 84 1525 l 1,33,34
 87 1557 87 1557 119 1557 c 0,35,36
 182.4 1557 182.4 1557 191 1514 c 1,37,38
 184 1441 184 1441 184 1360 c 1,39,-1
 198 939 l 1,40,-1
 196 862 l 2,41,42
 196 833 196 833 200 809 c 1,43,-1
 392 824 l 1,0,-1
EndSplineSet
EndChar

StartChar: I
Encoding: 73 73 44
Width: 489
Flags: HW
LayerCount: 2
Fore
SplineSet
304 115 m 1,0,-1
 346 116 l 1,1,2
 429 116 429 116 429 82 c 1,3,4
 437 48 437 48 421.5 33.5 c 128,-1,5
 406 19 406 19 378 19 c 2,6,-1
 121 19 l 2,7,8
 62 19 62 19 62 66 c 128,-1,9
 62 113 62 113 124 113 c 2,10,-1
 187 112 l 2,11,12
 197 112 197 112 197 214 c 128,-1,13
 197 316 197 316 178 631.5 c 128,-1,14
 159 947 159 947 159 1105 c 1,15,16
 163 1314 l 1,17,18
 163 1380 163 1380 158 1428 c 1,19,20
 131 1419 131 1419 110 1419 c 0,21,22
 62 1419 62 1419 62 1468 c 0,23,24
 62 1493 62 1493 93 1511.5 c 128,-1,25
 124 1530 124 1530 170 1538 c 0,26,27
 256.25 1553 256.25 1553 297.625 1553 c 128,-1,28
 339 1553 339 1553 357 1536.5 c 128,-1,29
 375 1520 375 1520 375 1497.5 c 128,-1,30
 375 1475 375 1475 361.5 1458.5 c 128,-1,31
 348 1442 348 1442 327 1442 c 2,32,-1
 291 1443 l 2,33,34
 271 1443 271 1443 261.5 1434.5 c 128,-1,35
 252 1426 252 1426 252 1401 c 0,36,37
 252 1201 252 1201 278 802 c 128,-1,38
 304 403 304 403 304 203 c 2,39,-1
 304 115 l 1,0,-1
EndSplineSet
EndChar

StartChar: J
Encoding: 74 74 45
Width: 475
Flags: HW
LayerCount: 2
Fore
SplineSet
319 1429 m 1,0,-1
 315 1112 l 1,1,2
 315 979 315 979 333.5 713.5 c 128,-1,3
 352 448 352 448 352 284 c 128,-1,4
 352 120 352 120 308 2.5 c 128,-1,5
 264 -115 264 -115 153 -194 c 1,6,7
 121 -194 121 -194 100 -178 c 128,-1,8
 79 -162 79 -162 79 -134 c 128,-1,9
 79 -106 79 -106 104.5 -83 c 128,-1,10
 130 -60 130 -60 159 -48 c 1,11,12
 241 55 241 55 241 241 c 0,13,14
 241 343 241 343 230.5 533 c 128,-1,15
 220 723 220 723 218.5 789.5 c 128,-1,16
 217 856 217 856 216 959.5 c 128,-1,17
 215 1063 215 1063 214 1127.5 c 0,18,19
 211.305714286 1301.28142857 211.305714286 1301.28142857 188 1445 c 1,20,21
 181 1444 181 1444 161 1439 c 0,22,23
 121 1429 121 1429 99.5 1429 c 128,-1,24
 78 1429 78 1429 62.5 1444.5 c 128,-1,25
 47 1460 47 1460 47 1481 c 0,26,27
 47 1553 47 1553 292 1553 c 0,28,29
 410 1553 410 1553 410 1497.2 c 128,-1,30
 410 1441.4 410 1441.4 319 1444 c 1,31,-1
 319 1429 l 1,0,-1
EndSplineSet
EndChar

StartChar: K
Encoding: 75 75 46
Width: 691
Flags: HW
LayerCount: 2
Fore
SplineSet
120 660 m 2,0,-1
 123 1049 l 1,1,2
 123 1272 123 1272 116.5 1326 c 128,-1,3
 110 1380 110 1380 101.5 1418.5 c 128,-1,4
 93 1457 93 1457 93 1479.5 c 128,-1,5
 93 1502 93 1502 109.5 1521.5 c 128,-1,6
 126 1541 126 1541 151 1541 c 0,7,8
 227 1541 227 1541 227 1375 c 0,9,10
 227 1374 227 1374 218 954 c 1,11,12
 225 972 225 972 256 1054 c 128,-1,13
 287 1136 287 1136 320 1221 c 128,-1,14
 353 1306 353 1306 390.5 1394.5 c 0,15,16
 475.881355932 1596 475.881355932 1596 513 1596 c 0,17,18
 536 1596 536 1596 553.5 1580.5 c 128,-1,19
 571 1565 571 1565 571 1543.5 c 128,-1,20
 571 1522 571 1522 459 1288 c 128,-1,21
 347 1054 347 1054 334 991 c 1,22,-1
 334 955 l 1,23,24
 364 876 364 876 497.5 456.5 c 128,-1,25
 631 37 631 37 631 11.5 c 128,-1,26
 631 -14 631 -14 611 -31 c 128,-1,27
 591 -48 591 -48 566 -48 c 1,28,-1
 518 -40 l 1,29,30
 468 253 468 253 416 468.5 c 128,-1,31
 364 684 364 684 278 880 c 1,32,33
 220.549222798 771.481865285 220.549222798 771.481865285 217.274611399 747.740932642 c 0,34,35
 210 695 210 695 210 650 c 1,36,-1
 223 270 l 1,37,38
 223 -7 223 -7 153 -7 c 0,39,40
 93 -7 93 -7 93 96.5 c 128,-1,41
 93 200 93 200 106.5 384 c 128,-1,42
 120 568 120 568 120 660 c 2,0,-1
EndSplineSet
EndChar

StartChar: L
Encoding: 76 76 47
Width: 485
Flags: HW
LayerCount: 2
Fore
SplineSet
200 1512 m 2,0,-1
 221 775 l 1,1,2
 221 739 221 739 217 710 c 1,3,-1
 217 701 l 1,4,5
 220 642 220 642 226.5 533 c 0,6,7
 241 289.846153846 241 289.846153846 241 167 c 2,8,-1
 241 102 l 1,9,-1
 387 102 l 1,10,11
 421.150943396 81.5094339623 421.150943396 81.5094339623 426.075471698 72.7547169811 c 128,-1,12
 431 64 431 64 431 47.5 c 128,-1,13
 431 31 431 31 416 13.5 c 128,-1,14
 401 -4 401 -4 385 -4 c 128,-1,15
 369 -4 369 -4 348 3 c 1,16,17
 331 -1 331 -1 309 -1 c 2,18,-1
 243 2 l 1,19,20
 222 -23 222 -23 190.5 -23 c 128,-1,21
 159 -23 159 -23 137.5 -3.5 c 128,-1,22
 116 16 116 16 116 42 c 1,23,24
 129 132 l 1,25,26
 129 365 129 365 108.5 830.5 c 128,-1,27
 88 1296 88 1296 88 1529 c 0,28,29
 88 1548 88 1548 103 1559.5 c 128,-1,30
 118 1571 118 1571 140.5 1571 c 128,-1,31
 163 1571 163 1571 181.5 1554 c 128,-1,32
 200 1537 200 1537 200 1512 c 2,0,-1
EndSplineSet
EndChar

StartChar: M
Encoding: 77 77 48
Width: 854
Flags: HW
LayerCount: 2
Fore
SplineSet
423 424 m 1,0,1
 561.459459459 1208.6036036 561.459459459 1208.6036036 593 1517 c 1,2,-1
 593 1529 l 1,3,4
 598 1556 598 1556 619.5 1571.5 c 128,-1,5
 641 1587 641 1587 662.5 1587 c 128,-1,6
 684 1587 684 1587 695 1579 c 0,7,8
 719 1561.54545455 719 1561.54545455 719 1535 c 0,9,10
 719 1292 719 1292 732 807 c 128,-1,11
 745 322 745 322 745 79 c 0,12,13
 745 18 745 18 704 -17 c 1,14,15
 682 -32 682 -32 677 -23 c 1,16,17
 635.710144928 -34.2608695652 635.710144928 -34.2608695652 631 -6 c 0,18,19
 629 6 629 6 629 24 c 2,20,21
 630 57 l 1,22,23
 626 213 626 213 626 301 c 128,-1,24
 626 389 626 389 627.5 544 c 128,-1,25
 629 699 629 699 627 1132 c 1,26,27
 616 1068 616 1068 580.5 890.5 c 128,-1,28
 545 713 545 713 532 632.5 c 128,-1,29
 519 552 519 552 511 498 c 128,-1,30
 503 444 503 444 495.5 401.5 c 128,-1,31
 488 359 488 359 477 315 c 0,32,33
 453.75 222 453.75 222 411 222 c 0,34,35
 347 222 347 222 347 413 c 1,36,37
 335 511 335 511 281 805.5 c 128,-1,38
 227 1100 227 1100 209 1210 c 1,39,40
 207 1020 207 1020 207 925 c 1,41,-1
 224 73 l 2,42,43
 224 29 224 29 193 -4 c 1,44,45
 142 -4 142 -4 124 30 c 128,-1,46
 106 64 106 64 106 122 c 1,47,-1
 113 464 l 1,48,-1
 106 1257 l 1,49,50
 106 1390 106 1390 109 1522 c 1,51,-1
 166 1554 l 1,52,53
 222.653671804 1547.92996374 222.653671804 1547.92996374 293 1194 c 0,54,55
 348.721593291 913.650733753 348.721593291 913.650733753 384.360796646 677.825366876 c 128,-1,56
 420 442 420 442 423 424 c 1,0,1
EndSplineSet
EndChar

StartChar: N
Encoding: 78 78 49
Width: 764
Flags: HW
LayerCount: 2
Fore
SplineSet
647 1444 m 2,0,-1
 639 687 l 1,1,-1
 639 61 l 2,2,3
 639 12.4047619048 639 12.4047619048 599 -9.5 c 0,4,5
 578 -21 578 -21 555.5 -21 c 128,-1,6
 533 -21 533 -21 521.5 -14 c 128,-1,7
 510 -7 510 -7 504 3 c 128,-1,8
 498 13 498 13 493.5 28 c 128,-1,9
 489 43 489 43 487 56.5 c 0,10,11
 476.218457102 129.275414564 476.218457102 129.275414564 411.109228551 361.637707282 c 0,12,13
 285.346645133 810.460138012 285.346645133 810.460138012 250 1037 c 0,14,15
 248 1044 248 1044 247.5 1056 c 128,-1,16
 247 1068 247 1068 246.5 1076.5 c 0,17,18
 245.256410256 1097.64102564 245.256410256 1097.64102564 235 1112 c 1,19,20
 236 1154 236 1154 217.5 1219.5 c 128,-1,21
 199 1285 199 1285 197 1298 c 1,22,-1
 197 2 l 1,23,-1
 125 2 l 1,24,-1
 125 40 l 1,25,26
 129 55 129 55 124 103 c 128,-1,27
 119 151 119 151 119 217 c 128,-1,28
 119 283 119 283 106 521 c 128,-1,29
 93 759 93 759 93 812 c 2,30,-1
 93 1073 l 1,31,-1
 107 1449 l 1,32,33
 107 1524.6 107 1524.6 118.5 1533.8 c 0,34,35
 143.75 1554 143.75 1554 171.875 1554 c 128,-1,36
 200 1554 200 1554 215 1546 c 0,37,38
 250 1527.33333333 250 1527.33333333 250 1493.16666667 c 128,-1,39
 250 1459 250 1459 258 1425.5 c 128,-1,40
 266 1392 266 1392 281 1350.5 c 128,-1,41
 296 1309 296 1309 302 1287 c 128,-1,42
 308 1265 308 1265 312.5 1236 c 128,-1,43
 317 1207 317 1207 319 1184 c 0,44,45
 325.695652174 1107 325.695652174 1107 336.347826087 1051 c 128,-1,46
 347 995 347 995 377 884.5 c 128,-1,47
 407 774 407 774 433.5 689 c 0,48,49
 501.500880946 470.883966776 501.500880946 470.883966776 511 298 c 1,50,51
 527 268 527 268 531 225 c 1,52,-1
 537 939 l 1,53,-1
 537 1545 l 1,54,55
 549 1596 549 1596 604.5 1596 c 128,-1,56
 660 1596 660 1596 660 1516 c 2,57,-1
 660 1504 l 1,58,59
 647 1477 647 1477 647 1444 c 2,0,-1
EndSplineSet
EndChar

StartChar: O
Encoding: 79 79 50
Width: 694
Flags: HW
LayerCount: 2
Fore
SplineSet
369.5 1448.5 m 128,-1,1
 340 1477 340 1477 312.5 1477 c 128,-1,2
 285 1477 285 1477 268 1463 c 128,-1,3
 251 1449 251 1449 239 1421 c 128,-1,4
 227 1393 227 1393 217 1361.5 c 128,-1,5
 207 1330 207 1330 200.5 1284.5 c 128,-1,6
 194 1239 194 1239 189 1202 c 128,-1,7
 184 1165 184 1165 181 1114 c 128,-1,8
 178 1063 178 1063 176 1031 c 128,-1,9
 174 999 174 999 173.5 954 c 128,-1,10
 173 909 173 909 173 894 c 2,11,-1
 173 852 l 2,12,13
 173 687.348837209 173 687.348837209 204.5 474.174418605 c 0,14,15
 266.439862543 55 266.439862543 55 379 55 c 0,16,17
 419 55 419 55 447 131.5 c 128,-1,18
 475 208 475 208 486.5 323 c 0,19,20
 506 518 506 518 506 605.5 c 128,-1,21
 506 693 506 693 505.5 731 c 128,-1,22
 505 769 505 769 502.5 841.5 c 128,-1,23
 500 914 500 914 494 977.5 c 128,-1,24
 488 1041 488 1041 479 1118 c 128,-1,25
 470 1195 470 1195 454.5 1255 c 128,-1,26
 439 1315 439 1315 419 1367.5 c 128,-1,0
 399 1420 399 1420 369.5 1448.5 c 128,-1,1
599 618 m 1,27,-1
 581 359 l 1,28,-1
 581 350 l 1,29,30
 568 293 568 293 568 227 c 128,-1,31
 568 161 568 161 545.5 99.5 c 128,-1,32
 523 38 523 38 476.5 -9.5 c 128,-1,33
 430 -57 430 -57 375 -57 c 128,-1,34
 320 -57 320 -57 274.5 -19 c 128,-1,35
 229 19 229 19 199.5 78.5 c 128,-1,36
 170 138 170 138 147 220.5 c 128,-1,37
 124 303 124 303 112 381.5 c 128,-1,38
 100 460 100 460 92.5 547 c 0,39,40
 81 680.4 81 680.4 81 765.7 c 128,-1,41
 81 851 81 851 83.5 906.5 c 0,42,43
 88.0149253731 1006.73134328 88.0149253731 1006.73134328 93.0074626866 1085.36567164 c 128,-1,44
 98 1164 98 1164 99 1206 c 128,-1,45
 100 1248 100 1248 101 1277 c 128,-1,46
 102 1306 102 1306 107 1348.5 c 128,-1,47
 112 1391 112 1391 119 1421 c 128,-1,48
 126 1451 126 1451 140.5 1484 c 128,-1,49
 155 1517 155 1517 175 1537.5 c 0,50,51
 221.341463415 1585 221.341463415 1585 278.170731707 1585 c 128,-1,52
 335 1585 335 1585 369 1574 c 128,-1,53
 403 1563 403 1563 426.5 1545.5 c 128,-1,54
 450 1528 450 1528 469.5 1499.5 c 128,-1,55
 489 1471 489 1471 501.5 1444 c 128,-1,56
 514 1417 514 1417 524 1379 c 0,57,58
 536.674418605 1330.8372093 536.674418605 1330.8372093 550 1242 c 0,59,60
 599 892 599 892 599 618 c 1,27,-1
EndSplineSet
EndChar

StartChar: P
Encoding: 80 80 51
Width: 551
Flags: HW
LayerCount: 2
Fore
SplineSet
205 811 m 1,0,1
 360 958.151898734 360 958.151898734 360 1158 c 2,2,-1
 360 1159 l 2,3,4
 360 1306.84 360 1306.84 306 1363 c 0,5,6
 272.228070175 1398.12280702 272.228070175 1398.12280702 187 1459 c 1,7,8
 188 1351 188 1351 196.5 1135 c 128,-1,9
 205 919 205 919 205 811 c 1,0,1
109 58 m 2,10,-1
 119 789 l 1,11,12
 119 1275 119 1275 67 1520 c 1,13,14
 99 1566 99 1566 145 1566 c 0,15,16
 221 1566 221 1566 283.5 1532 c 128,-1,17
 346 1498 346 1498 385 1441.5 c 0,18,19
 466 1324.15384615 466 1324.15384615 466 1174.57692308 c 128,-1,20
 466 1025 466 1025 401 902.5 c 128,-1,21
 336 780 336 780 210 712 c 1,22,-1
 226 74 l 1,23,24
 226 -11 226 -11 158 -11 c 0,25,26
 133 -11 133 -11 121 10.5 c 128,-1,27
 109 32 109 32 109 58 c 2,10,-1
EndSplineSet
EndChar

StartChar: Q
Encoding: 81 81 52
Width: 720
Flags: HW
LayerCount: 2
Fore
SplineSet
587 -169 m 2,0,1
 663 -169 663 -169 663 -219 c 0,2,3
 663 -282 663 -282 572 -282 c 0,4,5
 537 -282 537 -282 487 -253 c 1,6,-1
 487 -252 l 1,7,8
 433.367847411 -226.177111717 433.367847411 -226.177111717 413 -161 c 0,9,10
 395.869565217 -106.182608696 395.869565217 -106.182608696 388.934782609 -52.0913043478 c 128,-1,11
 382 2 382 2 378 20 c 1,12,-1
 297 20 l 1,13,14
 107.078560568 147.765331982 107.078560568 147.765331982 86 445.5 c 0,15,16
 82 502 82 502 82 574 c 1,17,-1
 92 908 l 1,18,-1
 90 1052 l 1,19,20
 90 1576 90 1576 311 1576 c 0,21,22
 392 1576 392 1576 462 1517.5 c 128,-1,23
 532 1459 532 1459 551 1377 c 0,24,25
 586 1222 586 1222 596 1054.5 c 128,-1,26
 606 887 606 887 606 764.5 c 2,27,-1
 606 611 l 2,28,29
 606 355 606 355 586.5 292 c 0,30,31
 546.108200456 161.503416856 546.108200456 161.503416856 481 70 c 1,32,33
 483 62 483 62 488 29.5 c 128,-1,34
 493 -3 493 -3 499.5 -33.5 c 128,-1,35
 506 -64 506 -64 515 -96.5 c 0,36,37
 535.076923077 -169 535.076923077 -169 567 -169 c 2,38,-1
 587 -169 l 2,0,1
411 107 m 1,39,40
 494 185.951219512 494 185.951219512 494 327 c 2,41,-1
 494 793 l 2,42,43
 494 885.611111111 494 885.611111111 479.5 1015.30555556 c 128,-1,44
 465 1145 465 1145 462.5 1173 c 128,-1,45
 460 1201 460 1201 458 1226 c 128,-1,46
 456 1251 456 1251 455 1266 c 128,-1,47
 454 1281 454 1281 451 1305 c 128,-1,48
 448 1329 448 1329 444.5 1343.5 c 128,-1,49
 441 1358 441 1358 434.5 1378 c 128,-1,50
 428 1398 428 1398 420 1410 c 128,-1,51
 412 1422 412 1422 400 1435.5 c 128,-1,52
 388 1449 388 1449 373 1456.5 c 0,53,54
 338 1474 338 1474 294 1474 c 0,55,56
 258 1474 258 1474 233.5 1368.5 c 128,-1,57
 209 1263 209 1263 199.5 1103.5 c 0,58,59
 183 826.473684211 183 826.473684211 183 712.236842105 c 128,-1,60
 183 598 183 598 185 543 c 128,-1,61
 187 488 187 488 198 400.5 c 128,-1,62
 209 313 209 313 226.5 248.5 c 128,-1,63
 244 184 244 184 280 134 c 128,-1,64
 316 84 316 84 364 80 c 1,65,-1
 364 82 l 1,66,67
 379 108 379 108 411 108 c 1,68,-1
 411 107 l 1,39,40
EndSplineSet
EndChar

StartChar: R
Encoding: 82 82 53
Width: 601
Flags: HW
LayerCount: 2
Fore
SplineSet
221 1463 m 1,0,-1
 210 1045 l 1,1,2
 210 982 210 982 212 951 c 1,3,4
 246 984 246 984 278 1030 c 1,5,-1
 308 1207 l 1,6,7
 308 1313 308 1313 280 1385 c 128,-1,8
 252 1457 252 1457 221 1463 c 1,0,-1
535 46.5 m 2,9,10
 535 -21 535 -21 486 -21 c 0,11,12
 448 -21 448 -21 412 34 c 1,13,-1
 412 41 l 1,14,15
 407 123 407 123 361.5 266 c 128,-1,16
 316 409 316 409 305 459 c 128,-1,17
 294 509 294 509 269.5 647.5 c 128,-1,18
 245 786 245 786 227 859 c 1,19,-1
 227 52 l 2,20,21
 227 -13 227 -13 160 -13 c 0,22,23
 136 -13 136 -13 119 3.5 c 128,-1,24
 102 20 102 20 102 44 c 2,25,-1
 102 60 l 1,26,-1
 116 1261 l 1,27,-1
 116 1513 l 2,28,29
 116 1537 116 1537 126 1547 c 128,-1,30
 136 1557 136 1557 184 1557 c 128,-1,31
 232 1557 232 1557 282 1525.5 c 128,-1,32
 332 1494 332 1494 362 1444 c 0,33,34
 424 1340.66666667 424 1340.66666667 424 1217 c 0,35,36
 424 1116.54545455 424 1116.54545455 373.5 988 c 0,37,38
 368 974 368 974 350 929 c 128,-1,39
 332 884 332 884 329 876 c 1,40,41
 330 796 330 796 355.5 676.5 c 128,-1,42
 381 557 381 557 403 483.5 c 128,-1,43
 425 410 425 410 476.5 254 c 128,-1,44
 528 98 528 98 535 76 c 1,45,-1
 535 46.5 l 2,9,10
EndSplineSet
EndChar

StartChar: S
Encoding: 83 83 54
Width: 581
Flags: HW
LayerCount: 2
Fore
SplineSet
64 24 m 0,0,1
 64 79 64 79 110 79 c 0,2,3
 133 79 133 79 170.5 63.5 c 128,-1,4
 208 48 208 48 235.5 48 c 128,-1,5
 263 48 263 48 295 83 c 128,-1,6
 327 118 327 118 345 169.5 c 0,7,8
 382 275.361111111 382 275.361111111 382 361.180555556 c 128,-1,9
 382 447 382 447 352 545 c 128,-1,10
 322 643 322 643 278.5 729 c 128,-1,11
 235 815 235 815 192 901 c 0,12,13
 89 1107 89 1107 89 1275 c 0,14,15
 89 1434.93457944 89 1434.93457944 190.5 1526 c 0,16,17
 244 1574 244 1574 317 1574 c 0,18,19
 354 1574 354 1574 389 1553.5 c 128,-1,20
 424 1533 424 1533 438 1500 c 1,21,-1
 438 1456 l 1,22,23
 352 1456 352 1456 323 1476 c 1,24,25
 285 1472 285 1472 257 1439.5 c 0,26,27
 206 1380.30357143 206 1380.30357143 206 1301.65178571 c 128,-1,28
 206 1223 206 1223 229 1139.5 c 128,-1,29
 252 1056 252 1056 284 982.5 c 128,-1,30
 316 909 316 909 348.5 846 c 128,-1,31
 381 783 381 783 404 743 c 128,-1,32
 427 703 427 703 427 701 c 2,33,-1
 427 685 l 1,34,35
 434 659 434 659 451 603 c 128,-1,36
 468 547 468 547 477.5 513.5 c 0,37,38
 503 423.578947368 503 423.578947368 503 350.789473684 c 128,-1,39
 503 278 503 278 485.5 212 c 128,-1,40
 468 146 468 146 435.5 87.5 c 128,-1,41
 403 29 403 29 347.5 -8 c 128,-1,42
 292 -45 292 -45 244 -45 c 128,-1,43
 196 -45 196 -45 163 -40 c 128,-1,44
 130 -35 130 -35 97 -18 c 128,-1,45
 64 -1 64 -1 64 24 c 0,0,1
EndSplineSet
EndChar

StartChar: T
Encoding: 84 84 55
Width: 543
Flags: HW
LayerCount: 2
Fore
SplineSet
347 1189 m 1,0,-1
 343 925 l 1,1,2
 343 738 343 738 375 611 c 1,3,-1
 375 610 l 1,4,5
 361 545 361 545 361 454 c 1,6,-1
 378 86 l 1,7,8
 378 -14 378 -14 319 -14 c 0,9,10
 285 -14 285 -14 269 18 c 128,-1,11
 253 50 253 50 253 89 c 1,12,-1
 269 416 l 1,13,14
 269 522 269 522 255 735 c 128,-1,15
 241 948 241 948 241 1054 c 1,16,-1
 244 1233 l 1,17,18
 244 1380 244 1380 225 1424 c 1,19,-1
 114 1413 l 1,20,21
 88 1413 88 1413 67.5 1428.5 c 128,-1,22
 47 1444 47 1444 47 1468.5 c 128,-1,23
 47 1493 47 1493 96 1510.5 c 128,-1,24
 145 1528 145 1528 215.5 1536 c 0,25,26
 338.875 1550 338.875 1550 423 1550 c 0,27,28
 448 1550 448 1550 468.5 1533.5 c 128,-1,29
 489 1517 489 1517 489 1492 c 128,-1,30
 489 1467 489 1467 471 1452.5 c 128,-1,31
 453 1438 453 1438 427 1438 c 1,32,-1
 354 1442 l 2,33,34
 340 1442 340 1442 333 1441 c 1,35,36
 347 1323 347 1323 347 1189 c 1,0,-1
EndSplineSet
EndChar

StartChar: U
Encoding: 85 85 56
Width: 752
Flags: HW
LayerCount: 2
Fore
SplineSet
645 586 m 1,0,-1
 651 460 l 1,1,-1
 651 429 l 1,2,-1
 646 407 l 1,3,-1
 647 288 l 1,4,5
 647 108.365853659 647 108.365853659 595.5 33 c 0,6,7
 547.666666667 -37 547.666666667 -37 447 -37 c 0,8,9
 323.907894737 -37 323.907894737 -37 259.5 52 c 0,10,11
 204.330942623 128.233606557 204.330942623 128.233606557 177.5 256 c 0,12,13
 145.059701493 410.47761194 145.059701493 410.47761194 125 474 c 0,14,15
 123 479 123 479 102.5 932 c 128,-1,16
 82 1385 82 1385 82 1435 c 1,17,18
 67 1452 67 1452 67 1477 c 128,-1,19
 67 1502 67 1502 84.5 1521 c 128,-1,20
 102 1540 102 1540 126 1540 c 0,21,22
 200 1540 200 1540 200 1394 c 1,23,-1
 219 682 l 1,24,25
 231 655 231 655 239.5 573 c 128,-1,26
 248 491 248 491 248 445.5 c 128,-1,27
 248 400 248 400 262.5 333.5 c 128,-1,28
 277 267 277 267 302 199 c 128,-1,29
 327 131 327 131 369.5 83 c 128,-1,30
 412 35 412 35 460 35 c 0,31,32
 538.457142857 35 538.457142857 35 542.5 176.5 c 0,33,34
 543 194 543 194 543 219 c 2,35,-1
 543 1138 l 2,36,37
 543 1196 543 1196 521 1313.5 c 128,-1,38
 499 1431 499 1431 499 1472.5 c 128,-1,39
 499 1514 499 1514 519.5 1529.5 c 128,-1,40
 540 1545 540 1545 566 1545 c 1,41,-1
 628 1497 l 1,42,-1
 628 1463 l 1,43,-1
 610 1338 l 1,44,45
 610 1219 610 1219 625 989.5 c 128,-1,46
 640 760 640 760 641 649 c 1,47,-1
 641 646 l 1,48,-1
 645 586 l 1,0,-1
EndSplineSet
EndChar

StartChar: V
Encoding: 86 86 57
Width: 664
Flags: HW
LayerCount: 2
Fore
SplineSet
554 1569 m 2,0,-1
 597 1569 l 1,1,2
 583 1436 583 1436 524 988 c 128,-1,3
 465 540 465 540 453.5 402 c 128,-1,4
 442 264 442 264 441.5 214 c 128,-1,5
 441 164 441 164 439 126.5 c 128,-1,6
 437 89 437 89 431 49.5 c 0,7,8
 418.316455696 -34 418.316455696 -34 370 -34 c 0,9,10
 341 -34 341 -34 322 -12 c 1,11,12
 275 183 275 183 182 768.5 c 128,-1,13
 89 1354 89 1354 51 1523 c 1,14,15
 63 1563 63 1563 111 1563 c 0,16,17
 134.2 1563 134.2 1563 142.6 1552.5 c 128,-1,18
 151 1542 151 1542 155 1536 c 128,-1,19
 159 1530 159 1530 162 1518.5 c 128,-1,20
 165 1507 165 1507 166.5 1500.5 c 128,-1,21
 168 1494 168 1494 169.5 1481 c 128,-1,22
 171 1468 171 1468 181 1407.5 c 128,-1,23
 191 1347 191 1347 225.5 1111.5 c 0,24,25
 300.159210526 601.869736842 300.159210526 601.869736842 354 339 c 1,26,27
 367 455 367 455 403.5 708.5 c 0,28,29
 479 1232.8630137 479 1232.8630137 479 1528 c 1,30,31
 511 1569 511 1569 554 1569 c 2,0,-1
EndSplineSet
EndChar

StartChar: W
Encoding: 87 87 58
Width: 950
Flags: HW
LayerCount: 2
Fore
SplineSet
305 503 m 1,0,1
 380 1103 380 1103 380 1286 c 2,2,-1
 380 1325 l 2,3,4
 380 1347 380 1347 396.5 1367.5 c 128,-1,5
 413 1388 413 1388 434 1388 c 0,6,7
 517 1388 517 1388 517 1328 c 2,8,-1
 517 1297 l 2,9,10
 517 1098.12328767 517 1098.12328767 598.5 723 c 0,11,12
 635 555 635 555 650 461 c 1,13,14
 661 574 661 574 690 788.5 c 0,15,16
 753 1254.48275862 753 1254.48275862 753 1506 c 0,17,18
 753 1551 753 1551 768 1571.5 c 128,-1,19
 783 1592 783 1592 817 1592 c 128,-1,20
 851 1592 851 1592 870.5 1576 c 128,-1,21
 890 1560 890 1560 890 1535 c 128,-1,22
 890 1510 890 1510 869 1489 c 1,23,24
 838 1321 838 1321 814.5 988 c 128,-1,25
 791 655 791 655 769 522.5 c 128,-1,26
 747 390 747 390 739.5 340 c 0,27,28
 714 170 714 170 714 43 c 0,29,30
 714 12 714 12 698.5 -8 c 128,-1,31
 683 -28 683 -28 655.5 -28 c 128,-1,32
 628 -28 628 -28 610 5 c 128,-1,33
 592 38 592 38 582 92.5 c 128,-1,34
 572 147 572 147 566.5 196.5 c 128,-1,35
 561 246 561 246 557.5 299.5 c 128,-1,36
 554 353 554 353 546.5 411.5 c 128,-1,37
 539 470 539 470 499 665.5 c 128,-1,38
 459 861 459 861 453 893 c 1,39,40
 378 318 378 318 378 28 c 0,41,42
 378 6 378 6 359.5 -11.5 c 128,-1,43
 341 -29 341 -29 319 -29 c 0,44,45
 244 -29 244 -29 244 127 c 0,46,47
 244 223 244 223 159.5 828.5 c 128,-1,48
 75 1434 75 1434 52 1491 c 1,49,50
 78 1540 78 1540 123 1540 c 0,51,52
 182.108433735 1540 182.108433735 1540 208 1386.5 c 0,53,54
 220.149425287 1314.47126437 220.149425287 1314.47126437 223.074712644 1206.23563218 c 128,-1,55
 226 1098 226 1098 229.5 1058 c 128,-1,56
 233 1018 233 1018 242.5 937 c 128,-1,57
 252 856 252 856 261 797.5 c 0,58,59
 281.2 666.2 281.2 666.2 305 503 c 1,0,1
EndSplineSet
EndChar

StartChar: X
Encoding: 88 88 59
Width: 578
Flags: HW
LayerCount: 2
Fore
SplineSet
433 24 m 0,0,1
 373 24 373 24 373 71 c 128,-1,2
 373 118 373 118 368.5 164.5 c 128,-1,3
 364 211 364 211 354 264 c 128,-1,4
 344 317 344 317 336.5 351 c 128,-1,5
 329 385 329 385 314 448.5 c 128,-1,6
 299 512 299 512 293 538 c 1,7,8
 217 214 217 214 202 130.5 c 128,-1,9
 187 47 187 47 182 31.5 c 128,-1,10
 177 16 177 16 161 1.5 c 128,-1,11
 145 -13 145 -13 121.5 -13 c 128,-1,12
 98 -13 98 -13 80.5 0 c 128,-1,13
 63 13 63 13 63 34.5 c 128,-1,14
 63 56 63 56 70.5 83 c 128,-1,15
 78 110 78 110 91.5 144.5 c 128,-1,16
 105 179 105 179 125.5 246 c 128,-1,17
 146 313 146 313 190.5 521.5 c 128,-1,18
 235 730 235 730 235 812 c 128,-1,19
 235 894 235 894 214 986.5 c 128,-1,20
 193 1079 193 1079 168.5 1151.5 c 0,21,22
 102 1348.28571429 102 1348.28571429 102 1473 c 2,23,-1
 102 1478 l 1,24,25
 120.666666667 1520 120.666666667 1520 160 1520 c 0,26,27
 198.923076923 1520 198.923076923 1520 207.461538462 1501.5 c 128,-1,28
 216 1483 216 1483 218.5 1474 c 128,-1,29
 221 1465 221 1465 223 1443.5 c 128,-1,30
 225 1422 225 1422 230 1386.5 c 128,-1,31
 235 1351 235 1351 264.5 1234.5 c 128,-1,32
 294 1118 294 1118 301 1087 c 1,33,34
 304 1097 304 1097 326.5 1229 c 0,35,36
 381.215909091 1550 381.215909091 1550 443 1550 c 0,37,38
 466 1550 466 1550 485 1538 c 128,-1,39
 504 1526 504 1526 504 1508.5 c 128,-1,40
 504 1491 504 1491 499.5 1477 c 128,-1,41
 495 1463 495 1463 487 1445 c 128,-1,42
 479 1427 479 1427 466.5 1393.5 c 128,-1,43
 454 1360 454 1360 402.5 1105.5 c 128,-1,44
 351 851 351 851 351 816.5 c 128,-1,45
 351 782 351 782 374.5 663.5 c 128,-1,46
 398 545 398 545 428 400.5 c 128,-1,47
 458 256 458 256 459 248 c 1,48,-1
 459 236 l 1,49,50
 461 211 461 211 475 160 c 128,-1,51
 489 109 489 109 489 83.5 c 128,-1,52
 489 58 489 58 472.5 41 c 128,-1,53
 456 24 456 24 433 24 c 0,0,1
EndSplineSet
EndChar

StartChar: Y
Encoding: 89 89 60
Width: 522
Flags: HW
LayerCount: 2
Fore
SplineSet
353 183 m 1,0,-1
 352 81 l 1,1,-1
 352 35 l 2,2,3
 352 8 352 8 334 -8.5 c 128,-1,4
 316 -25 316 -25 293.5 -25 c 128,-1,5
 271 -25 271 -25 255.5 -10.5 c 128,-1,6
 240 4 240 4 240 25 c 2,7,-1
 250 421 l 1,8,9
 250 481 250 481 230.5 598.5 c 128,-1,10
 211 716 211 716 211 787.5 c 128,-1,11
 211 859 211 859 186.5 961.5 c 128,-1,12
 162 1064 162 1064 132 1145.5 c 0,13,14
 53 1360.11666667 53 1360.11666667 53 1513 c 0,15,16
 53 1546 53 1546 118 1546 c 0,17,18
 133 1546 133 1546 149 1534 c 128,-1,19
 165 1522 165 1522 166 1507 c 0,20,21
 186 1271 186 1271 268 1006 c 1,22,23
 272 1024 272 1024 277.5 1091.5 c 128,-1,24
 283 1159 283 1159 290.5 1230 c 128,-1,25
 298 1301 298 1301 310 1373.5 c 0,26,27
 337.393103448 1539 337.393103448 1539 391.696551724 1539 c 128,-1,28
 446 1539 446 1539 446 1517 c 0,29,30
 446 1402 446 1402 397 1174 c 128,-1,31
 348 946 348 946 348 828 c 1,32,-1
 354 757 l 1,33,-1
 354 726 l 1,34,35
 353 183 l 1,0,-1
EndSplineSet
EndChar

StartChar: Z
Encoding: 90 90 61
Width: 494
Flags: HW
LayerCount: 2
Fore
SplineSet
307 1451 m 1,0,1
 237 1441 237 1441 190 1441 c 0,2,3
 79 1441 79 1441 79 1506 c 2,4,-1
 79 1549 l 1,5,-1
 108 1550 l 1,6,7
 135 1543 135 1543 165 1543 c 1,8,-1
 358 1564 l 1,9,10
 382 1564 382 1564 398 1546.5 c 128,-1,11
 414 1529 414 1529 414 1490 c 0,12,13
 414 1444 414 1444 374 1224 c 1,14,15
 362 1136 362 1136 335 909.5 c 0,16,17
 281.737704918 462.68852459 281.737704918 462.68852459 231 209 c 0,18,19
 226 186 226 186 209 145.5 c 128,-1,20
 192 105 192 105 187 85 c 1,21,-1
 295 93 l 1,22,23
 403 93 403 93 403 30 c 2,24,-1
 403 21 l 1,25,-1
 371 -11 l 1,26,27
 118 -19 l 1,28,29
 79 -19 79 -19 60 31 c 1,30,31
 107 106 107 106 165.5 420.5 c 128,-1,32
 224 735 224 735 261.5 1028 c 128,-1,33
 299 1321 299 1321 307 1451 c 1,0,1
EndSplineSet
EndChar

StartChar: bracketleft
Encoding: 91 91 62
Width: 523
Flags: HW
LayerCount: 2
Fore
SplineSet
415 1465 m 1,0,-1
 300 1478 l 1,1,2
 262 1478 262 1478 262 1458 c 0,3,4
 262 1173.14285714 262 1173.14285714 237 794.571428571 c 128,-1,5
 212 416 212 416 209.5 376.5 c 128,-1,6
 207 337 207 337 194.5 223.5 c 128,-1,7
 182 110 182 110 182 48 c 2,8,-1
 182 6 l 1,9,-1
 191 6 l 1,10,11
 385 7 385 7 385 -68 c 0,12,13
 385 -112 385 -112 319 -112 c 0,14,15
 72 -112 72 -112 72 -35 c 0,16,17
 72 49 72 49 93.5 217.5 c 128,-1,18
 115 386 115 386 115 512.5 c 128,-1,19
 115 639 115 639 141.5 975 c 128,-1,20
 168 1311 168 1311 168 1480 c 0,21,22
 168 1545 168 1545 207 1576 c 1,23,-1
 285 1576 l 2,24,25
 471 1576 471 1576 471 1511 c 0,26,27
 471 1490 471 1490 453.5 1477.5 c 128,-1,28
 436 1465 436 1465 415 1465 c 1,0,-1
EndSplineSet
EndChar

StartChar: backslash
Encoding: 92 92 63
Width: 561
Flags: HW
LayerCount: 2
Fore
SplineSet
463 -30 m 1,0,-1
 463 -31 l 1,1,2
 431.078431373 -31 431.078431373 -31 406.5 23.5 c 0,3,4
 361.16091954 124.034482759 361.16091954 124.034482759 333 293 c 1,5,6
 293 478 293 478 213.5 822 c 128,-1,7
 134 1166 134 1166 115.5 1249.5 c 128,-1,8
 97 1333 97 1333 85.5 1372 c 0,9,10
 60 1458.47826087 60 1458.47826087 60 1492.73913043 c 128,-1,11
 60 1527 60 1527 76.5 1541 c 128,-1,12
 93 1555 93 1555 110.5 1555 c 128,-1,13
 128 1555 128 1555 137.5 1548 c 128,-1,14
 147 1541 147 1541 153 1527 c 128,-1,15
 159 1513 159 1513 162 1503 c 128,-1,16
 165 1493 165 1493 168 1474.5 c 128,-1,17
 171 1456 171 1456 183 1404.5 c 128,-1,18
 195 1353 195 1353 255.5 1131.5 c 128,-1,19
 316 910 316 910 367 722.5 c 0,20,21
 501 229.852941176 501 229.852941176 501 31 c 0,22,23
 501 -6 501 -6 463 -30 c 1,0,-1
EndSplineSet
EndChar

StartChar: bracketright
Encoding: 93 93 64
Width: 506
Flags: HW
LayerCount: 2
Fore
SplineSet
121 -68 m 0,0,1
 121 6 121 6 302.5 6 c 2,2,-1
 323 6 l 1,3,-1
 323 48 l 1,4,5
 319 250 319 250 291 725.5 c 128,-1,6
 263 1201 263 1201 263 1458 c 2,7,-1
 263 1476 l 1,8,-1
 128 1465 l 1,9,10
 54 1465 54 1465 54 1511 c 0,11,12
 54 1578 54 1578 247 1578 c 2,13,-1
 319 1578 l 1,14,15
 352.344262295 1564.10655738 352.344262295 1564.10655738 355.172131148 1548.55327869 c 128,-1,16
 358 1533 358 1533 358.5 1529 c 128,-1,17
 359 1525 359 1525 358.5 1506.5 c 128,-1,18
 358 1488 358 1488 358 1403 c 128,-1,19
 358 1318 358 1318 376 995 c 128,-1,20
 394 672 394 672 394 545 c 128,-1,21
 394 418 394 418 414.5 237 c 128,-1,22
 435 56 435 56 435 -35 c 0,23,24
 435 -112 435 -112 187 -112 c 0,25,26
 121 -112 121 -112 121 -68 c 0,0,1
EndSplineSet
EndChar

StartChar: asciicircum
Encoding: 94 94 65
Width: 355
Flags: HW
LayerCount: 2
Fore
SplineSet
129.5 1530.5 m 128,-1,1
 108 1546 108 1546 108 1576 c 128,-1,2
 108 1606 108 1606 124.5 1631 c 128,-1,3
 141 1656 141 1656 171 1656 c 128,-1,4
 201 1656 201 1656 223 1634.5 c 128,-1,5
 245 1613 245 1613 245 1584 c 128,-1,6
 245 1555 245 1555 227 1535 c 128,-1,7
 209 1515 209 1515 180 1515 c 128,-1,0
 151 1515 151 1515 129.5 1530.5 c 128,-1,1
EndSplineSet
EndChar

StartChar: underscore
Encoding: 95 95 66
Width: 982
Flags: HW
LayerCount: 2
Fore
SplineSet
690 -115 m 2,0,-1
 141 -137 l 2,1,2
 120 -137 120 -137 105 -121.5 c 128,-1,3
 90 -106 90 -106 90 -85 c 0,4,5
 90 -23 90 -23 308 -23 c 1,6,-1
 485 -20 l 1,7,-1
 814 0 l 1,8,9
 839 0 839 0 860 -17 c 128,-1,10
 881 -34 881 -34 881 -67 c 128,-1,11
 881 -100 881 -100 854.5 -108 c 128,-1,12
 828 -116 828 -116 766.5 -115.5 c 128,-1,13
 705 -115 705 -115 690 -115 c 2,0,-1
EndSplineSet
EndChar

StartChar: grave
Encoding: 96 96 67
Width: 583
Flags: HW
LayerCount: 2
Fore
SplineSet
215 1598 m 1,0,1
 193 1596 193 1596 180 1596 c 0,2,3
 91 1596 91 1596 91 1658 c 0,4,5
 91 1709 91 1709 119 1726 c 1,6,7
 188 1726 188 1726 206 1717 c 128,-1,8
 224 1708 224 1708 230.5 1704 c 128,-1,9
 237 1700 237 1700 277 1687 c 128,-1,10
 317 1674 317 1674 342.5 1664 c 128,-1,11
 368 1654 368 1654 402.5 1638 c 0,12,13
 473 1605.30434783 473 1605.30434783 473 1565 c 0,14,15
 473 1548 473 1548 458 1536.5 c 128,-1,16
 443 1525 443 1525 429.5 1525 c 128,-1,17
 416 1525 416 1525 395.5 1531 c 128,-1,18
 375 1537 375 1537 347.5 1547 c 128,-1,19
 320 1557 320 1557 297.5 1565.5 c 128,-1,20
 275 1574 275 1574 248 1585 c 128,-1,21
 221 1596 221 1596 215 1598 c 1,0,1
EndSplineSet
EndChar

StartChar: a
Encoding: 97 97 68
Width: 674
Flags: HW
LayerCount: 2
Fore
SplineSet
572 331 m 1,0,-1
 561 290 l 1,1,2
 561 265 561 265 579 168 c 128,-1,3
 597 71 597 71 597 41 c 2,4,-1
 597 39 l 2,5,6
 597 -7 597 -7 566 -19 c 1,7,8
 523 -19 523 -19 499 -5 c 128,-1,9
 475 9 475 9 475 65.5 c 128,-1,10
 475 122 475 122 445 298 c 1,11,-1
 382 304 l 1,12,-1
 314 304 l 1,13,14
 291 314 291 314 233 314 c 1,15,16
 233 312 233 312 230.5 287.5 c 128,-1,17
 228 263 228 263 226.5 248 c 128,-1,18
 225 233 225 233 221.5 203.5 c 128,-1,19
 218 174 218 174 214 153.5 c 128,-1,20
 210 133 210 133 204 105.5 c 128,-1,21
 198 78 198 78 190.5 59.5 c 128,-1,22
 183 41 183 41 174 23.5 c 0,23,24
 156.257142857 -11 156.257142857 -11 130.128571429 -11 c 128,-1,25
 104 -11 104 -11 83.5 4.5 c 128,-1,26
 63 20 63 20 63 44 c 1,27,28
 117.225641026 251.333333333 117.225641026 251.333333333 155.612820513 478.166666667 c 128,-1,29
 194 705 194 705 201.5 747.5 c 128,-1,30
 209 790 209 790 236.5 911.5 c 128,-1,31
 264 1033 264 1033 269.5 1074 c 128,-1,32
 275 1115 275 1115 279.5 1180 c 0,33,34
 289.35465995 1322.34508816 289.35465995 1322.34508816 317 1363 c 1,35,-1
 386 1363 l 2,36,37
 456 1363 456 1363 456 1321 c 0,38,39
 456 926 456 926 533 536 c 0,40,41
 537 513 537 513 548 472 c 0,42,43
 572 382.545454545 572 382.545454545 572 331 c 1,0,-1
432 375 m 1,44,45
 426 405 426 405 426 472 c 128,-1,46
 426 539 426 539 417.5 634.5 c 128,-1,47
 409 730 409 730 393 856 c 128,-1,48
 377 982 377 982 371 1038 c 1,49,50
 359 980 359 980 324.5 844 c 0,51,52
 252.606239058 560.592710489 252.606239058 560.592710489 251 408 c 1,53,54
 286 385 286 385 432 375 c 1,44,45
EndSplineSet
EndChar

StartChar: b
Encoding: 98 98 69
Width: 542
Flags: HW
LayerCount: 2
Fore
SplineSet
111 524 m 1,0,-1
 120 1173 l 2,1,2
 120 1244 120 1244 118 1279 c 1,3,-1
 118 1298 l 2,4,5
 118 1383 118 1383 176 1383 c 0,6,7
 222 1383 222 1383 300 1357 c 128,-1,8
 378 1331 378 1331 378 1296 c 0,9,10
 378 1250 378 1250 408.5 1161.5 c 128,-1,11
 439 1073 439 1073 439 1028 c 0,12,13
 439 889 439 889 419 827.5 c 128,-1,14
 399 766 399 766 356 705 c 1,15,16
 415 648 415 648 433 561.5 c 128,-1,17
 451 475 451 475 451 387.5 c 128,-1,18
 451 300 451 300 441 246 c 128,-1,19
 431 192 431 192 408 143 c 128,-1,20
 385 94 385 94 351.5 58 c 0,21,22
 278.916666667 -20 278.916666667 -20 155 -20 c 0,23,24
 110.648648649 -20 110.648648649 -20 99.5 17.5 c 0,25,26
 91 46.0909090909 91 46.0909090909 91 88 c 1,27,-1
 111 524 l 1,0,-1
220 244 m 1,28,29
 207 222 207 222 207 176 c 2,30,-1
 207 84 l 1,31,32
 273 100 273 100 307 165.5 c 128,-1,33
 341 231 341 231 341 287 c 128,-1,34
 341 343 341 343 339.5 376.5 c 128,-1,35
 338 410 338 410 331 458 c 128,-1,36
 324 506 324 506 312 542 c 0,37,38
 282.918604651 629.244186047 282.918604651 629.244186047 222 643 c 1,39,40
 214 525 214 525 214 397 c 128,-1,41
 214 269 214 269 220 244 c 1,28,29
220 1288 m 1,42,-1
 220 763 l 1,43,44
 323 766 323 766 323 1012 c 0,45,46
 323 1076.76190476 323 1076.76190476 307.5 1146.88095238 c 0,47,48
 277.622956909 1282.03900446 277.622956909 1282.03900446 220 1288 c 1,42,-1
EndSplineSet
EndChar

StartChar: c
Encoding: 99 99 70
Width: 568
Flags: HW
LayerCount: 2
Fore
SplineSet
437 97 m 1,0,1
 499 97 499 97 499 52 c 0,2,3
 499 -29 499 -29 385 -29 c 0,4,5
 338 -29 338 -29 288.5 -15.5 c 128,-1,6
 239 -2 239 -2 214 14 c 0,7,8
 78 102 78 102 78 495 c 1,9,-1
 77 615 l 1,10,11
 77 1204 77 1204 221 1310 c 0,12,13
 294.8 1364 294.8 1364 427 1364 c 0,14,15
 449 1364 449 1364 467.5 1348 c 128,-1,16
 486 1332 486 1332 486 1311 c 2,17,-1
 486 1303 l 1,18,19
 467 1256 467 1256 387 1256 c 1,20,-1
 350 1258 l 1,21,22
 316 1258 316 1258 289.5 1221 c 128,-1,23
 263 1184 263 1184 249 1132 c 128,-1,24
 235 1080 235 1080 226 1015.5 c 0,25,26
 212 915.166666667 212 915.166666667 212 827 c 2,27,-1
 212 817 l 1,28,-1
 199 422 l 1,29,30
 199 297.1875 199 297.1875 212.5 249.09375 c 128,-1,31
 226 201 226 201 240.5 171.5 c 128,-1,32
 255 142 255 142 275 123 c 0,33,34
 321.315789474 79 321.315789474 79 393 79 c 0,35,36
 417 79 417 79 437 97 c 1,0,1
EndSplineSet
EndChar

StartChar: d
Encoding: 100 100 71
Width: 645
Flags: HW
LayerCount: 2
Fore
SplineSet
216 1045 m 1,0,-1
 239 141 l 1,1,-1
 239 92 l 1,2,-1
 276 92 l 1,3,4
 382.771230114 222.06677123 382.771230114 222.06677123 414 330.5 c 0,5,6
 443 431.194444444 443 431.194444444 443 612 c 0,7,8
 443 1230 443 1230 231 1258 c 1,9,10
 216 1177 216 1177 216 1045 c 1,0,-1
551 808 m 1,11,-1
 547 705 l 1,12,-1
 547 593 l 2,13,14
 547 390.285714286 547 390.285714286 529 319.142857143 c 128,-1,15
 511 248 511 248 492.5 202 c 128,-1,16
 474 156 474 156 448 120.5 c 0,17,18
 388.143614458 38.7730120482 388.143614458 38.7730120482 296 -12 c 1,19,-1
 156 -12 l 2,20,21
 104 -12 104 -12 104 256 c 1,22,-1
 110 901 l 1,23,24
 110 1080 110 1080 103 1237 c 1,25,26
 86 1257 86 1257 86 1284.5 c 128,-1,27
 86 1312 86 1312 109 1332.5 c 128,-1,28
 132 1353 132 1353 164.5 1353 c 128,-1,29
 197 1353 197 1353 220 1317 c 1,30,31
 235 1311 235 1311 264.5 1306 c 128,-1,32
 294 1301 294 1301 308 1294 c 0,33,34
 422 1241 422 1241 486.5 1106.5 c 128,-1,35
 551 972 551 972 551 808 c 1,11,-1
EndSplineSet
EndChar

StartChar: e
Encoding: 101 101 72
Width: 517
Flags: HW
LayerCount: 2
Fore
SplineSet
289 77 m 1,0,-1
 370 82 l 1,1,2
 448 82 448 82 448 32 c 0,3,4
 448 1 448 1 421 -13 c 128,-1,5
 394 -27 394 -27 360 -27 c 2,6,-1
 167 -27 l 2,7,8
 141 -27 141 -27 122.5 -9 c 128,-1,9
 104 9 104 9 102.5 37 c 128,-1,10
 101 65 101 65 106.5 107 c 128,-1,11
 112 149 112 149 112 174 c 2,12,-1
 102 436 l 1,13,-1
 116 1034 l 1,14,-1
 105 1207 l 1,15,16
 105 1352 105 1352 191 1352 c 0,17,18
 215 1352 215 1352 236 1337 c 1,19,20
 244 1336 244 1336 274.5 1333.5 c 128,-1,21
 305 1331 305 1331 328 1327 c 128,-1,22
 351 1323 351 1323 378.5 1315.5 c 0,23,24
 436 1299.81818182 436 1299.81818182 436 1261 c 0,25,26
 436 1218.6 436 1218.6 376 1197 c 1,27,28
 282 1229 282 1229 221 1236 c 1,29,30
 224 1192 224 1192 224 1148 c 1,31,-1
 215 854 l 2,32,33
 215 852 215 852 221 822 c 1,34,35
 294 825 l 1,36,37
 393 825 393 825 393 769 c 0,38,39
 393 739 393 739 375.5 716 c 128,-1,40
 358 693 358 693 326 693 c 128,-1,41
 294 693 294 693 270 711 c 1,42,-1
 218 711 l 1,43,44
 224 633 224 633 224 563 c 1,45,-1
 215 192 l 1,46,47
 215 77 215 77 289 77 c 1,0,-1
EndSplineSet
EndChar

StartChar: f
Encoding: 102 102 73
Width: 541
Flags: HW
LayerCount: 2
Fore
SplineSet
226 808 m 1,0,-1
 245 1219 l 1,1,-1
 245 1243 l 1,2,3
 335 1243 335 1243 376 1223 c 1,4,5
 480 1223 480 1223 480 1281 c 0,6,7
 480 1347.23943662 480 1347.23943662 277.5 1361.5 c 0,8,9
 242 1364 242 1364 211.5 1364 c 128,-1,10
 181 1364 181 1364 156.5 1348 c 128,-1,11
 132 1332 132 1332 132 1303 c 0,12,13
 132 1213 132 1213 121.5 1029 c 128,-1,14
 111 845 111 845 105.5 517.5 c 128,-1,15
 100 190 100 190 84 13 c 1,16,-1
 141 -30 l 1,17,18
 210 -30 210 -30 210 72 c 2,19,-1
 210 652 l 1,20,21
 248 640 248 640 283.5 640 c 128,-1,22
 319 640 319 640 341 656.5 c 128,-1,23
 363 673 363 673 363 700 c 0,24,25
 363 754 363 754 264 754 c 1,26,-1
 226 753 l 1,27,-1
 226 808 l 1,0,-1
EndSplineSet
EndChar

StartChar: g
Encoding: 103 103 74
Width: 654
Flags: HW
LayerCount: 2
Fore
SplineSet
406 519 m 2,0,-1
 370 518 l 2,1,2
 341 518 341 518 324 527.5 c 128,-1,3
 307 537 307 537 307 565.5 c 128,-1,4
 307 594 307 594 325.5 609 c 128,-1,5
 344 624 344 624 371 624 c 1,6,-1
 371 623 l 1,7,8
 571 623 571 623 571 560 c 1,9,-1
 549 411 l 1,10,-1
 559 194 l 1,11,12
 559 135 559 135 550 93 c 1,13,14
 431.090909091 -16 431.090909091 -16 339 -16 c 0,15,16
 290 -16 290 -16 249 10.5 c 128,-1,17
 208 37 208 37 169 101 c 128,-1,18
 130 165 130 165 101 344.5 c 128,-1,19
 72 524 72 524 72 594 c 128,-1,20
 72 664 72 664 75 710 c 128,-1,21
 78 756 78 756 84 814.5 c 128,-1,22
 90 873 90 873 91 890.5 c 128,-1,23
 92 908 92 908 94.5 940.5 c 128,-1,24
 97 973 97 973 99.5 1002.5 c 128,-1,25
 102 1032 102 1032 110.5 1085.5 c 128,-1,26
 119 1139 119 1139 129 1170 c 128,-1,27
 139 1201 139 1201 158 1240.5 c 128,-1,28
 177 1280 177 1280 202 1301.5 c 0,29,30
 263.046511628 1354 263.046511628 1354 343.523255814 1354 c 128,-1,31
 424 1354 424 1354 424 1302 c 0,32,33
 424 1278 424 1278 406.5 1262.5 c 128,-1,34
 389 1247 389 1247 366 1247 c 1,35,-1
 329 1252 l 1,36,37
 268.625 1252 268.625 1252 238 1112 c 0,38,39
 208.347931873 976.447688564 208.347931873 976.447688564 202.673965937 867.223844282 c 0,40,41
 194 700.25 194 700.25 194 644.625 c 128,-1,42
 194 589 194 589 194.5 558.5 c 128,-1,43
 195 528 195 528 196.5 482.5 c 128,-1,44
 198 437 198 437 201.5 402 c 128,-1,45
 205 367 205 367 211 324.5 c 128,-1,46
 217 282 217 282 225.5 250.5 c 128,-1,47
 234 219 234 219 246.5 187.5 c 128,-1,48
 259 156 259 156 275 136 c 0,49,50
 311 91 311 91 361 91 c 0,51,52
 450 91 450 91 448 436 c 1,53,-1
 448 511 l 1,54,55
 435 519 435 519 406 519 c 2,0,-1
EndSplineSet
EndChar

StartChar: h
Encoding: 104 104 75
Width: 627
Flags: HW
LayerCount: 2
Fore
SplineSet
219 1233 m 1,0,-1
 211 722 l 1,1,2
 247 712 247 712 319 712 c 2,3,-1
 397 712 l 1,4,-1
 397 755 l 2,5,6
 397 849 397 849 383 1037.5 c 128,-1,7
 369 1226 369 1226 369 1320 c 0,8,9
 369 1343 369 1343 386.5 1358.5 c 128,-1,10
 404 1374 404 1374 417.5 1374 c 128,-1,11
 431 1374 431 1374 441 1375.5 c 128,-1,12
 451 1377 451 1377 457.5 1376.5 c 128,-1,13
 464 1376 464 1376 471.5 1372.5 c 0,14,15
 487 1365.26666667 487 1365.26666667 487 1326 c 0,16,17
 487 1111 487 1111 506 682 c 128,-1,18
 525 253 525 253 525 38 c 0,19,20
 525 20 525 20 509.5 10 c 128,-1,21
 494 0 494 0 470 0 c 128,-1,22
 446 0 446 0 425 12.5 c 128,-1,23
 404 25 404 25 403 46 c 0,24,25
 392 250 392 250 392 548 c 2,26,-1
 392 556 l 1,27,-1
 391 615 l 1,28,-1
 390 634 l 1,29,-1
 390 636 l 1,30,31
 374 632 374 632 344 632 c 1,32,-1
 217 651 l 1,33,-1
 211 425 l 1,34,-1
 211 416 l 1,35,-1
 228 79 l 1,36,37
 228 49 228 49 213.5 27 c 128,-1,38
 199 5 199 5 171 5 c 0,39,40
 130 5 130 5 114.5 79.5 c 128,-1,41
 99 154 99 154 99 283 c 1,42,-1
 105 595 l 1,43,-1
 106 712 l 1,44,-1
 110 832 l 1,45,-1
 96 1294 l 2,46,47
 96 1318 96 1318 113 1336.5 c 128,-1,48
 130 1355 130 1355 154 1355 c 0,49,50
 219 1355 219 1355 219 1233 c 1,0,-1
EndSplineSet
EndChar

StartChar: i
Encoding: 105 105 76
Width: 551
Flags: HW
LayerCount: 2
Fore
SplineSet
357 23 m 1,0,-1
 280 22 l 1,1,-1
 191 18 l 1,2,3
 134 18 134 18 115 55 c 1,4,5
 115 85 115 85 122.5 101.5 c 128,-1,6
 130 118 130 118 154 118 c 2,7,-1
 212 118 l 1,8,-1
 216 145 l 1,9,-1
 202 580 l 1,10,-1
 213 1036 l 1,11,12
 213 1151 213 1151 203 1254 c 1,13,14
 160 1254 160 1254 123.5 1254 c 128,-1,15
 87 1254 87 1254 70 1265.5 c 128,-1,16
 53 1277 53 1277 53 1309 c 0,17,18
 53 1357 53 1357 164 1356 c 1,19,-1
 171 1356 l 2,20,21
 434 1356 434 1356 434 1286 c 0,22,23
 434 1275 434 1275 422 1248 c 1,24,-1
 317 1248 l 1,25,26
 325 1173 325 1173 325 1072 c 1,27,-1
 314 681 l 1,28,-1
 329 246 l 1,29,-1
 329 185 l 2,30,31
 329 167 329 167 322 130 c 1,32,-1
 409 130 l 2,33,34
 493 130 493 130 493 79 c 0,35,36
 493 56 493 56 478.5 40 c 128,-1,37
 464 24 464 24 446 24 c 2,38,-1
 357 23 l 1,0,-1
EndSplineSet
EndChar

StartChar: j
Encoding: 106 106 77
Width: 569
Flags: HW
LayerCount: 2
Fore
SplineSet
370 290 m 1,0,-1
 373 114 l 1,1,2
 373 -80.9310344828 373 -80.9310344828 302 -160.5 c 0,3,4
 237.417177914 -232.877300613 237.417177914 -232.877300613 103 -254 c 1,5,-1
 42 -193 l 1,6,7
 174 -110 174 -110 217.5 -35 c 128,-1,8
 261 40 261 40 261 187 c 1,9,-1
 243 1233 l 1,10,-1
 243 1242 l 1,11,12
 221 1242 221 1242 182 1249 c 128,-1,13
 143 1256 143 1256 131 1261 c 128,-1,14
 119 1266 119 1266 106 1273 c 0,15,16
 81 1286.46153846 81 1286.46153846 81 1309.23076923 c 128,-1,17
 81 1332 81 1332 104 1345.5 c 128,-1,18
 127 1359 127 1359 158.5 1359 c 128,-1,19
 190 1359 190 1359 270 1349 c 128,-1,20
 350 1339 350 1339 431.5 1312.5 c 128,-1,21
 513 1286 513 1286 513 1253 c 0,22,23
 513 1231 513 1231 496.5 1218 c 128,-1,24
 480 1205 480 1205 458 1205 c 128,-1,25
 436 1205 436 1205 398 1214.5 c 128,-1,26
 360 1224 360 1224 353 1225 c 1,27,-1
 353 1208 l 1,28,-1
 373 382 l 1,29,-1
 370 290 l 1,0,-1
EndSplineSet
EndChar

StartChar: k
Encoding: 107 107 78
Width: 696
Flags: HW
LayerCount: 2
Fore
SplineSet
250 1288 m 1,0,-1
 233 915 l 1,1,-1
 233 808 l 1,2,3
 239 819 239 819 308.5 970 c 0,4,5
 480.639072848 1344 480.639072848 1344 524 1344 c 0,6,7
 554 1344 554 1344 578.5 1330 c 128,-1,8
 603 1316 603 1316 603 1289 c 0,9,10
 603 1286.91891892 603 1286.91891892 499 1115.45945946 c 128,-1,11
 395 944 395 944 383 919 c 1,12,-1
 379 797 l 1,13,14
 379 709 379 709 449.5 468 c 128,-1,15
 520 227 520 227 567 149 c 0,16,17
 573 140 573 140 593.5 112 c 128,-1,18
 614 84 614 84 623.5 63 c 128,-1,19
 633 42 633 42 633 19 c 128,-1,20
 633 -4 633 -4 615.5 -19.5 c 128,-1,21
 598 -35 598 -35 575 -35 c 0,22,23
 527 -35 527 -35 475 66.5 c 128,-1,24
 423 168 423 168 382.5 315 c 0,25,26
 313.349344978 565.991266376 313.349344978 565.991266376 281 752 c 1,27,28
 247 717 247 717 228.5 658.5 c 128,-1,29
 210 600 210 600 210 578 c 2,30,-1
 210 17 l 2,31,32
 210 -31 210 -31 165 -31 c 0,33,34
 134 -31 134 -31 115.5 -13.5 c 128,-1,35
 97 4 97 4 97 34 c 2,36,-1
 97 656 l 2,37,38
 97 767 97 767 116.5 987.5 c 128,-1,39
 136 1208 136 1208 136 1318 c 1,40,41
 154 1357 154 1357 187.5 1357 c 0,42,43
 250 1357 250 1357 250 1288 c 1,0,-1
EndSplineSet
EndChar

StartChar: l
Encoding: 108 108 79
Width: 522
Flags: HW
LayerCount: 2
Fore
SplineSet
219 1148 m 1,0,-1
 225 656 l 1,1,2
 213 627 213 627 213 545 c 1,3,-1
 205 219 l 1,4,5
 205 78 205 78 274 78 c 1,6,-1
 359 81 l 1,7,8
 469 81 469 81 469 21 c 0,9,10
 469 -1 469 -1 450 -15.5 c 128,-1,11
 431 -30 431 -30 407 -33 c 1,12,13
 332 -9 332 -9 224 -9 c 1,14,15
 191 -28 191 -28 160.5 -28 c 128,-1,16
 130 -28 130 -28 113 -7 c 128,-1,17
 96 14 96 14 96 39 c 2,18,-1
 116 954 l 1,19,-1
 116 969 l 1,20,21
 110 1033 110 1033 110 1161 c 0,22,23
 110 1355 110 1355 181 1355 c 0,24,25
 202 1355 202 1355 217.5 1340 c 128,-1,26
 233 1325 233 1325 233 1304 c 1,27,-1
 219 1148 l 1,0,-1
EndSplineSet
EndChar

StartChar: m
Encoding: 109 109 80
Width: 878
Flags: HW
LayerCount: 2
Fore
SplineSet
206 89 m 1,0,-1
 209 28 l 1,1,2
 209 -5 209 -5 195.5 -22.5 c 128,-1,3
 182 -40 182 -40 152 -40 c 128,-1,4
 122 -40 122 -40 103 -25.5 c 128,-1,5
 84 -11 84 -11 85 16.5 c 128,-1,6
 86 44 86 44 108.5 529.5 c 128,-1,7
 131 1015 131 1015 131 1261 c 1,8,9
 134 1313 134 1313 147 1330.5 c 128,-1,10
 160 1348 160 1348 184 1350 c 128,-1,11
 208 1352 208 1352 216 1348 c 128,-1,12
 224 1344 224 1344 230.5 1334.5 c 128,-1,13
 237 1325 237 1325 241.5 1317 c 128,-1,14
 246 1309 246 1309 250 1292.5 c 128,-1,15
 254 1276 254 1276 256 1267.5 c 128,-1,16
 258 1259 258 1259 261 1240.5 c 128,-1,17
 264 1222 264 1222 267 1204.5 c 128,-1,18
 270 1187 270 1187 297 1062.5 c 128,-1,19
 324 938 324 938 356.5 741.5 c 128,-1,20
 389 545 389 545 432 243 c 1,21,22
 495 580 495 580 541 882 c 128,-1,23
 587 1184 587 1184 589.5 1203 c 128,-1,24
 592 1222 592 1222 593.5 1231 c 128,-1,25
 595 1240 595 1240 599 1258 c 128,-1,26
 603 1276 603 1276 606.5 1286 c 128,-1,27
 610 1296 610 1296 617 1309.5 c 128,-1,28
 624 1323 624 1323 631.5 1330 c 0,29,30
 650.785714286 1348 650.785714286 1348 676.892857143 1348 c 128,-1,31
 703 1348 703 1348 727 1333 c 128,-1,32
 751 1318 751 1318 751 1292 c 0,33,34
 751 821.857142857 751 821.857142857 759.5 640.928571429 c 128,-1,35
 768 460 768 460 768 423 c 2,36,-1
 766 93 l 1,37,38
 775 71 775 71 775 46.5 c 128,-1,39
 775 22 775 22 759 -6 c 128,-1,40
 743 -34 743 -34 717 -34 c 0,41,42
 653 -34 653 -34 653 94 c 1,43,-1
 656 283 l 1,44,45
 656 482 656 482 652 639 c 1,46,47
 655 732 655 732 655 1125 c 1,48,49
 624 933 624 933 569 610 c 128,-1,50
 514 287 514 287 510.5 267.5 c 128,-1,51
 507 248 507 248 505 230 c 128,-1,52
 503 212 503 212 501 199 c 128,-1,53
 499 186 499 186 493.5 169 c 128,-1,54
 488 152 488 152 481 141 c 0,55,56
 463.818181818 114 463.818181818 114 433 114 c 0,57,58
 373 114 373 114 361 202 c 0,59,60
 345 327 345 327 295.5 641.5 c 128,-1,61
 246 956 246 956 222 1065 c 1,62,63
 206 364 206 364 206 89 c 1,0,-1
EndSplineSet
EndChar

StartChar: n
Encoding: 110 110 81
Width: 769
Flags: HW
LayerCount: 2
Fore
SplineSet
211 808 m 1,0,-1
 223 278 l 1,1,-1
 223 46 l 2,2,3
 223 19 223 19 209 0.5 c 128,-1,4
 195 -18 195 -18 170 -18 c 0,5,6
 103 -18 103 -18 103 107 c 2,7,-1
 99 829 l 1,8,-1
 111 1211 l 1,9,10
 111 1349 111 1349 186 1349 c 0,11,12
 231.285714286 1349 231.285714286 1349 251 1280 c 1,13,14
 279 1148 279 1148 348.5 900.5 c 128,-1,15
 418 653 418 653 444 524 c 1,16,17
 463 461 463 461 493 337.5 c 128,-1,18
 523 214 523 214 540 152 c 1,19,20
 548 596 548 596 548 1228 c 1,21,-1
 545 1283 l 1,22,23
 545 1311 545 1311 555.5 1327.5 c 128,-1,24
 566 1344 566 1344 591 1344 c 128,-1,25
 616 1344 616 1344 632 1332 c 0,26,27
 664 1308 664 1308 664 1264 c 0,28,29
 664 983 664 983 648 542 c 128,-1,30
 632 101 632 101 600 -9 c 1,31,32
 596 -10 596 -10 583 -14.5 c 128,-1,33
 570 -19 570 -19 563.5 -20.5 c 0,34,35
 507.200445434 -33.4922048998 507.200445434 -33.4922048998 492.100222717 -15.2461024499 c 128,-1,36
 477 3 477 3 470.5 33 c 128,-1,37
 464 63 464 63 455.5 91.5 c 128,-1,38
 447 120 447 120 391.5 364 c 0,39,40
 244.729709879 1009.26037459 244.729709879 1009.26037459 211 1114 c 1,41,-1
 211 808 l 1,0,-1
EndSplineSet
EndChar

StartChar: o
Encoding: 111 111 82
Width: 669
Flags: HW
LayerCount: 2
Fore
SplineSet
190 1033 m 1,0,-1
 193 913 l 1,1,-1
 192 717 l 2,2,3
 192 692 192 692 193 658 c 128,-1,4
 194 624 194 624 195.5 568.5 c 128,-1,5
 197 513 197 513 201.5 458.5 c 128,-1,6
 206 404 206 404 212 343.5 c 128,-1,7
 218 283 218 283 228 231.5 c 128,-1,8
 238 180 238 180 250.5 137.5 c 0,9,10
 277.117647059 47 277.117647059 47 321 47 c 0,11,12
 380.366336634 47 380.366336634 47 411 157.5 c 0,13,14
 457 323.428571429 457 323.428571429 457 564 c 1,15,-1
 460 775 l 1,16,17
 460 996.695652174 460 996.695652174 440.5 1073.84782609 c 128,-1,18
 421 1151 421 1151 404.5 1189.5 c 0,19,20
 370.428571429 1269 370.428571429 1269 301 1269 c 0,21,22
 299 1269 299 1269 297 1269 c 0,23,24
 190 1269 190 1269 190 1033 c 1,0,-1
570 551 m 2,25,26
 570 -38 570 -38 329 -38 c 0,27,28
 107.095238095 -38 107.095238095 -38 80.5 520.5 c 0,29,30
 78 573 78 573 78 626 c 2,31,-1
 77 751 l 1,32,-1
 77 791 l 2,33,34
 77 1223.58064516 77 1223.58064516 204 1326 c 0,35,36
 235 1351 235 1351 273 1353 c 1,37,38
 302.307692308 1343.23076923 302.307692308 1343.23076923 344.153846154 1334.61538462 c 128,-1,39
 386 1326 386 1326 405.5 1317 c 0,40,41
 442.69205298 1299.83443709 442.69205298 1299.83443709 485.84602649 1228.41721854 c 128,-1,42
 529 1157 529 1157 549.5 1037.5 c 128,-1,43
 570 918 570 918 570 798 c 2,44,-1
 570 551 l 2,25,26
EndSplineSet
EndChar

StartChar: p
Encoding: 112 112 83
Width: 540
Flags: HW
LayerCount: 2
Fore
SplineSet
226 1115 m 1,0,-1
 215 716 l 1,1,-1
 215 713 l 1,2,3
 339 730 339 730 339 1059 c 0,4,5
 339 1178.85106383 339 1178.85106383 285.5 1213 c 0,6,7
 262 1228 262 1228 226 1228 c 1,8,-1
 226 1115 l 1,0,-1
111 885 m 1,9,-1
 114 1080 l 1,10,11
 114 1201 114 1201 97 1270 c 1,12,13
 102 1296 102 1296 116.5 1319 c 128,-1,14
 131 1342 131 1342 153 1342 c 2,15,-1
 243 1342 l 2,16,17
 361.373626374 1342 361.373626374 1342 409 1243.5 c 0,18,19
 451 1156.63636364 451 1156.63636364 451 1044 c 0,20,21
 451 901.333333333 451 901.333333333 444 868.666666667 c 128,-1,22
 437 836 437 836 429 807 c 128,-1,23
 421 778 421 778 409.5 760 c 128,-1,24
 398 742 398 742 380 720.5 c 128,-1,25
 362 699 362 699 339 684 c 0,26,27
 287.993197279 650.734693878 287.993197279 650.734693878 216 628 c 1,28,-1
 216 409 l 1,29,-1
 232 21 l 1,30,31
 232 -5 232 -5 214 -22 c 128,-1,32
 196 -39 196 -39 170 -39 c 2,33,-1
 120 -39 l 1,34,35
 108 17 108 17 108 128 c 1,36,-1
 103 652 l 1,37,-1
 111 885 l 1,9,-1
EndSplineSet
EndChar

StartChar: q
Encoding: 113 113 84
Width: 654
Flags: HW
LayerCount: 2
Fore
SplineSet
283 1288 m 0,0,1
 253 1288 253 1288 230 1210.5 c 128,-1,2
 207 1133 207 1133 196.5 1023.5 c 0,3,4
 177 820.142857143 177 820.142857143 177 742.071428571 c 128,-1,5
 177 664 177 664 177.5 637 c 128,-1,6
 178 610 178 610 179 546 c 128,-1,7
 180 482 180 482 183.5 431 c 128,-1,8
 187 380 187 380 192.5 313 c 128,-1,9
 198 246 198 246 208 196 c 128,-1,10
 218 146 218 146 230.5 100.5 c 0,11,12
 256.461538462 6 256.461538462 6 304 6 c 1,13,14
 331 18 331 18 361 18 c 0,15,16
 381 18 381 18 405 122.5 c 0,17,18
 462 370.6875 462 370.6875 462 726 c 0,19,20
 462 1123.69444444 462 1123.69444444 368 1242.5 c 0,21,22
 332 1288 332 1288 283 1288 c 0,0,1
504 -434 m 1,23,-1
 504 -432 l 1,24,25
 393 -432 393 -432 353 -385 c 1,26,27
 353 -292.2 353 -292.2 339 -216.6 c 0,28,29
 315 -87 315 -87 310 -62 c 1,30,31
 192.91873805 -33.7390057361 192.91873805 -33.7390057361 150.5 44.5 c 0,32,33
 78 178.222222222 78 178.222222222 78 754 c 0,34,35
 78 1233.59701493 78 1233.59701493 212.5 1342 c 0,36,37
 246 1369 246 1369 288 1369 c 1,38,39
 303 1362 303 1362 336 1354.5 c 128,-1,40
 369 1347 369 1347 395.5 1334.5 c 128,-1,41
 422 1322 422 1322 452 1288 c 128,-1,42
 482 1254 482 1254 500.5 1207.5 c 128,-1,43
 519 1161 519 1161 530.5 1114.5 c 128,-1,44
 542 1068 542 1068 547.5 1009.5 c 0,45,46
 556 919.090909091 556 919.090909091 556 812 c 0,47,48
 556 31 556 31 406 -49 c 1,49,50
 406 -125.25 406 -125.25 427 -220.625 c 128,-1,51
 448 -316 448 -316 450 -326 c 1,52,53
 554 -326 554 -326 554 -384 c 0,54,55
 554 -405 554 -405 539.5 -419.5 c 128,-1,56
 525 -434 525 -434 504 -434 c 1,23,-1
EndSplineSet
EndChar

StartChar: r
Encoding: 114 114 85
Width: 557
Flags: HW
LayerCount: 2
Fore
SplineSet
201 606 m 128,-1,1
 187 549 187 549 187 500.5 c 128,-1,2
 187 452 187 452 199.5 293.5 c 128,-1,3
 212 135 212 135 212 89 c 128,-1,4
 212 43 212 43 195.5 19 c 128,-1,5
 179 -5 179 -5 158 -5 c 0,6,7
 128 -5 128 -5 120 36 c 1,8,9
 122 112 122 112 122 222.5 c 128,-1,10
 122 333 122 333 104.5 708 c 128,-1,11
 87 1083 87 1083 87 1268 c 0,12,13
 87 1365 87 1365 155 1365 c 0,14,15
 262 1365 262 1365 335 1309 c 128,-1,16
 408 1253 408 1253 408 1149 c 0,17,18
 408 1009 408 1009 386 931 c 128,-1,19
 364 853 364 853 303 736 c 1,20,21
 314 687 314 687 341.5 540.5 c 0,22,23
 401.367021277 221.57205029 401.367021277 221.57205029 475 81 c 0,24,25
 496 40.9090909091 496 40.9090909091 496 18.4545454545 c 128,-1,26
 496 -4 496 -4 483.5 -19.5 c 128,-1,27
 471 -35 471 -35 450 -35 c 0,28,29
 382.585492228 -35 382.585492228 -35 327 188.5 c 0,30,31
 303 285 303 285 283.5 384 c 0,32,33
 230.027027027 655.478170478 230.027027027 655.478170478 215 689 c 1,34,0
 215 663 215 663 201 606 c 128,-1,1
198 1289 m 1,35,-1
 191 1260 l 1,36,37
 191 1176 191 1176 195 1017.5 c 128,-1,38
 199 859 199 859 199 787 c 1,39,40
 247 812 247 812 276.5 917.5 c 128,-1,41
 306 1023 306 1023 306 1079 c 128,-1,42
 306 1135 306 1135 303 1161.5 c 128,-1,43
 300 1188 300 1188 290.5 1220.5 c 0,44,45
 271.07022835 1286.97027143 271.07022835 1286.97027143 198 1289 c 1,35,-1
EndSplineSet
EndChar

StartChar: s
Encoding: 115 115 86
Width: 500
Flags: HW
LayerCount: 2
Fore
SplineSet
75 86 m 1,0,-1
 183 71 l 1,1,2
 222 71 222 71 251 105 c 128,-1,3
 280 139 280 139 294 190 c 0,4,5
 321 288.357142857 321 288.357142857 321 363.678571429 c 128,-1,6
 321 439 321 439 296 513 c 128,-1,7
 271 587 271 587 235 650.5 c 128,-1,8
 199 714 199 714 162.5 779.5 c 0,9,10
 76 934.726027397 76 934.726027397 76 1086 c 0,11,12
 76 1177.85365854 76 1177.85365854 107 1248.92682927 c 0,13,14
 164.606382979 1381 164.606382979 1381 261 1381 c 0,15,16
 297 1381 297 1381 329.5 1358 c 128,-1,17
 362 1335 362 1335 362 1308 c 0,18,19
 362 1261 362 1261 312 1261 c 0,20,21
 290 1261 290 1261 269 1273 c 1,22,23
 203.949932341 1270.28958051 203.949932341 1270.28958051 181 1128 c 0,24,25
 176 1097 176 1097 176 1055.5 c 128,-1,26
 176 1014 176 1014 194 953 c 128,-1,27
 212 892 212 892 239.5 844.5 c 128,-1,28
 267 797 267 797 298.5 739.5 c 128,-1,29
 330 682 330 682 357.5 628 c 0,30,31
 421 503.309090909 421 503.309090909 421 342 c 0,32,33
 421 213.830188679 421 213.830188679 369.5 105 c 0,34,35
 343 49 343 49 293.5 13.5 c 128,-1,36
 244 -22 244 -22 179 -23 c 1,37,-1
 179 -28 l 1,38,39
 141 -23 141 -23 110 -2.5 c 128,-1,40
 79 18 79 18 75 51 c 1,41,-1
 75 86 l 1,0,-1
EndSplineSet
EndChar

StartChar: t
Encoding: 116 116 87
Width: 552
Flags: HW
LayerCount: 2
Fore
SplineSet
279 190 m 1,0,-1
 283 260 l 1,1,2
 275 286 275 286 250 722.5 c 128,-1,3
 225 1159 225 1159 223 1255 c 1,4,5
 105 1258 105 1258 77 1276.5 c 128,-1,6
 49 1295 49 1295 49 1315 c 128,-1,7
 49 1335 49 1335 71 1347.5 c 128,-1,8
 93 1360 93 1360 114 1360 c 1,9,-1
 392 1341 l 1,10,-1
 425 1342 l 1,11,12
 489 1342 489 1342 489 1293 c 0,13,14
 489 1268 489 1268 468 1252.5 c 128,-1,15
 447 1237 447 1237 421 1237 c 1,16,-1
 327 1251 l 1,17,-1
 323 1230 l 1,18,19
 323 1036 323 1036 357 649 c 128,-1,20
 391 262 391 262 391 67 c 0,21,22
 391 42 391 42 372.5 24 c 128,-1,23
 354 6 354 6 329 6 c 2,24,-1
 283 6 l 1,25,-1
 279 190 l 1,0,-1
EndSplineSet
EndChar

StartChar: u
Encoding: 117 117 88
Width: 698
Flags: HW
LayerCount: 2
Fore
SplineSet
581 913 m 1,0,-1
 583 878 l 1,1,2
 568.231543624 805.798657718 568.231543624 805.798657718 563.615771812 630.399328859 c 128,-1,3
 559 455 559 455 546 347.5 c 128,-1,4
 533 240 533 240 511 158.5 c 128,-1,5
 489 77 489 77 440.5 23 c 128,-1,6
 392 -31 392 -31 332.5 -31 c 128,-1,7
 273 -31 273 -31 235 -9.5 c 128,-1,8
 197 12 197 12 173 52.5 c 128,-1,9
 149 93 149 93 133 139.5 c 128,-1,10
 117 186 117 186 109 247 c 0,11,12
 95 353.75 95 353.75 95 473 c 1,13,-1
 106 1013 l 1,14,15
 106 1190 106 1190 81 1306 c 1,16,-1
 81 1355 l 1,17,18
 130 1355 130 1355 158.5 1317 c 128,-1,19
 187 1279 187 1279 187 1232 c 2,20,-1
 187 241 l 2,21,22
 187 162 187 162 226.5 96.5 c 128,-1,23
 266 31 266 31 343 31 c 0,24,25
 430 31 430 31 459 537 c 1,26,-1
 459 546 l 1,27,-1
 460 559 l 1,28,29
 486 1021 486 1021 486 1307 c 1,30,-1
 485 1341 l 2,31,32
 485 1365 485 1365 496 1377 c 128,-1,33
 507 1389 507 1389 538 1389 c 128,-1,34
 569 1389 569 1389 584 1372 c 128,-1,35
 599 1355 599 1355 601.5 1337.5 c 128,-1,36
 604 1320 604 1320 604 1290 c 1,37,-1
 590 1084 l 1,38,-1
 581 913 l 1,0,-1
EndSplineSet
EndChar

StartChar: v
Encoding: 118 118 89
Width: 732
Flags: HW
LayerCount: 2
Fore
SplineSet
607 1378 m 2,0,1
 654 1378 654 1378 654 1351 c 0,2,3
 654 1236.01754386 654 1236.01754386 605 1061.50877193 c 128,-1,4
 556 887 556 887 545.5 822.5 c 128,-1,5
 535 758 535 758 523 633 c 128,-1,6
 511 508 511 508 503.5 459.5 c 128,-1,7
 496 411 496 411 476.5 338.5 c 128,-1,8
 457 266 457 266 452.5 240.5 c 128,-1,9
 448 215 448 215 445.5 176.5 c 128,-1,10
 443 138 443 138 439 108 c 128,-1,11
 435 78 435 78 425.5 45.5 c 0,12,13
 405.184615385 -24 405.184615385 -24 342 -24 c 1,14,-1
 296 7 l 1,15,16
 296 256 296 256 248.5 515 c 128,-1,17
 201 774 201 774 155.5 950 c 128,-1,18
 110 1126 110 1126 94.5 1173 c 0,19,20
 58 1283.67741935 58 1283.67741935 58 1310.83870968 c 128,-1,21
 58 1338 58 1338 73.5 1352 c 128,-1,22
 89 1366 89 1366 109.5 1366 c 128,-1,23
 130 1366 130 1366 147 1349 c 128,-1,24
 164 1332 164 1332 174 1301 c 128,-1,25
 184 1270 184 1270 190 1243.5 c 128,-1,26
 196 1217 196 1217 201.5 1182.5 c 128,-1,27
 207 1148 207 1148 209 1139 c 0,28,29
 313 665 313 665 373 247 c 1,30,31
 389 328 389 328 410.5 513 c 128,-1,32
 432 698 432 698 490.5 1003.5 c 128,-1,33
 549 1309 549 1309 561 1378 c 1,34,-1
 607 1378 l 2,0,1
EndSplineSet
EndChar

StartChar: w
Encoding: 119 119 90
Width: 841
Flags: HW
LayerCount: 2
Fore
SplineSet
752 1329 m 1,0,1
 752 1377 752 1377 694.5 1377 c 128,-1,2
 637 1377 637 1377 637 1327 c 0,3,4
 637 1310 637 1310 644 1292 c 1,5,6
 644 1240 644 1240 628.5 1138 c 128,-1,7
 613 1036 613 1036 613 984 c 0,8,9
 613 593 613 593 579 307 c 1,10,11
 567 400 567 400 553 572 c 0,12,13
 522.317585302 948.955380577 522.317585302 948.955380577 471 1143 c 1,14,-1
 471 1160 l 2,15,16
 471 1184 471 1184 455 1197 c 128,-1,17
 439 1210 439 1210 416 1210 c 2,18,-1
 361 1210 l 1,19,20
 359 1172 359 1172 347 1047 c 128,-1,21
 335 922 335 922 335 866.5 c 128,-1,22
 335 811 335 811 332 759 c 128,-1,23
 329 707 329 707 326 668.5 c 128,-1,24
 323 630 323 630 315 567 c 128,-1,25
 307 504 307 504 303 476.5 c 128,-1,26
 299 449 299 449 288 376 c 128,-1,27
 277 303 277 303 274 283 c 1,28,29
 269 423 269 423 226 727.5 c 128,-1,30
 183 1032 183 1032 183 1180.5 c 128,-1,31
 183 1329 183 1329 117 1329 c 0,32,33
 75 1329 75 1329 58 1293 c 1,34,35
 95.6894409938 1208.19875776 95.6894409938 1208.19875776 101.344720497 1119.59937888 c 128,-1,36
 107 1031 107 1031 110 957 c 128,-1,37
 113 883 113 883 116.5 835.5 c 128,-1,38
 120 788 120 788 137.5 674.5 c 128,-1,39
 155 561 155 561 158.5 533 c 128,-1,40
 162 505 162 505 164.5 431.5 c 128,-1,41
 167 358 167 358 172.5 284 c 128,-1,42
 178 210 178 210 188 132.5 c 0,43,44
 210.64516129 -43 210.64516129 -43 272 -43 c 0,45,46
 316.298850575 -43 316.298850575 -43 336.5 49.5 c 0,47,48
 354.781648258 133.210705183 354.781648258 133.210705183 359.390824129 195.105352591 c 128,-1,49
 364 257 364 257 368 287.5 c 128,-1,50
 372 318 372 318 390.5 437.5 c 0,51,52
 429 686.189189189 429 686.189189189 429 780.094594595 c 128,-1,53
 429 874 429 874 435 942 c 1,54,55
 450 834 450 834 465 630 c 128,-1,56
 480 426 480 426 487 363 c 128,-1,57
 494 300 494 300 504.5 239 c 0,58,59
 529 96.6666666667 529 96.6666666667 529 49.8333333333 c 128,-1,60
 529 3 529 3 533 -16.5 c 0,61,62
 543.769230769 -69 543.769230769 -69 581 -69 c 0,63,64
 656 -69 656 -69 656 139 c 0,65,66
 656 179.714285714 656 179.714285714 666 226.857142857 c 0,67,68
 719 476.714285714 719 476.714285714 719 896 c 2,69,-1
 719 1046 l 1,70,71
 721.361445783 1094.40963855 721.361445783 1094.40963855 736.180722892 1193.20481928 c 128,-1,72
 751 1292 751 1292 752 1329 c 1,0,1
EndSplineSet
EndChar

StartChar: x
Encoding: 120 120 91
Width: 531
Flags: HW
LayerCount: 2
Fore
SplineSet
158 951.5 m 128,-1,1
 106 1185 106 1185 82 1219 c 1,2,-1
 82 1241 l 1,3,4
 65 1258 65 1258 65 1285 c 0,5,6
 65 1334 65 1334 126 1334 c 0,7,8
 150 1334 150 1334 164.5 1317.5 c 128,-1,9
 179 1301 179 1301 182.5 1282.5 c 128,-1,10
 186 1264 186 1264 189 1234 c 128,-1,11
 192 1204 192 1204 197.5 1177 c 128,-1,12
 203 1150 203 1150 227 1049 c 128,-1,13
 251 948 251 948 262 894 c 1,14,15
 266 918 266 918 281.5 1000 c 0,16,17
 312 1161.35483871 312 1161.35483871 312 1220.17741935 c 0,18,19
 312 1346.2 312 1346.2 374 1340 c 0,20,21
 401.697841727 1338.02158273 401.697841727 1338.02158273 404.5 1310 c 0,22,23
 406.405063291 1290.94936709 406.405063291 1290.94936709 404.202531646 1254.97468354 c 128,-1,24
 402 1219 402 1219 402 1202 c 2,25,-1
 402 1109 l 1,26,27
 376 1039 376 1039 343 876.5 c 128,-1,28
 310 714 310 714 310 643.5 c 128,-1,29
 310 573 310 573 346.5 450.5 c 128,-1,30
 383 328 383 328 419.5 215.5 c 128,-1,31
 456 103 456 103 456 67.5 c 128,-1,32
 456 32 456 32 439.5 17.5 c 128,-1,33
 423 3 423 3 400.5 3 c 128,-1,34
 378 3 378 3 354 17 c 1,35,36
 340 80 340 80 307 219.5 c 128,-1,37
 274 359 274 359 259 433 c 1,38,39
 254 405 254 405 241 281 c 128,-1,40
 228 157 228 157 209 93 c 1,41,42
 210 86 210 86 210 69 c 0,43,44
 210 -7 210 -7 157 -7 c 0,45,46
 134 -7 134 -7 114.5 5.5 c 128,-1,47
 95 18 95 18 95 40 c 0,48,49
 95 170.813953488 95 170.813953488 152.5 350 c 128,-1,50
 210 529.186046512 210 529.186046512 210 623.593023256 c 128,-1,0
 210 718 210 718 158 951.5 c 128,-1,1
EndSplineSet
EndChar

StartChar: y
Encoding: 121 121 92
Width: 580
Flags: HW
LayerCount: 2
Fore
SplineSet
379 109 m 2,0,1
 379 8.60714285714 379 8.60714285714 352 -15.5 c 0,2,3
 338 -28 338 -28 308.5 -28 c 128,-1,4
 279 -28 279 -28 259 17 c 1,5,6
 282 62 282 62 282 364 c 0,7,8
 282 421 282 421 274 524.5 c 128,-1,9
 266 628 266 628 265 664 c 1,10,11
 225 733 225 733 141.5 981.5 c 128,-1,12
 58 1230 58 1230 58 1288 c 2,13,-1
 58 1299 l 1,14,-1
 104 1333 l 1,15,16
 166.750026181 1331.20714211 166.750026181 1331.20714211 254 1015.5 c 0,17,18
 292 878 292 878 292 877 c 1,19,20
 300 899 300 899 324 1029.5 c 0,21,22
 385.149425287 1362 385.149425287 1362 452 1362 c 0,23,24
 471 1362 471 1362 486.5 1350 c 128,-1,25
 502 1338 502 1338 502 1319 c 0,26,27
 502 1193.29787234 502 1193.29787234 440.5 1024.5 c 128,-1,28
 379 855.70212766 379 855.70212766 379 726 c 2,29,-1
 379 109 l 2,0,1
EndSplineSet
EndChar

StartChar: z
Encoding: 122 122 93
Width: 550
Flags: HW
LayerCount: 2
Fore
SplineSet
216 107 m 1,0,-1
 302 111 l 1,1,-1
 302 112 l 1,2,3
 385 112 385 112 385 62 c 0,4,5
 385 37 385 37 363 24.5 c 128,-1,6
 341 12 341 12 314 12 c 1,7,-1
 193 18 l 2,8,9
 180 18 180 18 157 7 c 128,-1,10
 134 -4 134 -4 116 -4 c 128,-1,11
 98 -4 98 -4 81.5 11 c 128,-1,12
 65 26 65 26 65 52 c 128,-1,13
 65 78 65 78 76.5 127.5 c 128,-1,14
 88 177 88 177 111 252.5 c 128,-1,15
 134 328 134 328 143 359.5 c 128,-1,16
 152 391 152 391 174.5 498 c 128,-1,17
 197 605 197 605 212 662.5 c 128,-1,18
 227 720 227 720 268.5 840 c 0,19,20
 361.774919614 1109.71061093 361.774919614 1109.71061093 368 1256 c 1,21,-1
 201 1244 l 1,22,23
 179 1244 179 1244 163.5 1261.5 c 128,-1,24
 148 1279 148 1279 148 1301 c 0,25,26
 148 1359 148 1359 356 1359 c 2,27,-1
 363 1359 l 2,28,29
 442.692307692 1359 442.692307692 1359 458.346153846 1340.5 c 128,-1,30
 474 1322 474 1322 474 1302 c 0,31,32
 474 1230 474 1230 429.5 1106.5 c 128,-1,33
 385 983 385 983 372 903 c 128,-1,34
 359 823 359 823 311 670 c 128,-1,35
 263 517 263 517 224.5 374 c 128,-1,36
 186 231 186 231 181 107 c 1,37,-1
 216 107 l 1,0,-1
EndSplineSet
EndChar

StartChar: braceleft
Encoding: 123 123 94
Width: 600
Flags: HW
LayerCount: 2
Fore
SplineSet
384 39 m 1,0,-1
 505 62 l 1,1,2
 513 62 513 62 517.5 44.5 c 128,-1,3
 522 27 522 27 522 9.5 c 128,-1,4
 522 -8 522 -8 498 -23.5 c 0,5,6
 460.064516129 -48 460.064516129 -48 399 -48 c 0,7,8
 283 -48 283 -48 240 14.5 c 128,-1,9
 197 77 197 77 197 198 c 2,10,-1
 197 621 l 2,11,12
 197 696.870967742 197 696.870967742 160.5 711 c 0,13,14
 131.363636364 722.278592375 131.363636364 722.278592375 104.681818182 723.139296188 c 128,-1,15
 78 724 78 724 67.5 734 c 128,-1,16
 57 744 57 744 57 768.5 c 128,-1,17
 57 793 57 793 71.5 804 c 128,-1,18
 86 815 86 815 106 816 c 128,-1,19
 126 817 126 817 146.5 821.5 c 0,20,21
 196 832.365853659 196 832.365853659 196 916 c 1,22,-1
 186 1130 l 1,23,24
 186 1204 186 1204 199 1226 c 1,25,26
 194 1256 194 1256 194 1280 c 0,27,28
 194 1374 194 1374 247 1434.5 c 128,-1,29
 300 1495 300 1495 399 1495 c 0,30,31
 464 1495 464 1495 503 1475.5 c 128,-1,32
 542 1456 542 1456 542 1434.5 c 128,-1,33
 542 1413 542 1413 524.5 1401 c 128,-1,34
 507 1389 507 1389 485 1389 c 1,35,-1
 384 1408 l 1,36,37
 286 1408 286 1408 286 1157 c 1,38,-1
 294 947 l 1,39,40
 294 815 294 815 258 768 c 1,41,42
 295 722 295 722 295 622 c 2,43,-1
 295 192 l 2,44,45
 295 105.722222222 295 105.722222222 309.5 82.3611111111 c 0,46,47
 336.413793103 39 336.413793103 39 384 39 c 1,0,-1
EndSplineSet
EndChar

StartChar: bar
Encoding: 124 124 95
Width: 341
Flags: HW
LayerCount: 2
Fore
SplineSet
223 1533 m 2,0,-1
 230 379 l 1,1,-1
 230 -29 l 2,2,3
 230 -50 230 -50 213 -65 c 128,-1,4
 196 -80 196 -80 175 -80 c 0,5,6
 124 -80 124 -80 124 114 c 1,7,-1
 110 1510 l 2,8,9
 110 1584 110 1584 181 1584 c 0,10,11
 199 1584 199 1584 211 1568 c 128,-1,12
 223 1552 223 1552 223 1533 c 2,0,-1
EndSplineSet
EndChar

StartChar: braceright
Encoding: 125 125 96
Width: 595
Flags: HW
LayerCount: 2
Fore
SplineSet
218 1408 m 1,0,-1
 97 1385 l 1,1,2
 89 1385 89 1385 84.5 1402.5 c 128,-1,3
 80 1420 80 1420 80 1437.5 c 128,-1,4
 80 1455 80 1455 104 1470.5 c 0,5,6
 141.935483871 1495 141.935483871 1495 203 1495 c 0,7,8
 317 1495 317 1495 361 1432 c 128,-1,9
 405 1369 405 1369 405 1249 c 2,10,-1
 405 876 l 2,11,12
 405 790.394736842 405 790.394736842 451 779.5 c 0,13,14
 470 775 470 775 489 774 c 0,15,16
 535 771.578947368 535 771.578947368 535 731 c 0,17,18
 535 683.459459459 535 683.459459459 489.5 681 c 0,19,20
 471 680 471 680 452 676 c 0,21,22
 406 666.315789474 406 666.315789474 406 581 c 1,23,-1
 414 330 l 1,24,25
 414 239 414 239 403 221 c 1,26,27
 407 196 407 196 407 166 c 0,28,29
 407 72 407 72 354.5 12 c 128,-1,30
 302 -48 302 -48 203 -48 c 0,31,32
 138 -48 138 -48 99 -28.5 c 128,-1,33
 60 -9 60 -9 60 12.5 c 128,-1,34
 60 34 60 34 77.5 46 c 128,-1,35
 95 58 95 58 117 58 c 1,36,-1
 218 39 l 1,37,38
 316 39 316 39 316 289 c 1,39,-1
 306 534 l 1,40,41
 306 681 306 681 344 729 c 1,42,43
 307 776 307 776 307 875 c 1,44,-1
 317 1127 l 1,45,46
 317 1408 317 1408 218 1408 c 1,0,-1
EndSplineSet
EndChar

StartChar: exclamdown
Encoding: 161 161 97
Width: 346
Flags: HW
LayerCount: 2
Fore
SplineSet
131 699 m 1,0,-1
 123 1038 l 1,1,2
 123 1148 123 1148 133 1222 c 1,3,4
 142 1250 142 1250 161 1250 c 0,5,6
 188 1250 188 1250 202.5 1189 c 128,-1,7
 217 1128 217 1128 217 1011 c 128,-1,8
 217 894 217 894 237.5 535.5 c 128,-1,9
 258 177 258 177 258 -2 c 0,10,11
 258 -23 258 -23 243.5 -37.5 c 128,-1,12
 229 -52 229 -52 202 -52 c 128,-1,13
 175 -52 175 -52 148 -28.5 c 128,-1,14
 121 -5 121 -5 121 27 c 2,15,-1
 131 699 l 1,0,-1
220.5 1424 m 128,-1,17
 198 1395 198 1395 162 1395 c 128,-1,18
 126 1395 126 1395 100 1421.5 c 128,-1,19
 74 1448 74 1448 74 1481 c 2,20,-1
 74 1487 l 1,21,22
 78 1572 78 1572 152 1572 c 0,23,24
 192 1572 192 1572 217.5 1552.5 c 128,-1,25
 243 1533 243 1533 243 1493 c 128,-1,16
 243 1453 243 1453 220.5 1424 c 128,-1,17
EndSplineSet
EndChar

StartChar: cent
Encoding: 162 162 98
Width: 666
Flags: HW
LayerCount: 2
Fore
SplineSet
250 1254 m 1,0,-1
 238 1368 l 1,1,2
 238 1456 238 1456 292 1456 c 1,3,4
 317 1440 317 1440 321.5 1426.5 c 128,-1,5
 326 1413 326 1413 326 1372.5 c 128,-1,6
 326 1332 326 1332 336 1254 c 1,7,8
 345 1251 345 1251 369.5 1244.5 c 128,-1,9
 394 1238 394 1238 409 1233.5 c 128,-1,10
 424 1229 424 1229 446.5 1219.5 c 128,-1,11
 469 1210 469 1210 483 1200 c 0,12,13
 516.178861789 1176.30081301 516.178861789 1176.30081301 520 1140 c 1,14,-1
 520 1135 l 2,15,16
 520 1118 520 1118 506.5 1101 c 128,-1,17
 493 1084 493 1084 473.5 1084 c 128,-1,18
 454 1084 454 1084 435.5 1100.5 c 128,-1,19
 417 1117 417 1117 408 1140 c 1,20,-1
 350 1140 l 1,21,22
 390 609 390 609 398.5 516.5 c 128,-1,23
 407 424 407 424 405.5 415 c 128,-1,24
 404 406 404 406 404 402.5 c 128,-1,25
 404 399 404 399 406 391 c 1,26,27
 460.816901408 392.957746479 460.816901408 392.957746479 489.408450704 422.978873239 c 0,28,29
 524.231155779 459.542713568 524.231155779 459.542713568 558 511 c 1,30,31
 617 511 617 511 617 451 c 0,32,33
 617 398 617 398 542 352 c 128,-1,34
 467 306 467 306 405 301 c 1,35,-1
 405 222 l 1,36,-1
 419 28 l 1,37,38
 419 8 419 8 404.5 -6 c 128,-1,39
 390 -20 390 -20 371 -20 c 1,40,41
 339 12 339 12 339 65 c 1,42,43
 331 202 l 1,44,45
 331 227 331 227 324 313 c 1,46,47
 232.177966102 346.389830508 232.177966102 346.389830508 197.088983051 382.194915254 c 128,-1,48
 162 418 162 418 144 441 c 128,-1,49
 126 464 126 464 115 498 c 128,-1,50
 104 532 104 532 97.5 557.5 c 128,-1,51
 91 583 91 583 88 626 c 0,52,53
 84 683.333333333 84 683.333333333 84 762.166666667 c 128,-1,54
 84 841 84 841 85.5 882.5 c 128,-1,55
 87 924 87 924 96 987 c 128,-1,56
 105 1050 105 1050 121.5 1093.5 c 0,57,58
 162.079922027 1200.4834308 162.079922027 1200.4834308 250 1254 c 1,0,-1
262 1150 m 1,59,60
 220 1095 220 1095 201.5 990 c 128,-1,61
 183 885 183 885 183 790 c 0,62,63
 183 428 183 428 327 406 c 1,64,65
 316 627 316 627 262 1150 c 1,59,60
EndSplineSet
EndChar

StartChar: sterling
Encoding: 163 163 99
Width: 764
Flags: HW
LayerCount: 2
Fore
SplineSet
606 27 m 1,0,-1
 506 34 l 1,1,-1
 440 34 l 1,2,3
 342 71 342 71 311.5 71 c 128,-1,4
 281 71 281 71 219 46 c 128,-1,5
 157 21 157 21 122 2 c 1,6,-1
 122 6 l 1,7,8
 100 8 100 8 82 20 c 128,-1,9
 64 32 64 32 64 58 c 128,-1,10
 64 84 64 84 85.5 102 c 128,-1,11
 107 120 107 120 143 133.5 c 128,-1,12
 179 147 179 147 193 158 c 0,13,14
 224 182 224 182 239.5 253 c 128,-1,15
 255 324 255 324 255 391 c 128,-1,16
 255 458 255 458 239.5 534.5 c 128,-1,17
 224 611 224 611 191 720 c 128,-1,18
 158 829 158 829 148 867 c 1,19,20
 129 870 129 870 116.5 884.5 c 128,-1,21
 104 899 104 899 104 924.5 c 128,-1,22
 104 950 104 950 131 966 c 1,23,24
 130 1008 130 1008 118 1099 c 128,-1,25
 106 1190 106 1190 106 1232 c 128,-1,26
 106 1274 106 1274 108.5 1315 c 128,-1,27
 111 1356 111 1356 120 1415.5 c 128,-1,28
 129 1475 129 1475 143.5 1520.5 c 128,-1,29
 158 1566 158 1566 186 1599 c 128,-1,30
 214 1632 214 1632 251 1632 c 2,31,-1
 316 1632 l 2,32,33
 353 1632 353 1632 393.5 1589.5 c 128,-1,34
 434 1547 434 1547 458.5 1493 c 128,-1,35
 483 1439 483 1439 483 1403 c 2,36,-1
 483 1394 l 1,37,-1
 451 1359 l 1,38,39
 408.9375 1359 408.9375 1359 398.96875 1373.5 c 128,-1,40
 389 1388 389 1388 387 1390.5 c 0,41,42
 383.666666667 1394.66666667 383.666666667 1394.66666667 370 1422 c 1,43,-1
 370 1459 l 1,44,45
 358 1483 358 1483 352 1509 c 1,46,47
 329 1534 329 1534 293 1539 c 1,48,-1
 293 1519 l 1,49,50
 272 1494 272 1494 238.5 1400 c 128,-1,51
 205 1306 205 1306 205 1270 c 0,52,53
 205 1066 205 1066 224 976 c 1,54,55
 256 977 256 977 324 989.5 c 128,-1,56
 392 1002 392 1002 421 1002 c 128,-1,57
 450 1002 450 1002 465.5 987.5 c 128,-1,58
 481 973 481 973 481 951.5 c 128,-1,59
 481 930 481 930 462 915.5 c 128,-1,60
 443 901 443 901 412 895.5 c 128,-1,61
 381 890 381 890 351 888 c 128,-1,62
 321 886 321 886 288.5 885.5 c 128,-1,63
 256 885 256 885 245 883 c 1,64,65
 256 823 256 823 285 724.5 c 0,66,67
 352 496.931034483 352 496.931034483 352 378 c 0,68,69
 352 314.315789474 352 314.315789474 330 247.157894737 c 128,-1,70
 308 180 308 180 305 169 c 1,71,72
 344 166 344 166 432.5 145.5 c 128,-1,73
 521 125 521 125 572.5 125 c 128,-1,74
 624 125 624 125 663 144 c 1,75,-1
 712 109 l 1,76,77
 712 27 712 27 606 27 c 1,0,-1
EndSplineSet
EndChar

StartChar: currency
Encoding: 164 164 100
Width: 899
Flags: HW
LayerCount: 2
Fore
SplineSet
328 1052 m 1,0,1
 328 1009 328 1009 293 1009 c 0,2,3
 275 1009 275 1009 255 887 c 128,-1,4
 235 765 235 765 235 696 c 1,5,-1
 240 669 l 1,6,-1
 235 585 l 1,7,8
 235 468 235 468 291 421 c 1,9,10
 291 305 291 305 447 305 c 0,11,12
 503 305 503 305 547 341.5 c 128,-1,13
 591 378 591 378 616 431 c 128,-1,14
 641 484 641 484 657 552.5 c 0,15,16
 683 663.8125 683 663.8125 683 750.40625 c 128,-1,17
 683 837 683 837 664 939 c 128,-1,18
 645 1041 645 1041 620 1071 c 1,19,20
 598 1075 598 1075 583 1092.5 c 128,-1,21
 568 1110 568 1110 566 1132 c 1,22,23
 520 1181 520 1181 438 1181 c 0,24,25
 420 1181 420 1181 382 1151 c 128,-1,26
 344 1121 344 1121 327 1100 c 1,27,-1
 327 1086 l 1,28,-1
 328 1052 l 1,0,1
684 251 m 1,29,-1
 684 293 l 1,30,31
 635 251 635 251 558.5 228 c 128,-1,32
 482 205 482 205 396 205 c 128,-1,33
 310 205 310 205 221 290 c 1,34,35
 195 234 195 234 176.5 217.5 c 128,-1,36
 158 201 158 201 131 201 c 128,-1,37
 104 201 104 201 87.5 222.5 c 128,-1,38
 71 244 71 244 71 268.5 c 128,-1,39
 71 293 71 293 87.5 314.5 c 128,-1,40
 104 336 104 336 127 358.5 c 128,-1,41
 150 381 150 381 157 392 c 1,42,43
 125 452 125 452 125 567 c 0,44,45
 125 971 125 971 197 1078 c 1,46,47
 191 1090 191 1090 145.5 1135.5 c 128,-1,48
 100 1181 100 1181 100 1204.5 c 128,-1,49
 100 1228 100 1228 114.5 1241.5 c 128,-1,50
 129 1255 129 1255 143 1255 c 128,-1,51
 157 1255 157 1255 166.5 1252.5 c 128,-1,52
 176 1250 176 1250 183 1247.5 c 128,-1,53
 190 1245 190 1245 198.5 1238 c 128,-1,54
 207 1231 207 1231 211.5 1227.5 c 128,-1,55
 216 1224 216 1224 224.5 1214 c 128,-1,56
 233 1204 233 1204 235.5 1201 c 0,57,58
 253 1180 253 1180 257 1172 c 1,59,60
 259 1174 259 1174 282.5 1200.5 c 128,-1,61
 306 1227 306 1227 319.5 1241 c 0,62,63
 361.928571429 1285 361.928571429 1285 392 1285 c 0,64,65
 512 1285 512 1285 623 1216 c 1,66,67
 631 1226 631 1226 654.5 1267 c 128,-1,68
 678 1308 678 1308 700.5 1329.5 c 128,-1,69
 723 1351 723 1351 754 1351 c 1,70,-1
 807 1304 l 1,71,72
 803.877876106 1261.85132743 803.877876106 1261.85132743 735 1178 c 0,73,74
 712 1150 712 1150 712 1141 c 0,75,76
 712 1081 712 1081 757 959.5 c 128,-1,77
 802 838 802 838 802 773 c 128,-1,78
 802 708 802 708 768.5 584.5 c 128,-1,79
 735 461 735 461 735 396 c 0,80,81
 735 366 735 366 773.5 322 c 128,-1,82
 812 278 812 278 812 252 c 128,-1,83
 812 226 812 226 797.5 210.5 c 128,-1,84
 783 195 783 195 758 195 c 128,-1,85
 733 195 733 195 710 209.5 c 128,-1,86
 687 224 687 224 684 251 c 1,29,-1
EndSplineSet
EndChar

StartChar: yen
Encoding: 165 165 101
Width: 938
Flags: HW
LayerCount: 2
Fore
SplineSet
254 1057 m 1,0,-1
 353 1052 l 1,1,2
 405 1052 405 1052 451 1059 c 1,3,-1
 451 1071 l 1,4,5
 419 1121 419 1121 343.5 1253.5 c 0,6,7
 153.014906832 1587.79503106 153.014906832 1587.79503106 53 1705 c 1,8,9
 44 1723 44 1723 44 1737 c 0,10,11
 44 1774 44 1774 106 1774 c 0,12,13
 183.745398773 1774 183.745398773 1774 402.5 1380 c 0,14,15
 493 1217 493 1217 500 1207 c 1,16,17
 509 1230 509 1230 541 1342.5 c 128,-1,18
 573 1455 573 1455 603.5 1557 c 128,-1,19
 634 1659 634 1659 676 1745.5 c 128,-1,20
 718 1832 718 1832 751 1832 c 0,21,22
 774 1832 774 1832 791.5 1816.5 c 128,-1,23
 809 1801 809 1801 809 1778 c 2,24,-1
 809 1768 l 1,25,26
 793 1724 793 1724 751 1612.5 c 0,27,28
 667.849264706 1391.75459559 667.849264706 1391.75459559 647.424632353 1311.37729779 c 128,-1,29
 627 1231 627 1231 604 1164 c 128,-1,30
 581 1097 581 1097 573 1059 c 1,31,-1
 751 1066 l 1,32,33
 878 1066 878 1066 878 1005 c 0,34,35
 878 957 878 957 765 957 c 2,36,-1
 567 957 l 1,37,-1
 567 887 l 1,38,-1
 763 889 l 1,39,40
 873 889 873 889 873 820 c 0,41,42
 873 803 873 803 855.5 791.5 c 128,-1,43
 838 780 838 780 817 780 c 0,44,45
 712 780 712 780 562 776 c 1,46,47
 562 672 562 672 546.5 461 c 128,-1,48
 531 250 531 250 531 142 c 1,49,-1
 532 94 l 2,50,51
 532 48 532 48 518 20 c 128,-1,52
 504 -8 504 -8 471.5 -8 c 0,53,54
 400 -8 400 -8 400 40 c 2,55,-1
 400 45 l 1,56,57
 417 89 417 89 429.5 365 c 128,-1,58
 442 641 442 641 442 773 c 1,59,-1
 206 773 l 1,60,61
 178 774 178 774 161 794 c 128,-1,62
 144 814 144 814 144 840.5 c 128,-1,63
 144 867 144 867 168 875 c 1,64,65
 303 875 303 875 450 883 c 1,66,67
 452 907 452 907 452 958 c 1,68,-1
 304 958 l 2,69,70
 173 958 173 958 173 1010 c 0,71,72
 173 1057 173 1057 254 1057 c 1,0,-1
EndSplineSet
EndChar

StartChar: brokenbar
Encoding: 166 166 102
Width: 331
Flags: HW
LayerCount: 2
Fore
SplineSet
159 695 m 0,0,1
 220 695 220 695 220 621 c 2,2,-1
 220 -16 l 2,3,4
 220 -80 220 -80 171 -80 c 0,5,6
 150 -80 150 -80 134.5 -65 c 128,-1,7
 119 -50 119 -50 119 -29 c 2,8,-1
 119 644 l 2,9,10
 119 664 119 664 130 679.5 c 128,-1,11
 141 695 141 695 159 695 c 0,0,1
114 1020 m 1,12,13
 106 1510 l 1,14,15
 106 1584 106 1584 177 1584 c 0,16,17
 220 1584 220 1584 220 1393 c 2,18,-1
 220 877 l 2,19,20
 220 856 220 856 203 841 c 128,-1,21
 186 826 186 826 165 826 c 0,22,23
 114 826 114 826 114 1020 c 1,12,13
EndSplineSet
EndChar

StartChar: section
Encoding: 167 167 103
Width: 505
Flags: HW
LayerCount: 2
Fore
SplineSet
167 1018 m 1,0,1
 109 1138 109 1138 109 1275 c 0,2,3
 109 1443 109 1443 272 1443 c 0,4,5
 301 1443 301 1443 336 1430 c 128,-1,6
 371 1417 371 1417 371 1393 c 128,-1,7
 371 1369 371 1369 352.5 1360.5 c 128,-1,8
 334 1352 334 1352 307.5 1351.5 c 128,-1,9
 281 1351 281 1351 254 1349 c 128,-1,10
 227 1347 227 1347 208.5 1329.5 c 128,-1,11
 190 1312 190 1312 190 1263 c 128,-1,12
 190 1214 190 1214 214.5 1152.5 c 128,-1,13
 239 1091 239 1091 274.5 1038 c 128,-1,14
 310 985 310 985 345.5 928.5 c 0,15,16
 430 794.014084507 430 794.014084507 430 634 c 0,17,18
 430 522.214285714 430 522.214285714 341 465 c 1,19,20
 415 349 415 349 415 246 c 0,21,22
 415 115.825581395 415 115.825581395 333 40.5 c 0,23,24
 290 1 290 1 244.5 1 c 128,-1,25
 199 1 199 1 167 24.5 c 128,-1,26
 135 48 135 48 135 74.5 c 0,27,28
 135 121 135 121 185 121 c 0,29,30
 205 121 205 121 226 109 c 1,31,32
 267 110 267 110 291 160 c 128,-1,33
 315 210 315 210 315 256.5 c 128,-1,34
 315 303 315 303 297.5 349 c 128,-1,35
 280 395 280 395 253 431.5 c 128,-1,36
 226 468 226 468 195.5 512.5 c 128,-1,37
 165 557 165 557 138 598.5 c 0,38,39
 76 693.796296296 76 693.796296296 76 821.773148148 c 128,-1,40
 76 949.75 76 949.75 167 1018 c 1,0,1
314.5 744.972222222 m 128,-1,42
 299 782 299 782 294 793.5 c 128,-1,43
 289 805 289 805 275.5 828.5 c 128,-1,44
 262 852 262 852 257.5 860 c 128,-1,45
 253 868 253 868 237 894 c 128,-1,46
 221 920 221 920 218 925 c 1,47,48
 176 871 176 871 176 811 c 128,-1,49
 176 751 176 751 194 703.5 c 0,50,51
 217.5126498 641.452729694 217.5126498 641.452729694 283 549 c 1,52,53
 330 591 330 591 330 649.472222222 c 128,-1,41
 330 707.944444444 330 707.944444444 314.5 744.972222222 c 128,-1,42
EndSplineSet
EndChar

StartChar: dieresis
Encoding: 168 168 104
Width: 754
Flags: HW
LayerCount: 2
Fore
SplineSet
536 975 m 128,-1,1
 517 996 517 996 517 1024 c 128,-1,2
 517 1052 517 1052 539 1075 c 128,-1,3
 561 1098 561 1098 589 1098 c 128,-1,4
 617 1098 617 1098 637.5 1075.5 c 128,-1,5
 658 1053 658 1053 658 1023.5 c 128,-1,6
 658 994 658 994 635 974 c 128,-1,7
 612 954 612 954 583.5 954 c 128,-1,0
 555 954 555 954 536 975 c 128,-1,1
212.5 975 m 128,-1,9
 187 954 187 954 157.5 954 c 128,-1,10
 128 954 128 954 112.5 973 c 128,-1,11
 97 992 97 992 97 1022 c 128,-1,12
 97 1052 97 1052 117 1073.5 c 128,-1,13
 137 1095 137 1095 166.5 1095 c 128,-1,14
 196 1095 196 1095 217 1075 c 128,-1,15
 238 1055 238 1055 238 1025.5 c 128,-1,8
 238 996 238 996 212.5 975 c 128,-1,9
EndSplineSet
EndChar

StartChar: copyright
Encoding: 169 169 105
Width: 1233
Flags: HW
LayerCount: 2
Fore
SplineSet
527 372 m 128,-1,1
 568 332 568 332 613 332 c 128,-1,2
 658 332 658 332 688.5 349 c 128,-1,3
 719 366 719 366 736 386 c 0,4,5
 781.9 440 781.9 440 816.95 440 c 128,-1,6
 852 440 852 440 867.5 419.5 c 128,-1,7
 883 399 883 399 883 365 c 128,-1,8
 883 331 883 331 837 295.5 c 0,9,10
 745.647887324 225 745.647887324 225 634 225 c 0,11,12
 296 225 296 225 296 813 c 2,13,-1
 296 825 l 2,14,15
 296 1138.86206897 296 1138.86206897 348.5 1285.5 c 0,16,17
 385.648148148 1389.25862069 385.648148148 1389.25862069 426.324074074 1427.12931034 c 0,18,19
 503.518518519 1499 503.518518519 1499 592.759259259 1499 c 128,-1,20
 682 1499 682 1499 772 1425.5 c 128,-1,21
 862 1352 862 1352 862 1275 c 0,22,23
 862 1254 862 1254 846.5 1238.5 c 128,-1,24
 831 1223 831 1223 804 1223 c 128,-1,25
 777 1223 777 1223 754 1240 c 128,-1,26
 731 1257 731 1257 716.5 1281 c 128,-1,27
 702 1305 702 1305 688 1329 c 0,28,29
 654.166666667 1387 654.166666667 1387 602.083333333 1387 c 128,-1,30
 550 1387 550 1387 505 1301.5 c 0,31,32
 414 1128.6 414 1128.6 414 815 c 0,33,34
 414 619 414 619 462 481 c 0,35,0
 486 412 486 412 527 372 c 128,-1,1
207 1052.5 m 128,-1,37
 204 995 204 995 204 941.5 c 128,-1,38
 204 888 204 888 207 832.5 c 128,-1,39
 210 777 210 777 215.5 702 c 128,-1,40
 221 627 221 627 227.5 516 c 128,-1,41
 234 405 234 405 256 322 c 0,42,43
 318.760416667 81 318.760416667 81 561 81 c 0,44,45
 763 81 763 81 877 180.5 c 128,-1,46
 991 280 991 280 1040 464 c 1,47,-1
 1040 894 l 2,48,49
 1040 947.583333333 1040 947.583333333 1021 1022.79166667 c 128,-1,50
 1002 1098 1002 1098 990.5 1153.5 c 128,-1,51
 979 1209 979 1209 958 1276 c 128,-1,52
 937 1343 937 1343 903 1416.5 c 0,53,54
 835.107996133 1563.26653777 835.107996133 1563.26653777 692 1658 c 1,55,56
 611 1713 611 1713 553.5 1713 c 128,-1,57
 496 1713 496 1713 442 1681 c 128,-1,58
 388 1649 388 1649 352 1598.5 c 128,-1,59
 316 1548 316 1548 288 1477.5 c 128,-1,60
 260 1407 260 1407 244.5 1337 c 128,-1,61
 229 1267 229 1267 219.5 1188.5 c 128,-1,36
 210 1110 210 1110 207 1052.5 c 128,-1,37
197 159 m 0,62,63
 129 270 129 270 108 514.75 c 128,-1,64
 87 759.5 87 759.5 87 876.75 c 128,-1,65
 87 994 87 994 90.5 1063.5 c 128,-1,66
 94 1133 94 1133 106 1224 c 128,-1,67
 118 1315 118 1315 137.5 1393.5 c 128,-1,68
 157 1472 157 1472 191.5 1551 c 128,-1,69
 226 1630 226 1630 271.5 1686 c 0,70,71
 373.875 1812 373.875 1812 535 1812 c 0,72,73
 827.863387978 1812 827.863387978 1812 992 1505.5 c 0,74,75
 1116.75355779 1272.54182575 1116.75355779 1272.54182575 1146.5 925.5 c 0,76,77
 1154 838 1154 838 1154 757 c 0,78,79
 1154 -20 1154 -20 589 -20 c 0,80,81
 305 -20 305 -20 197 159 c 0,62,63
EndSplineSet
EndChar

StartChar: guillemotleft
Encoding: 171 171 106
Width: 728
Flags: HW
LayerCount: 2
Fore
SplineSet
388 1485 m 1,0,-1
 407 1489 l 1,1,2
 431 1489 431 1489 450.5 1476 c 128,-1,3
 470 1463 470 1463 471 1440 c 1,4,5
 424 1332 424 1332 331.5 1075 c 128,-1,6
 239 818 239 818 177 687 c 1,7,8
 197.470327724 586.509300266 197.470327724 586.509300266 368 305 c 0,9,10
 534 30.9682539683 534 30.9682539683 534 -13 c 0,11,12
 534 -35 534 -35 513.5 -47 c 128,-1,13
 493 -59 493 -59 471 -59 c 128,-1,14
 449 -59 449 -59 349 110.5 c 128,-1,15
 249 280 249 280 157.5 467 c 128,-1,16
 66 654 66 654 66 687 c 128,-1,17
 66 720 66 720 121.5 860 c 128,-1,18
 177 1000 177 1000 246.5 1166.5 c 128,-1,19
 316 1333 316 1333 327 1361 c 1,20,21
 330 1388 330 1388 349 1425 c 128,-1,22
 368 1462 368 1462 388 1483 c 1,23,-1
 388 1485 l 1,0,-1
563 1447 m 1,24,-1
 570 1446 l 1,25,-1
 615 1411 l 1,26,27
 598.267272727 1277.13818182 598.267272727 1277.13818182 475.5 1037 c 0,28,29
 357 805.208791209 357 805.208791209 357 702 c 0,30,31
 357 687 357 687 494.5 410 c 128,-1,32
 632 133 632 133 668 69 c 1,33,34
 667 60 667 60 668 48 c 128,-1,35
 669 36 669 36 668 24 c 128,-1,36
 667 12 667 12 665 1.5 c 0,37,38
 660.523809524 -22 660.523809524 -22 636.261904762 -22 c 128,-1,39
 612 -22 612 -22 600 -18 c 0,40,41
 568 -8 568 -8 240 698 c 1,42,43
 242 754 242 754 346 980 c 128,-1,44
 450 1206 450 1206 457.5 1232.5 c 128,-1,45
 465 1259 465 1259 472 1288.5 c 128,-1,46
 479 1318 479 1318 486 1340 c 128,-1,47
 493 1362 493 1362 504.5 1389.5 c 0,48,49
 528.545454545 1447 528.545454545 1447 563 1447 c 1,24,-1
EndSplineSet
EndChar

StartChar: logicalnot
Encoding: 172 172 107
Width: 993
Flags: HW
LayerCount: 2
Fore
SplineSet
696 733 m 1,0,-1
 150 711 l 2,1,2
 129 711 129 711 114 726.5 c 128,-1,3
 99 742 99 742 99 763 c 0,4,5
 99 835 99 835 317 835 c 1,6,-1
 494 828 l 1,7,-1
 817 848 l 1,8,9
 842 848 842 848 863 831 c 128,-1,10
 884 814 884 814 884 783.5 c 128,-1,11
 884 753 884 753 865 720 c 1,12,13
 865 612 865 612 889 537 c 1,14,15
 886 513 886 513 871.5 494 c 128,-1,16
 857 475 857 475 835 475 c 0,17,18
 772 475 772 475 772 592 c 1,19,-1
 774 659 l 1,20,21
 774 700 774 700 769 727 c 1,22,-1
 696 733 l 1,0,-1
EndSplineSet
EndChar

StartChar: uni00AD
Encoding: 173 173 108
Width: 648
Flags: HW
LayerCount: 2
Fore
SplineSet
525 781.5 m 128,-1,1
 546 765 546 765 546 739.5 c 128,-1,2
 546 714 546 714 497.5 695.5 c 128,-1,3
 449 677 449 677 378 669.5 c 0,4,5
 250.2 656 250.2 656 171 656 c 0,6,7
 145 656 145 656 124.5 673 c 128,-1,8
 104 690 104 690 104 715 c 128,-1,9
 104 740 104 740 152.5 758 c 128,-1,10
 201 776 201 776 271.5 784 c 0,11,12
 394.875 798 394.875 798 478 798 c 0,13,0
 504 798 504 798 525 781.5 c 128,-1,1
EndSplineSet
EndChar

StartChar: registered
Encoding: 174 174 109
Width: 1161
Flags: HW
LayerCount: 2
Fore
SplineSet
670 1298 m 2,0,1
 670 1525 670 1525 566 1525 c 0,2,3
 505 1525 505 1525 483 1494.5 c 128,-1,4
 461 1464 461 1464 461 1407 c 1,5,-1
 469 1263 l 1,6,7
 469 1090 469 1090 492 1000 c 1,8,9
 670 1075.70114943 670 1075.70114943 670 1272 c 2,10,-1
 670 1298 l 2,0,1
534 210 m 0,11,12
 534 143 534 143 479 143 c 256,13,14
 451 143 451 143 428.5 161.5 c 128,-1,15
 406 180 406 180 406 215.5 c 128,-1,16
 406 251 406 251 389 338.5 c 128,-1,17
 372 426 372 426 372 470 c 2,18,-1
 372 1454 l 2,19,20
 372 1564.28571429 372 1564.28571429 417.5 1600.5 c 0,21,22
 460.846153846 1635 460.846153846 1635 560 1635 c 0,23,24
 787 1635 787 1635 787 1270 c 0,25,26
 787 1101.27027027 787 1101.27027027 704.5 1021 c 0,27,28
 686 1003 686 1003 670.5 990.5 c 128,-1,29
 655 978 655 978 652 969 c 1,30,31
 655 893 655 893 827 314 c 1,32,33
 827 292 827 292 844.5 255.5 c 128,-1,34
 862 219 862 219 862 200 c 128,-1,35
 862 181 862 181 843 162 c 128,-1,36
 824 143 824 143 807 143 c 0,37,38
 742.995192308 143 742.995192308 143 677.5 382 c 0,39,40
 639.690544413 519.971346705 639.690544413 519.971346705 599.345272206 702.485673352 c 128,-1,41
 559 885 559 885 548 914 c 1,42,-1
 495 914 l 1,43,44
 490 834 490 834 490 766 c 128,-1,45
 490 698 490 698 512 503 c 128,-1,46
 534 308 534 308 534 210 c 0,11,12
624 1832 m 1,47,48
 211 1832 211 1832 211 954 c 0,49,50
 211 180 211 180 345 27 c 0,51,52
 365 4 365 4 410 -25.5 c 128,-1,53
 455 -55 455 -55 467 -64 c 1,54,-1
 526 -64 l 1,55,-1
 526 -84 l 1,56,57
 761.542957177 -81.1621330461 761.542957177 -81.1621330461 866 132.5 c 0,58,59
 963 330.909090909 963 330.909090909 963 719.954545455 c 128,-1,60
 963 1109 963 1109 933 1325 c 0,61,62
 863 1831 863 1831 624 1832 c 1,47,48
784.5 -150 m 128,-1,64
 709 -190 709 -190 609.5 -190 c 128,-1,65
 510 -190 510 -190 428.5 -156.5 c 128,-1,66
 347 -123 347 -123 293.5 -72 c 128,-1,67
 240 -21 240 -21 201 61.5 c 128,-1,68
 162 144 162 144 141.5 220 c 128,-1,69
 121 296 121 296 109.5 402.5 c 0,70,71
 93 555.304347826 93 555.304347826 93 670.152173913 c 2,72,-1
 93 833 l 1,73,74
 90 885 90 885 92 948.5 c 128,-1,75
 94 1012 94 1012 94.5 1082 c 128,-1,76
 95 1152 95 1152 103 1226 c 128,-1,77
 111 1300 111 1300 121 1373 c 128,-1,78
 131 1446 131 1446 152 1516.5 c 128,-1,79
 173 1587 173 1587 199 1650 c 128,-1,80
 225 1713 225 1713 265 1765.5 c 128,-1,81
 305 1818 305 1818 353 1856.5 c 0,82,83
 454.61038961 1938 454.61038961 1938 609 1938 c 0,84,85
 694 1938 694 1938 772.5 1886 c 128,-1,86
 851 1834 851 1834 907 1755 c 1,87,88
 999.21169687 1699.67298188 999.21169687 1699.67298188 1052.5 1188.5 c 0,89,90
 1077 953.481481481 1077 953.481481481 1077 829.240740741 c 128,-1,91
 1077 705 1077 705 1076 643.5 c 128,-1,92
 1075 582 1075 582 1066 464.5 c 128,-1,93
 1057 347 1057 347 1040.5 270.5 c 128,-1,94
 1024 194 1024 194 990 98.5 c 128,-1,95
 956 3 956 3 908 -53.5 c 128,-1,63
 860 -110 860 -110 784.5 -150 c 128,-1,64
EndSplineSet
EndChar

StartChar: macron
Encoding: 175 175 110
Width: 652
Flags: HW
LayerCount: 2
Fore
SplineSet
196 800 m 1,0,-1
 340 804 l 1,1,2
 548 804 548 804 548 749 c 0,3,4
 548 704 548 704 482 704 c 1,5,-1
 334 700 l 1,6,7
 106 700 106 700 106 756 c 0,8,9
 106 800 106 800 196 800 c 1,0,-1
EndSplineSet
EndChar

StartChar: degree
Encoding: 176 176 111
Width: 704
Flags: HW
LayerCount: 2
Fore
SplineSet
334 901 m 128,-1,1
 275 901 275 901 238 863 c 0,2,3
 176 799.324324324 176 799.324324324 176 665 c 0,4,5
 176 617 176 617 224.5 566 c 128,-1,6
 273 515 273 515 328.5 515 c 128,-1,7
 384 515 384 515 422.5 531.5 c 128,-1,8
 461 548 461 548 483 572.5 c 128,-1,9
 505 597 505 597 519 628 c 0,10,11
 542 678.928571429 542 678.928571429 542 717.464285714 c 128,-1,12
 542 756 542 756 532.5 783 c 128,-1,13
 523 810 523 810 501.5 838 c 128,-1,14
 480 866 480 866 436.5 883.5 c 128,-1,0
 393 901 393 901 334 901 c 128,-1,1
162 902 m 128,-1,16
 225 970 225 970 325 970 c 0,17,18
 504.696969697 970 504.696969697 970 575 854 c 0,19,20
 610 796.25 610 796.25 610 750.125 c 128,-1,21
 610 704 610 704 603.5 670 c 128,-1,22
 597 636 597 636 577.5 593.5 c 128,-1,23
 558 551 558 551 528 517.5 c 0,24,25
 456.805970149 438 456.805970149 438 326 438 c 0,26,27
 260 438 260 438 213 467 c 128,-1,28
 166 496 166 496 142.5 543 c 0,29,30
 99 630 99 630 99 732 c 128,-1,15
 99 834 99 834 162 902 c 128,-1,16
EndSplineSet
EndChar

StartChar: plusminus
Encoding: 177 177 112
Width: 745
Flags: HW
LayerCount: 2
Fore
SplineSet
303 705 m 1,0,-1
 291 855 l 1,1,2
 291 968 291 968 357 968 c 0,3,4
 381 968 381 968 399 950.5 c 128,-1,5
 417 933 417 933 417 909 c 2,6,-1
 417 884 l 2,7,8
 417 878 417 878 416.5 853.5 c 128,-1,9
 416 829 416 829 416.5 805.5 c 128,-1,10
 417 782 417 782 418 757 c 0,11,12
 420.24 701 420.24 701 436 701 c 1,13,-1
 555 709 l 1,14,15
 661 709 661 709 661 647 c 0,16,17
 661 623 661 623 644 607 c 128,-1,18
 627 591 627 591 603 591 c 1,19,-1
 482 602 l 1,20,21
 417 602 417 602 417 553 c 1,22,-1
 436 389 l 1,23,24
 436 364 436 364 415.5 348.5 c 128,-1,25
 395 333 395 333 370 333 c 128,-1,26
 345 333 345 333 324 347.5 c 128,-1,27
 303 362 303 362 303 385 c 2,28,-1
 309 584 l 1,29,-1
 309 599 l 1,30,-1
 176 590 l 1,31,32
 89 590 89 590 89 655 c 0,33,34
 89 676 89 676 101.5 692 c 128,-1,35
 114 708 114 708 135 708 c 1,36,-1
 256 701 l 1,37,38
 282 701 282 701 303 705 c 1,0,-1
603 145 m 1,39,-1
 171 135 l 1,40,41
 89 135 89 135 89 200 c 0,42,43
 89 221 89 221 101.5 233.5 c 128,-1,44
 114 246 114 246 135 246 c 2,45,-1
 562 246 l 2,46,47
 636.208333333 246 636.208333333 246 648.604166667 228.5 c 128,-1,48
 661 211 661 211 661 192 c 0,49,50
 661 145 661 145 603 145 c 1,39,-1
EndSplineSet
EndChar

StartChar: uni00B2
Encoding: 178 178 113
Width: 578
Flags: HW
LayerCount: 2
Fore
SplineSet
443 4 m 1,0,-1
 131 -15 l 1,1,2
 102 -15 102 -15 79 2 c 128,-1,3
 56 19 56 19 56 47 c 2,4,-1
 56 55 l 1,5,6
 98.6600372902 105.863890615 98.6600372902 105.863890615 127.830018645 189.431945308 c 128,-1,7
 157 273 157 273 169 299 c 0,8,9
 286 558 286 558 343 774 c 128,-1,10
 400 990 400 990 400 1241 c 128,-1,11
 400 1492 400 1492 302 1500 c 1,12,13
 268.849056604 1481.58280922 268.849056604 1481.58280922 256.5 1402 c 0,14,15
 244.862068966 1327 244.862068966 1327 195.431034483 1327 c 128,-1,16
 146 1327 146 1327 146 1390 c 0,17,18
 146 1488.52380952 146 1488.52380952 203.5 1551.5 c 0,19,20
 235 1586 235 1586 278 1586 c 1,21,-1
 278 1587 l 1,22,23
 385.152173913 1587 385.152173913 1587 432.5 1521 c 0,24,25
 467.751054852 1471.86216596 467.751054852 1471.86216596 476.875527426 1432.93108298 c 128,-1,26
 486 1394 486 1394 489.5 1371 c 128,-1,27
 493 1348 493 1348 495 1312 c 0,28,29
 498 1258 498 1258 498 1201 c 0,30,31
 498 1024 498 1024 453.5 800.5 c 128,-1,32
 409 577 409 577 340 422 c 0,33,34
 328 394 328 394 268 274.5 c 128,-1,35
 208 155 208 155 185 86 c 1,36,37
 309 107 309 107 417 107 c 1,38,39
 467 95 467 95 467 61 c 0,40,41
 467 37 467 37 443 4 c 1,0,-1
EndSplineSet
EndChar

StartChar: uni00B3
Encoding: 179 179 114
Width: 600
Flags: HW
LayerCount: 2
Fore
SplineSet
234 865 m 1,0,-1
 234 889 l 2,1,2
 234 920.244444444 234 920.244444444 275.5 969.122222222 c 0,3,4
 354 1061.57777778 354 1061.57777778 354 1150 c 0,5,6
 354 1229 354 1229 340 1313 c 0,7,8
 312.666666667 1477 312.666666667 1477 247 1477 c 0,9,10
 222 1477 222 1477 205.5 1458.5 c 128,-1,11
 189 1440 189 1440 182 1418.5 c 128,-1,12
 175 1397 175 1397 157.5 1378.5 c 128,-1,13
 140 1360 140 1360 114.5 1360 c 128,-1,14
 89 1360 89 1360 73 1376.5 c 128,-1,15
 57 1393 57 1393 53 1416 c 1,16,17
 81 1485 81 1485 131.5 1529 c 128,-1,18
 182 1573 182 1573 246 1573 c 128,-1,19
 310 1573 310 1573 357 1522 c 1,20,21
 401 1521 401 1521 428.5 1366 c 128,-1,22
 456 1211 456 1211 456 1152.5 c 128,-1,23
 456 1094 456 1094 446.5 1065 c 128,-1,24
 437 1036 437 1036 427.5 1020.5 c 128,-1,25
 418 1005 418 1005 395 972 c 128,-1,26
 372 939 372 939 364 927 c 1,27,28
 490.120274914 852.357388316 490.120274914 852.357388316 527 502 c 0,29,30
 535 426 535 426 535 371 c 128,-1,31
 535 316 535 316 533 280.5 c 128,-1,32
 531 245 531 245 524.5 197 c 128,-1,33
 518 149 518 149 503.5 114 c 128,-1,34
 489 79 489 79 466.5 46.5 c 0,35,36
 420.461538462 -20 420.461538462 -20 323 -20 c 0,37,38
 245.956521739 -20 245.956521739 -20 208.97826087 11.5 c 128,-1,39
 172 43 172 43 172 76 c 2,40,-1
 172 89 l 1,41,-1
 206 89 l 1,42,43
 217 87 217 87 234.5 85.5 c 128,-1,44
 252 84 252 84 261 83 c 0,45,46
 282 80.6666666667 282 80.6666666667 307 64 c 1,47,48
 432 69 432 69 432 294 c 0,49,50
 432 594.5 432 594.5 378 727.5 c 0,51,52
 351 794 351 794 307 849 c 1,53,54
 303 848 303 848 287.5 848 c 128,-1,55
 272 848 272 848 234 865 c 1,0,-1
EndSplineSet
EndChar

StartChar: acute
Encoding: 180 180 115
Width: 530
Flags: HW
LayerCount: 2
Fore
SplineSet
159 1285 m 1,0,1
 90 1285 90 1285 90 1339 c 2,2,-1
 90 1341 l 1,3,4
 91.6874812369 1381.49954968 91.6874812369 1381.49954968 271.5 1508.5 c 0,5,6
 343 1559 343 1559 358 1573 c 1,7,8
 436 1573 436 1573 436 1517 c 0,9,10
 436 1516 436 1516 427 1468 c 1,11,12
 361 1441 361 1441 284.5 1388.5 c 128,-1,13
 208 1336 208 1336 159 1285 c 1,0,1
EndSplineSet
EndChar

StartChar: uni00B5
Encoding: 181 181 116
AltUni2: 0003bc.ffffffff.0
Width: 686
Flags: HW
LayerCount: 2
Fore
SplineSet
533 913 m 1,0,-1
 535 878 l 1,1,2
 519.264667536 801.071707953 519.264667536 801.071707953 515.632333768 628.535853977 c 128,-1,3
 512 456 512 456 499.5 348.5 c 128,-1,4
 487 241 487 241 465.5 159.5 c 128,-1,5
 444 78 444 78 396.5 24 c 128,-1,6
 349 -30 349 -30 282.5 -30.5 c 128,-1,7
 216 -31 216 -31 171 11 c 1,8,9
 174 -78 174 -78 174 -163 c 128,-1,10
 174 -248 174 -248 111 -248 c 0,11,12
 90 -248 90 -248 77.5 -235.5 c 128,-1,13
 65 -223 65 -223 65 -202 c 2,14,-1
 65 99 l 1,15,-1
 58 475 l 1,16,-1
 58 484 l 1,17,-1
 69 1013 l 1,18,19
 69 1190 69 1190 44 1306 c 1,20,-1
 44 1355 l 1,21,22
 93 1355 93 1355 121.5 1317 c 128,-1,23
 150 1279 150 1279 150 1232 c 2,24,-1
 150 241 l 2,25,26
 150 129 150 129 213 66 c 0,27,28
 248 31 248 31 299 31 c 0,29,30
 338 31 338 31 366 152 c 0,31,32
 412 350.785714286 412 350.785714286 412 516.892857143 c 128,-1,33
 412 683 412 683 425 932.5 c 128,-1,34
 438 1182 438 1182 438 1307 c 1,35,-1
 437 1341 l 2,36,37
 437 1365 437 1365 448 1377 c 128,-1,38
 459 1389 459 1389 490 1389 c 128,-1,39
 521 1389 521 1389 536 1372 c 128,-1,40
 551 1355 551 1355 553.5 1337.5 c 128,-1,41
 556 1320 556 1320 556 1290 c 1,42,-1
 542 1084 l 1,43,-1
 533 913 l 1,0,-1
EndSplineSet
EndChar

StartChar: paragraph
Encoding: 182 182 117
Width: 935
Flags: HW
LayerCount: 2
Fore
SplineSet
558 1854 m 1,0,1
 580 1876 580 1876 604.5 1876 c 128,-1,2
 629 1876 629 1876 697 1859 c 1,3,-1
 697 1858 l 1,4,-1
 751 1858 l 1,5,-1
 751 1854 l 1,6,7
 794 1852 794 1852 838.5 1836.5 c 128,-1,8
 883 1821 883 1821 883 1790 c 0,9,10
 883 1735 883 1735 803 1739 c 1,11,-1
 817 1142 l 1,12,-1
 805 265 l 1,13,-1
 817 36 l 1,14,15
 817 12 817 12 800 -4 c 128,-1,16
 783 -20 783 -20 759 -20 c 0,17,18
 685 -20 685 -20 685 103 c 1,19,-1
 703 1177 l 1,20,-1
 689 1623 l 1,21,-1
 692 1689 l 1,22,23
 692 1769 692 1769 632 1769 c 0,24,25
 624 1769 624 1769 624 1669.5 c 128,-1,26
 624 1570 624 1570 636.5 1334 c 128,-1,27
 649 1098 649 1098 649 962.5 c 128,-1,28
 649 827 649 827 631 522 c 128,-1,29
 613 217 613 217 613 64 c 0,30,31
 613 28 613 28 600.5 10 c 128,-1,32
 588 -8 588 -8 557.5 -8 c 128,-1,33
 527 -8 527 -8 509.5 10.5 c 128,-1,34
 492 29 492 29 492 56 c 0,35,36
 492 208 492 208 513.5 510 c 128,-1,37
 535 812 535 812 535 964 c 1,38,-1
 531 1098 l 1,39,40
 316.488888889 1098 316.488888889 1098 206 1154.5 c 0,41,42
 162 1177 162 1177 125.5 1220 c 0,43,44
 83.6230043541 1269.33454282 83.6230043541 1269.33454282 71.5 1349 c 0,45,46
 68 1372 68 1372 63 1384 c 1,47,48
 63 1567.37288136 63 1567.37288136 118.5 1660.5 c 0,49,50
 177.337662338 1759.22760291 177.337662338 1759.22760291 284 1799 c 128,-1,51
 390.715846995 1838.79234973 390.715846995 1838.79234973 558 1854 c 1,0,1
533 1200 m 1,52,-1
 513 1697 l 1,53,-1
 513 1740 l 1,54,55
 486 1748 486 1748 433 1748 c 0,56,57
 327 1748 327 1748 252 1655.5 c 128,-1,58
 177 1563 177 1563 176 1455 c 1,59,60
 176 1248.3253012 176 1248.3253012 343.5 1212 c 0,61,62
 417.277777778 1196 417.277777778 1196 518 1196 c 1,63,-1
 533 1200 l 1,52,-1
EndSplineSet
EndChar

StartChar: periodcentered
Encoding: 183 183 118
Width: 361
Flags: HW
LayerCount: 2
Fore
SplineSet
126.5 655.5 m 128,-1,1
 106 678 106 678 106 707.5 c 128,-1,2
 106 737 106 737 129 761 c 128,-1,3
 152 785 152 785 182 785 c 128,-1,4
 212 785 212 785 234 761 c 128,-1,5
 256 737 256 737 256 705.5 c 128,-1,6
 256 674 256 674 233 653.5 c 128,-1,7
 210 633 210 633 178.5 633 c 128,-1,0
 147 633 147 633 126.5 655.5 c 128,-1,1
EndSplineSet
EndChar

StartChar: cedilla
Encoding: 184 184 119
Width: 461
Flags: HW
LayerCount: 2
Fore
SplineSet
112 -157 m 1,0,1
 131 -119 131 -119 131 -45 c 2,2,-1
 131 2 l 1,3,-1
 243 2 l 1,4,5
 232 -55 232 -55 230 -91 c 1,6,7
 308 -106 308 -106 343.5 -169 c 128,-1,8
 379 -232 379 -232 379 -308.5 c 0,9,10
 379 -385 379 -385 323 -444.5 c 128,-1,11
 267 -504 267 -504 212.5 -504 c 0,12,13
 158 -504 158 -504 123 -483.5 c 128,-1,14
 88 -463 88 -463 88 -435 c 0,15,16
 88 -407 88 -407 102 -394 c 128,-1,17
 116 -381 116 -381 143.5 -381 c 0,18,19
 171 -381 171 -381 200 -401 c 1,20,21
 215 -400 215 -400 230.5 -378.5 c 128,-1,22
 246 -357 246 -357 246 -341 c 128,-1,23
 246 -325 246 -325 242.5 -308.5 c 128,-1,24
 239 -292 239 -292 232 -271 c 128,-1,25
 225 -250 225 -250 223 -240 c 1,26,-1
 258 -275 l 1,27,-1
 258 -266 l 2,28,29
 258 -230 258 -230 241 -214 c 1,30,31
 208 -219 208 -219 188 -219 c 0,32,33
 168 -219 168 -219 152 -206.5 c 128,-1,34
 136 -194 136 -194 112 -157 c 1,0,1
EndSplineSet
EndChar

StartChar: uni00B9
Encoding: 185 185 120
Width: 602
Flags: HW
LayerCount: 2
Fore
SplineSet
389 96 m 1,0,1
 437 102 437 102 464 102 c 1,2,-1
 464 103 l 1,3,4
 550 103 550 103 550 52 c 0,5,6
 550 -8 550 -8 317 -8 c 1,7,-1
 256 -9 l 2,8,9
 218 -9 218 -9 195.5 2 c 128,-1,10
 173 13 173 13 173 47 c 2,11,-1
 173 91 l 1,12,13
 238 86 238 86 245 86 c 0,14,15
 290 86 290 86 290 120 c 0,16,17
 290 430 290 430 255 924 c 0,18,19
 252 967 252 967 244.5 1045 c 0,20,21
 228 1216.6 228 1216.6 228 1308 c 1,22,23
 231 1383 l 1,24,25
 231 1479 231 1479 160 1479 c 1,26,-1
 113 1477 l 1,27,28
 55 1477 55 1477 55 1521 c 0,29,30
 55 1575 55 1575 220 1575 c 0,31,32
 291.866666667 1575 291.866666667 1575 310 1541 c 1,33,34
 306 1534 306 1534 309.5 1498 c 128,-1,35
 313 1462 313 1462 313 1427 c 128,-1,36
 313 1392 313 1392 328.5 1267 c 128,-1,37
 344 1142 344 1142 344 1030 c 128,-1,38
 344 918 344 918 366.5 594.5 c 128,-1,39
 389 271 389 271 389 109 c 2,40,-1
 389 96 l 1,0,1
EndSplineSet
EndChar

StartChar: guillemotright
Encoding: 187 187 121
Width: 755
Flags: HW
LayerCount: 2
Fore
SplineSet
348 1490 m 1,0,-1
 363 1486 l 1,1,-1
 363 1485 l 1,2,3
 385 1463 385 1463 405 1427 c 128,-1,4
 425 1391 425 1391 429 1363 c 1,5,6
 439 1337 439 1337 509 1169 c 0,7,8
 689 737 689 737 689 697.5 c 128,-1,9
 689 658 689 658 597.5 470.5 c 128,-1,10
 506 283 506 283 406.5 113.5 c 128,-1,11
 307 -56 307 -56 284.5 -56 c 128,-1,12
 262 -56 262 -56 241.5 -44 c 128,-1,13
 221 -32 221 -32 221 -8 c 128,-1,14
 221 16 221 16 272.5 110 c 128,-1,15
 324 204 324 204 387 308 c 0,16,17
 559.343224092 592.503100089 559.343224092 592.503100089 579 689 c 1,18,19
 518.618793599 814.658186295 518.618793599 814.658186295 468.309396799 984.329093147 c 0,20,21
 376.65625 1293.43382353 376.65625 1293.43382353 283 1433 c 1,22,23
 285 1458 285 1458 303.5 1474 c 128,-1,24
 322 1490 322 1490 348 1490 c 1,0,-1
155 -19 m 1,25,-1
 113 -23 l 1,26,27
 88 -23 88 -23 74 -0.5 c 128,-1,28
 60 22 60 22 59 49 c 1,29,30
 129 178 129 178 261.5 433 c 128,-1,31
 394 688 394 688 394 702 c 0,32,33
 394 804.12 394 804.12 303.5 981.5 c 0,34,35
 192.124787776 1199.79541596 192.124787776 1199.79541596 165.062393888 1276.89770798 c 128,-1,36
 138 1354 138 1354 137 1411 c 1,37,-1
 182 1446 l 1,38,-1
 182 1444 l 1,39,40
 225.971119134 1423.06137184 225.971119134 1423.06137184 241.985559567 1389.03068592 c 128,-1,41
 258 1355 258 1355 262.5 1343.5 c 0,42,43
 271.846153846 1319.61538462 271.846153846 1319.61538462 286.923076923 1262.30769231 c 128,-1,44
 302 1205 302 1205 406 981 c 128,-1,45
 510 757 510 757 512 698 c 1,46,-1
 155 -19 l 1,25,-1
EndSplineSet
EndChar

StartChar: onequarter
Encoding: 188 188 122
Width: 1561
Flags: HW
LayerCount: 2
Fore
SplineSet
389 96 m 1,0,1
 437 102 437 102 461 102 c 1,2,-1
 461 103 l 1,3,4
 544 103 544 103 544 52 c 0,5,6
 544 -8 544 -8 317 -8 c 1,7,-1
 256 -9 l 2,8,9
 218 -9 218 -9 195.5 2 c 128,-1,10
 173 13 173 13 173 47 c 2,11,-1
 173 91 l 1,12,13
 238 86 238 86 245 86 c 0,14,15
 290 86 290 86 290 120 c 0,16,17
 290 430 290 430 255 924 c 0,18,19
 252 967 252 967 244.5 1045 c 0,20,21
 228 1216.6 228 1216.6 228 1308 c 1,22,23
 231 1383 l 1,24,25
 231 1479 231 1479 160 1479 c 1,26,-1
 113 1477 l 1,27,28
 55 1477 55 1477 55 1521 c 0,29,30
 55 1575 55 1575 220 1575 c 0,31,32
 291.866666667 1575 291.866666667 1575 310 1541 c 1,33,34
 306 1534 306 1534 309.5 1498 c 128,-1,35
 313 1462 313 1462 313 1427 c 128,-1,36
 313 1392 313 1392 328.5 1267 c 128,-1,37
 344 1142 344 1142 344 1030 c 128,-1,38
 344 918 344 918 366.5 594.5 c 128,-1,39
 389 271 389 271 389 109 c 2,40,-1
 389 96 l 1,0,1
609 30 m 0,41,42
 609 166 609 166 672 437 c 128,-1,43
 735 708 735 708 818 1016.5 c 128,-1,44
 901 1325 901 1325 913 1390 c 128,-1,45
 925 1455 925 1455 928 1470 c 2,46,-1
 932.5 1492.5 l 2,47,48
 940.424657534 1532.12328767 940.424657534 1532.12328767 955.212328767 1542.56164384 c 128,-1,49
 970 1553 970 1553 985.5 1553 c 128,-1,50
 1001 1553 1001 1553 1016.5 1539 c 128,-1,51
 1032 1525 1032 1525 1032 1499.5 c 128,-1,52
 1032 1474 1032 1474 1025.5 1442 c 128,-1,53
 1019 1410 1019 1410 1007.5 1370 c 0,54,55
 964.607633588 1220.80916031 964.607633588 1220.80916031 866.803816794 753.904580153 c 128,-1,56
 769 287 769 287 760.5 237.5 c 128,-1,57
 752 188 752 188 744 151 c 128,-1,58
 736 114 736 114 722.5 67.5 c 0,59,60
 693.903225806 -31 693.903225806 -31 653 -31 c 1,61,62
 609 -2 609 -2 609 30 c 0,41,42
1305 491 m 1,63,-1
 1196 480 l 1,64,-1
 1196 479 l 1,65,66
 1157 479 1157 479 1115 512 c 1,67,68
 1115 558 1115 558 1124 591 c 1,69,70
 1115 639 1115 639 1115 707.5 c 128,-1,71
 1115 776 1115 776 1130.5 917 c 128,-1,72
 1146 1058 1146 1058 1146 1124 c 2,73,-1
 1146 1503 l 2,74,75
 1146 1543 1146 1543 1185 1543 c 0,76,77
 1208 1543 1208 1543 1226.5 1529 c 128,-1,78
 1245 1515 1245 1515 1245 1492 c 1,79,-1
 1236 1333 l 1,80,81
 1236 1291 1236 1291 1244 1259 c 1,82,-1
 1244 1252 l 1,83,84
 1245 1243 1245 1243 1245 1149.5 c 128,-1,85
 1245 1056 1245 1056 1231 882.5 c 128,-1,86
 1217 709 1217 709 1217 653.5 c 128,-1,87
 1217 598 1217 598 1220 576 c 1,88,89
 1253 577 1253 577 1293 587 c 1,90,91
 1291.24534466 934.421757596 1291.24534466 934.421757596 1276.62267233 1032.2108788 c 128,-1,92
 1262 1130 1262 1130 1262 1155.5 c 128,-1,93
 1262 1181 1262 1181 1282 1193.5 c 128,-1,94
 1302 1206 1302 1206 1325 1206 c 1,95,-1
 1367 1170 l 1,96,-1
 1367 1041 l 2,97,98
 1367 757.2 1367 757.2 1393 596 c 1,99,-1
 1452 601 l 1,100,101
 1513 601 1513 601 1513 557 c 0,102,103
 1513 527 1513 527 1495.5 517 c 128,-1,104
 1478 507 1478 507 1438 507 c 128,-1,105
 1398 507 1398 507 1398 489 c 0,106,107
 1398 190 1398 190 1413 155 c 1,108,109
 1409 131 1409 131 1409 111.5 c 128,-1,110
 1409 92 1409 92 1419 76 c 1,111,-1
 1419 39 l 2,112,113
 1419 -38 1419 -38 1370 -38 c 0,114,115
 1339 -38 1339 -38 1324 -6.5 c 128,-1,116
 1309 25 1309 25 1309 59 c 2,117,-1
 1309 66 l 1,118,119
 1316 90 1316 90 1316 140 c 1,120,-1
 1301 339 l 1,121,122
 1301 388 1301 388 1309 428 c 1,123,124
 1309 463 1309 463 1305 491 c 1,63,-1
EndSplineSet
EndChar

StartChar: onehalf
Encoding: 189 189 123
Width: 1610
Flags: HW
LayerCount: 2
Fore
SplineSet
389 96 m 1,0,1
 437 102 437 102 461 102 c 1,2,-1
 461 103 l 1,3,4
 544 103 544 103 544 52 c 0,5,6
 544 -8 544 -8 317 -8 c 1,7,-1
 256 -9 l 2,8,9
 218 -9 218 -9 195.5 2 c 128,-1,10
 173 13 173 13 173 47 c 2,11,-1
 173 91 l 1,12,13
 238 86 238 86 245 86 c 0,14,15
 290 86 290 86 290 120 c 0,16,17
 290 430 290 430 255 924 c 0,18,19
 252 967 252 967 244.5 1045 c 0,20,21
 228 1216.6 228 1216.6 228 1308 c 1,22,23
 231 1383 l 1,24,25
 231 1479 231 1479 160 1479 c 1,26,-1
 113 1477 l 1,27,28
 55 1477 55 1477 55 1521 c 0,29,30
 55 1575 55 1575 220 1575 c 0,31,32
 291.866666667 1575 291.866666667 1575 310 1541 c 1,33,34
 306 1534 306 1534 309.5 1498 c 128,-1,35
 313 1462 313 1462 313 1427 c 128,-1,36
 313 1392 313 1392 328.5 1267 c 128,-1,37
 344 1142 344 1142 344 1030 c 128,-1,38
 344 918 344 918 366.5 594.5 c 128,-1,39
 389 271 389 271 389 109 c 2,40,-1
 389 96 l 1,0,1
609 30 m 0,41,42
 609 166 609 166 672 437 c 128,-1,43
 735 708 735 708 818 1016.5 c 128,-1,44
 901 1325 901 1325 913 1390 c 128,-1,45
 925 1455 925 1455 928 1470 c 2,46,-1
 932.5 1492.5 l 2,47,48
 940.424657534 1532.12328767 940.424657534 1532.12328767 955.212328767 1542.56164384 c 128,-1,49
 970 1553 970 1553 985.5 1553 c 128,-1,50
 1001 1553 1001 1553 1016.5 1539 c 128,-1,51
 1032 1525 1032 1525 1032 1499.5 c 128,-1,52
 1032 1474 1032 1474 1025.5 1442 c 128,-1,53
 1019 1410 1019 1410 1007.5 1370 c 0,54,55
 964.607633588 1220.80916031 964.607633588 1220.80916031 866.803816794 753.904580153 c 128,-1,56
 769 287 769 287 760.5 237.5 c 128,-1,57
 752 188 752 188 744 151 c 128,-1,58
 736 114 736 114 722.5 67.5 c 0,59,60
 693.903225806 -31 693.903225806 -31 653 -31 c 1,61,62
 609 -2 609 -2 609 30 c 0,41,42
1475 4 m 1,63,-1
 1168 -15 l 1,64,65
 1140 -15 1140 -15 1118 2 c 128,-1,66
 1096 19 1096 19 1096 47 c 2,67,-1
 1096 55 l 1,68,69
 1135.42244224 103.883828383 1135.42244224 103.883828383 1163.71122112 187.941914191 c 128,-1,70
 1192 272 1192 272 1204 299 c 0,71,72
 1319 560 1319 560 1375.5 775 c 128,-1,73
 1432 990 1432 990 1432 1241 c 128,-1,74
 1432 1492 1432 1492 1334 1500 c 1,75,76
 1300.8490566 1481.58280922 1300.8490566 1481.58280922 1288.5 1402 c 0,77,78
 1276.86206897 1327 1276.86206897 1327 1229.43103448 1327 c 128,-1,79
 1182 1327 1182 1327 1182 1390 c 0,80,81
 1182 1489.17741935 1182 1489.17741935 1238 1551.5 c 0,82,83
 1269 1586 1269 1586 1310 1586 c 1,84,-1
 1310 1587 l 1,85,86
 1417.15217391 1587 1417.15217391 1587 1464.5 1521 c 0,87,88
 1499.75105485 1471.86216596 1499.75105485 1471.86216596 1508.87552743 1432.93108298 c 128,-1,89
 1518 1394 1518 1394 1521.5 1371 c 128,-1,90
 1525 1348 1525 1348 1527 1312 c 0,91,92
 1530 1258 1530 1258 1530 1201 c 0,93,94
 1530 1024 1530 1024 1485.5 800.5 c 128,-1,95
 1441 577 1441 577 1372 422 c 0,96,97
 1364 404 1364 404 1303 280 c 128,-1,98
 1242 156 1242 156 1220 86 c 1,99,100
 1340 107 1340 107 1449 107 c 1,101,-1
 1511 55 l 1,102,-1
 1475 4 l 1,63,-1
EndSplineSet
EndChar

StartChar: threequarters
Encoding: 190 190 124
Width: 1556
Flags: HW
LayerCount: 2
Fore
SplineSet
234 865 m 1,0,-1
 234 889 l 2,1,2
 234 920.244444444 234 920.244444444 275.5 969.122222222 c 0,3,4
 354 1061.57777778 354 1061.57777778 354 1150 c 0,5,6
 354 1229 354 1229 340 1313 c 0,7,8
 312.666666667 1477 312.666666667 1477 247 1477 c 0,9,10
 222 1477 222 1477 205.5 1458.5 c 128,-1,11
 189 1440 189 1440 182 1418.5 c 128,-1,12
 175 1397 175 1397 157.5 1378.5 c 128,-1,13
 140 1360 140 1360 114.5 1360 c 128,-1,14
 89 1360 89 1360 73 1376.5 c 128,-1,15
 57 1393 57 1393 53 1416 c 1,16,17
 81 1485 81 1485 131.5 1529 c 128,-1,18
 182 1573 182 1573 246 1573 c 128,-1,19
 310 1573 310 1573 357 1522 c 1,20,21
 401 1521 401 1521 428.5 1366 c 128,-1,22
 456 1211 456 1211 456 1152.5 c 128,-1,23
 456 1094 456 1094 446.5 1065 c 128,-1,24
 437 1036 437 1036 427.5 1020.5 c 128,-1,25
 418 1005 418 1005 395 972 c 128,-1,26
 372 939 372 939 364 927 c 1,27,28
 490.120274914 852.357388316 490.120274914 852.357388316 527 502 c 0,29,30
 535 426 535 426 535 371 c 128,-1,31
 535 316 535 316 533 280.5 c 128,-1,32
 531 245 531 245 524.5 197 c 128,-1,33
 518 149 518 149 503.5 114 c 128,-1,34
 489 79 489 79 466.5 46.5 c 0,35,36
 420.461538462 -20 420.461538462 -20 323 -20 c 0,37,38
 245.956521739 -20 245.956521739 -20 208.97826087 11.5 c 128,-1,39
 172 43 172 43 172 76 c 2,40,-1
 172 89 l 1,41,-1
 206 89 l 1,42,43
 217 87 217 87 234.5 85.5 c 128,-1,44
 252 84 252 84 261 83 c 0,45,46
 282 80.6666666667 282 80.6666666667 307 64 c 1,47,48
 432 69 432 69 432 294 c 0,49,50
 432 594.5 432 594.5 378 727.5 c 0,51,52
 351 794 351 794 307 849 c 1,53,54
 303 848 303 848 287.5 848 c 128,-1,55
 272 848 272 848 234 865 c 1,0,-1
604 30 m 0,56,57
 604 166 604 166 667 437 c 128,-1,58
 730 708 730 708 813 1016.5 c 128,-1,59
 896 1325 896 1325 908 1390 c 128,-1,60
 920 1455 920 1455 923 1470 c 2,61,-1
 927.5 1492.5 l 2,62,63
 935.424657534 1532.12328767 935.424657534 1532.12328767 950.212328767 1542.56164384 c 128,-1,64
 965 1553 965 1553 980.5 1553 c 128,-1,65
 996 1553 996 1553 1012 1539 c 128,-1,66
 1028 1525 1028 1525 1028 1499.5 c 128,-1,67
 1028 1474 1028 1474 1021.5 1442 c 128,-1,68
 1015 1410 1015 1410 1003 1370.5 c 0,69,70
 964.237851662 1242.90792839 964.237851662 1242.90792839 864.118925831 764.953964194 c 128,-1,71
 764 287 764 287 755.5 237.5 c 128,-1,72
 747 188 747 188 739 151 c 128,-1,73
 731 114 731 114 717.5 67.5 c 0,74,75
 688.903225806 -31 688.903225806 -31 648 -31 c 1,76,77
 604 -2 604 -2 604 30 c 0,56,57
1300 491 m 1,78,-1
 1191 480 l 1,79,-1
 1191 479 l 1,80,81
 1152 479 1152 479 1110 512 c 1,82,83
 1110 558 1110 558 1119 591 c 1,84,85
 1110 639 1110 639 1110 707.5 c 128,-1,86
 1110 776 1110 776 1125.5 917 c 128,-1,87
 1141 1058 1141 1058 1141 1124 c 2,88,-1
 1141 1503 l 2,89,90
 1141 1543 1141 1543 1180 1543 c 0,91,92
 1203 1543 1203 1543 1221.5 1529 c 128,-1,93
 1240 1515 1240 1515 1240 1492 c 1,94,-1
 1231 1333 l 1,95,96
 1231 1291 1231 1291 1239 1259 c 1,97,-1
 1239 1252 l 1,98,99
 1240 1243 1240 1243 1240 1149.5 c 128,-1,100
 1240 1056 1240 1056 1226 882.5 c 128,-1,101
 1212 709 1212 709 1212 653.5 c 128,-1,102
 1212 598 1212 598 1215 576 c 1,103,104
 1248 577 1248 577 1288 587 c 1,105,106
 1286.24534466 934.421757596 1286.24534466 934.421757596 1271.62267233 1032.2108788 c 128,-1,107
 1257 1130 1257 1130 1257 1155.5 c 128,-1,108
 1257 1181 1257 1181 1277 1193.5 c 128,-1,109
 1297 1206 1297 1206 1320 1206 c 1,110,-1
 1362 1170 l 1,111,-1
 1362 1041 l 2,112,113
 1362 757.2 1362 757.2 1388 596 c 1,114,-1
 1447 601 l 1,115,116
 1508 601 1508 601 1508 557 c 0,117,118
 1508 527 1508 527 1490.5 517 c 128,-1,119
 1473 507 1473 507 1433 507 c 128,-1,120
 1393 507 1393 507 1393 489 c 0,121,122
 1393 190 1393 190 1408 155 c 1,123,124
 1404 131 1404 131 1404 111.5 c 128,-1,125
 1404 92 1404 92 1414 76 c 1,126,-1
 1414 39 l 2,127,128
 1414 -38 1414 -38 1365 -38 c 0,129,130
 1334 -38 1334 -38 1319 -6.5 c 128,-1,131
 1304 25 1304 25 1304 59 c 2,132,-1
 1304 66 l 1,133,134
 1311 90 1311 90 1311 140 c 1,135,-1
 1297 339 l 1,136,137
 1297 393 1297 393 1304 428 c 1,138,139
 1304 463 1304 463 1300 491 c 1,78,-1
EndSplineSet
EndChar

StartChar: questiondown
Encoding: 191 191 125
Width: 1161
Flags: HW
LayerCount: 2
Fore
SplineSet
670 1298 m 2,0,1
 670 1525 670 1525 566 1525 c 0,2,3
 505 1525 505 1525 483 1494.5 c 128,-1,4
 461 1464 461 1464 461 1407 c 1,5,-1
 469 1263 l 1,6,7
 469 1090 469 1090 492 1000 c 1,8,9
 670 1075.70114943 670 1075.70114943 670 1272 c 2,10,-1
 670 1298 l 2,0,1
534 210 m 0,11,12
 534 143 534 143 479 143 c 256,13,14
 451 143 451 143 428.5 161.5 c 128,-1,15
 406 180 406 180 406 215.5 c 128,-1,16
 406 251 406 251 389 338.5 c 128,-1,17
 372 426 372 426 372 470 c 2,18,-1
 372 1454 l 2,19,20
 372 1564.28571429 372 1564.28571429 417.5 1600.5 c 0,21,22
 460.846153846 1635 460.846153846 1635 560 1635 c 0,23,24
 787 1635 787 1635 787 1270 c 0,25,26
 787 1101.27027027 787 1101.27027027 704.5 1021 c 0,27,28
 686 1003 686 1003 670.5 990.5 c 128,-1,29
 655 978 655 978 652 969 c 1,30,31
 655 893 655 893 827 314 c 1,32,33
 827 292 827 292 844.5 255.5 c 128,-1,34
 862 219 862 219 862 200 c 128,-1,35
 862 181 862 181 843 162 c 128,-1,36
 824 143 824 143 807 143 c 0,37,38
 742.995192308 143 742.995192308 143 677.5 382 c 0,39,40
 639.690544413 519.971346705 639.690544413 519.971346705 599.345272206 702.485673352 c 128,-1,41
 559 885 559 885 548 914 c 1,42,-1
 495 914 l 1,43,44
 490 834 490 834 490 766 c 128,-1,45
 490 698 490 698 512 503 c 128,-1,46
 534 308 534 308 534 210 c 0,11,12
624 1832 m 0,47,48
 211 1832 211 1832 211 954 c 0,49,50
 211 180 211 180 345 27 c 0,51,52
 365 4 365 4 410 -25.5 c 128,-1,53
 455 -55 455 -55 467 -64 c 1,54,-1
 526 -64 l 1,55,-1
 526 -84 l 1,56,57
 761.542957177 -81.1621330461 761.542957177 -81.1621330461 866 132.5 c 0,58,59
 963 330.909090909 963 330.909090909 963 706 c 0,60,61
 963 989 963 989 938.5 1219 c 128,-1,62
 914 1449 914 1449 842 1655 c 1,63,-1
 842 1670 l 1,64,65
 811 1719 811 1719 740.5 1775.5 c 128,-1,66
 670 1832 670 1832 624 1832 c 0,47,48
784.5 -150 m 128,-1,68
 709 -190 709 -190 609.5 -190 c 128,-1,69
 510 -190 510 -190 428.5 -156.5 c 128,-1,70
 347 -123 347 -123 293.5 -72 c 128,-1,71
 240 -21 240 -21 201 61.5 c 128,-1,72
 162 144 162 144 141.5 220 c 128,-1,73
 121 296 121 296 109.5 402.5 c 0,74,75
 93 555.304347826 93 555.304347826 93 670.152173913 c 2,76,-1
 93 833 l 1,77,78
 90 885 90 885 92 948.5 c 128,-1,79
 94 1012 94 1012 94.5 1082 c 128,-1,80
 95 1152 95 1152 103 1226 c 128,-1,81
 111 1300 111 1300 121 1373 c 128,-1,82
 131 1446 131 1446 152 1516.5 c 128,-1,83
 173 1587 173 1587 199 1650 c 128,-1,84
 225 1713 225 1713 265 1765.5 c 128,-1,85
 305 1818 305 1818 353 1856.5 c 0,86,87
 454.61038961 1938 454.61038961 1938 609 1938 c 0,88,89
 694 1938 694 1938 772.5 1886 c 128,-1,90
 851 1834 851 1834 907 1755 c 1,91,92
 999.21169687 1699.67298188 999.21169687 1699.67298188 1052.5 1188.5 c 0,93,94
 1077 953.481481481 1077 953.481481481 1077 829.240740741 c 128,-1,95
 1077 705 1077 705 1076 643.5 c 128,-1,96
 1075 582 1075 582 1066 464.5 c 128,-1,97
 1057 347 1057 347 1040.5 270.5 c 128,-1,98
 1024 194 1024 194 990 98.5 c 128,-1,99
 956 3 956 3 908 -53.5 c 128,-1,67
 860 -110 860 -110 784.5 -150 c 128,-1,68
EndSplineSet
EndChar

StartChar: AE
Encoding: 198 198 132
Width: 919
Flags: HW
LayerCount: 2
Fore
SplineSet
571 82 m 1,0,-1
 796 103 l 1,1,2
 821 103 821 103 842.5 89.5 c 128,-1,3
 864 76 864 76 864 53 c 0,4,5
 864 -12 864 -12 620 -12 c 2,6,-1
 590 -12 l 2,7,8
 574 -12 574 -12 548 -26.5 c 128,-1,9
 522 -41 522 -41 509 -43 c 1,10,-1
 465 2 l 1,11,-1
 465 3 l 1,12,13
 483 190 483 190 483 253 c 1,14,-1
 473 633 l 1,15,16
 459 632 459 632 431 630.5 c 128,-1,17
 403 629 403 629 386 627.5 c 0,18,19
 335.751381215 623.066298343 335.751381215 623.066298343 303 611 c 1,20,-1
 202 226 l 2,21,22
 200 217 200 217 191.5 172 c 128,-1,23
 183 127 183 127 175 94 c 128,-1,24
 167 61 167 61 148.5 31 c 128,-1,25
 130 1 130 1 110.5 1 c 128,-1,26
 91 1 91 1 79 16 c 128,-1,27
 67 31 67 31 67 73.5 c 128,-1,28
 67 116 67 116 93 245 c 128,-1,29
 119 374 119 374 167.5 548 c 128,-1,30
 216 722 216 722 254.5 853.5 c 128,-1,31
 293 985 293 985 349 1165.5 c 128,-1,32
 405 1346 405 1346 410.5 1364.5 c 128,-1,33
 416 1383 416 1383 421.5 1403 c 128,-1,34
 427 1423 427 1423 429 1430.5 c 128,-1,35
 431 1438 431 1438 437.5 1456.5 c 128,-1,36
 444 1475 444 1475 449 1484 c 128,-1,37
 454 1493 454 1493 463 1506.5 c 128,-1,38
 472 1520 472 1520 481 1526.5 c 0,39,40
 505.230769231 1544 505.230769231 1544 528 1544 c 1,41,-1
 684 1554 l 1,42,43
 771 1554 771 1554 771 1498 c 2,44,-1
 771 1450 l 1,45,46
 647 1450 647 1450 558 1440 c 1,47,-1
 572 1166 l 1,48,49
 572 1091 572 1091 569 941 c 128,-1,50
 566 791 566 791 566 716 c 1,51,52
 584 718 584 718 634 726.5 c 128,-1,53
 684 735 684 735 712 735 c 1,54,-1
 764 687 l 1,55,56
 764 621 764 621 642 621 c 2,57,-1
 565 621 l 1,58,-1
 571 82 l 1,0,-1
470 706 m 1,59,60
 477 965 477 965 477 1102.5 c 128,-1,61
 477 1240 477 1240 475 1283 c 1,62,63
 369 917 369 917 323 688 c 1,64,65
 416 694 416 694 470 706 c 1,59,60
EndSplineSet
EndChar

StartChar: Ccedilla
Encoding: 199 199 133
Width: 684
Flags: HW
LayerCount: 2
Fore
SplineSet
205 998 m 1,0,-1
 187 855 l 1,1,2
 187 748 187 748 214.5 473.5 c 128,-1,3
 242 199 242 199 268 159 c 0,4,5
 312 92 312 92 408 92 c 128,-1,6
 504 92 504 92 554 151 c 1,7,8
 589 151 589 151 619 161 c 1,9,-1
 619 134 l 2,10,11
 619 -4 619 -4 466 -28 c 1,12,13
 457 -82 457 -82 456 -123 c 1,14,15
 534 -138 534 -138 569.5 -201 c 128,-1,16
 605 -264 605 -264 605 -340.5 c 128,-1,17
 605 -417 605 -417 549 -476.5 c 128,-1,18
 493 -536 493 -536 438.5 -536 c 128,-1,19
 384 -536 384 -536 349 -515.5 c 128,-1,20
 314 -495 314 -495 314 -467 c 128,-1,21
 314 -439 314 -439 328 -426 c 128,-1,22
 342 -413 342 -413 369.5 -413 c 128,-1,23
 397 -413 397 -413 426 -433 c 1,24,25
 441 -431 441 -431 456.5 -410 c 128,-1,26
 472 -389 472 -389 472 -373.5 c 128,-1,27
 472 -358 472 -358 468.5 -341 c 128,-1,28
 465 -324 465 -324 458 -303 c 128,-1,29
 451 -282 451 -282 449 -272 c 1,30,-1
 484 -307 l 1,31,-1
 484 -297 l 2,32,33
 484 -263 484 -263 467 -246 c 1,34,35
 434 -251 434 -251 413.5 -251 c 128,-1,36
 393 -251 393 -251 377.5 -238.5 c 128,-1,37
 362 -226 362 -226 338 -189 c 1,38,39
 357 -150 357 -150 357 -76 c 2,40,-1
 357 -30 l 1,41,42
 297 -17 297 -17 242 25.5 c 128,-1,43
 187 68 187 68 154.5 139.5 c 128,-1,44
 122 211 122 211 102 514 c 128,-1,45
 82 817 82 817 82 985 c 128,-1,46
 82 1153 82 1153 96 1225 c 1,47,48
 90 1258 90 1258 90 1289 c 0,49,50
 90 1415 90 1415 184 1489.5 c 128,-1,51
 278 1564 278 1564 416 1564 c 0,52,53
 465 1564 465 1564 512 1536.5 c 128,-1,54
 559 1509 559 1509 559 1464 c 0,55,56
 559 1442 559 1442 542 1430 c 128,-1,57
 525 1418 525 1418 493.5 1418 c 128,-1,58
 462 1418 462 1418 449 1443 c 1,59,-1
 449 1439 l 1,60,-1
 417 1439 l 1,61,-1
 417 1447 l 1,62,63
 258.896551724 1447 258.896551724 1447 219 1313.5 c 0,64,65
 199 1246.57692308 199 1246.57692308 199 1139 c 1,66,-1
 205 998 l 1,0,-1
EndSplineSet
EndChar

StartChar: Egrave
Encoding: 200 200 134
Width: 672
Flags: HW
LayerCount: 2
Fore
SplineSet
482 749 m 2,0,-1
 431 751 l 2,1,2
 408 751 408 751 395 736 c 1,3,-1
 395 104 l 1,4,5
 500 110 500 110 503 110 c 0,6,7
 617 110 617 110 617 56 c 2,8,-1
 617 49 l 1,9,10
 603 21 603 21 569.5 6 c 128,-1,11
 536 -9 536 -9 511 -11 c 128,-1,12
 486 -13 486 -13 445 -13 c 2,13,-1
 381 -13 l 2,14,15
 302.793103448 -13 302.793103448 -13 285.5 16.5 c 0,16,17
 277 31 277 31 277 54 c 2,18,-1
 277 1532 l 1,19,-1
 454 1550 l 1,20,21
 485 1550 485 1550 516.5 1531.5 c 128,-1,22
 548 1513 548 1513 548 1483 c 0,23,24
 548 1422 548 1422 455 1422 c 1,25,-1
 396 1424 l 2,26,27
 381 1424 381 1424 374 1423 c 1,28,-1
 390 1085 l 1,29,30
 390 1044 390 1044 385 965.5 c 128,-1,31
 380 887 380 887 380 851 c 1,32,33
 391 853 391 853 410 858 c 0,34,35
 451.8 869 451.8 869 475.4 869 c 128,-1,36
 499 869 499 869 517.5 852 c 128,-1,37
 536 835 536 835 536 811 c 128,-1,38
 536 787 536 787 521 768 c 128,-1,39
 506 749 506 749 482 749 c 2,0,-1
168 1763 m 1,40,41
 148 1761 148 1761 133 1761 c 0,42,43
 44 1761 44 1761 44 1823 c 0,44,45
 44 1874 44 1874 72 1891 c 1,46,47
 141 1891 141 1891 159 1882 c 128,-1,48
 177 1873 177 1873 183.5 1869 c 128,-1,49
 190 1865 190 1865 230 1852 c 128,-1,50
 270 1839 270 1839 295.5 1829 c 128,-1,51
 321 1819 321 1819 355.5 1803 c 0,52,53
 426 1770.30434783 426 1770.30434783 426 1730 c 0,54,55
 426 1713 426 1713 411 1701.5 c 128,-1,56
 396 1690 396 1690 382.5 1690 c 128,-1,57
 369 1690 369 1690 348.5 1696 c 128,-1,58
 328 1702 328 1702 300.5 1712 c 128,-1,59
 273 1722 273 1722 250.5 1730.5 c 128,-1,60
 228 1739 228 1739 201 1750 c 128,-1,61
 174 1761 174 1761 168 1763 c 1,40,41
EndSplineSet
EndChar

StartChar: Eacute
Encoding: 201 201 135
Width: 528
Flags: HW
LayerCount: 2
Fore
SplineSet
211 1690 m 1,0,1
 142 1690 142 1690 142 1744 c 2,2,-1
 142 1746 l 1,3,4
 143.687481237 1786.49954968 143.687481237 1786.49954968 323.5 1913.5 c 0,5,6
 395 1964 395 1964 410 1978 c 1,7,8
 488 1978 488 1978 488 1922 c 0,9,10
 488 1921 488 1921 479 1873 c 1,11,12
 413 1846 413 1846 336.5 1793.5 c 128,-1,13
 260 1741 260 1741 211 1690 c 1,0,1
315 752 m 2,14,-1
 264 754 l 2,15,16
 240 754 240 754 228 739 c 1,17,-1
 228 107 l 1,18,19
 333 113 333 113 336 113 c 0,20,21
 450 113 450 113 450 59 c 2,22,-1
 450 52 l 1,23,24
 436 24 436 24 402.5 9 c 128,-1,25
 369 -6 369 -6 344 -8 c 128,-1,26
 319 -10 319 -10 278 -10 c 2,27,-1
 214 -10 l 2,28,29
 135.793103448 -10 135.793103448 -10 118.5 19.5 c 0,30,31
 110 34 110 34 110 57 c 2,32,-1
 110 1535 l 1,33,-1
 287 1553 l 1,34,35
 318 1553 318 1553 349.5 1534.5 c 128,-1,36
 381 1516 381 1516 381 1486 c 0,37,38
 381 1425 381 1425 288 1425 c 1,39,-1
 229 1427 l 2,40,41
 214 1427 214 1427 207 1426 c 1,42,-1
 223 1088 l 1,43,44
 223 1047 223 1047 218 968.5 c 128,-1,45
 213 890 213 890 213 854 c 1,46,47
 224 856 224 856 243 861 c 0,48,49
 284.8 872 284.8 872 308.4 872 c 128,-1,50
 332 872 332 872 350.5 855 c 128,-1,51
 369 838 369 838 369 814 c 128,-1,52
 369 790 369 790 354 771 c 128,-1,53
 339 752 339 752 315 752 c 2,14,-1
EndSplineSet
EndChar

StartChar: Ecircumflex
Encoding: 202 202 136
Width: 510
Flags: HW
LayerCount: 2
Fore
SplineSet
320 750 m 2,0,-1
 269 752 l 2,1,2
 245 752 245 752 233 737 c 1,3,-1
 233 105 l 1,4,5
 338 111 338 111 341 111 c 0,6,7
 455 111 455 111 455 57 c 2,8,-1
 455 50 l 1,9,10
 441 22 441 22 407.5 7 c 128,-1,11
 374 -8 374 -8 349 -10 c 128,-1,12
 324 -12 324 -12 283 -12 c 2,13,-1
 219 -12 l 2,14,15
 140.793103448 -12 140.793103448 -12 123.5 17.5 c 0,16,17
 115 32 115 32 115 55 c 2,18,-1
 115 1533 l 1,19,-1
 292 1551 l 1,20,21
 323 1551 323 1551 354.5 1532.5 c 128,-1,22
 386 1514 386 1514 386 1484 c 0,23,24
 386 1423 386 1423 293 1423 c 1,25,-1
 234 1425 l 2,26,27
 219 1425 219 1425 212 1424 c 1,28,-1
 228 1086 l 1,29,30
 228 1045 228 1045 223 966.5 c 128,-1,31
 218 888 218 888 218 852 c 1,32,33
 229 854 229 854 248 859 c 0,34,35
 289.8 870 289.8 870 313.4 870 c 128,-1,36
 337 870 337 870 355.5 853 c 128,-1,37
 374 836 374 836 374 812 c 128,-1,38
 374 788 374 788 359 769 c 128,-1,39
 344 750 344 750 320 750 c 2,0,-1
361 1766 m 1,40,-1
 379 1741 l 1,41,42
 379 1718 379 1718 358.5 1704.5 c 128,-1,43
 338 1691 338 1691 314 1691 c 2,44,-1
 270 1691 l 1,45,46
 253 1862 253 1862 230 1957 c 1,47,48
 222 1933 222 1933 208 1887.5 c 128,-1,49
 194 1842 194 1842 185.5 1817 c 0,50,51
 162.217391304 1748.52173913 162.217391304 1748.52173913 117 1692 c 1,52,-1
 50 1740 l 1,53,54
 54 1778 54 1778 86 1868 c 128,-1,55
 118 1958 118 1958 165.5 2040.5 c 128,-1,56
 213 2123 213 2123 247 2123 c 0,57,58
 299 2123 299 2123 299 2056 c 0,59,60
 299 2011 299 2011 330 1932 c 128,-1,61
 361 1853 361 1853 361 1818 c 2,62,-1
 361 1766 l 1,40,-1
EndSplineSet
EndChar

StartChar: Edieresis
Encoding: 203 203 137
Width: 648
Flags: HW
LayerCount: 2
Fore
SplineSet
431 749 m 2,0,-1
 380 751 l 2,1,2
 356 751 356 751 344 736 c 1,3,-1
 344 104 l 1,4,5
 449 110 449 110 452 110 c 0,6,7
 566 110 566 110 566 56 c 2,8,-1
 566 49 l 1,9,10
 552 21 552 21 518.5 6 c 128,-1,11
 485 -9 485 -9 460 -11 c 128,-1,12
 435 -13 435 -13 394 -13 c 2,13,-1
 330 -13 l 2,14,15
 251.793103448 -13 251.793103448 -13 234.5 16.5 c 0,16,17
 226 31 226 31 226 54 c 2,18,-1
 226 1532 l 1,19,-1
 403 1550 l 1,20,21
 434 1550 434 1550 465.5 1531.5 c 128,-1,22
 497 1513 497 1513 497 1483 c 0,23,24
 497 1422 497 1422 404 1422 c 1,25,-1
 345 1424 l 2,26,27
 330 1424 330 1424 323 1423 c 1,28,-1
 339 1085 l 1,29,30
 339 1044 339 1044 334 965.5 c 128,-1,31
 329 887 329 887 329 851 c 1,32,33
 340 853 340 853 359 858 c 0,34,35
 400.8 869 400.8 869 424.4 869 c 128,-1,36
 448 869 448 869 466.5 852 c 128,-1,37
 485 835 485 835 485 811 c 128,-1,38
 485 787 485 787 470 768 c 128,-1,39
 455 749 455 749 431 749 c 2,0,-1
482 1711 m 128,-1,41
 463 1732 463 1732 463 1760 c 128,-1,42
 463 1788 463 1788 485 1811 c 128,-1,43
 507 1834 507 1834 535 1834 c 128,-1,44
 563 1834 563 1834 583.5 1811.5 c 128,-1,45
 604 1789 604 1789 604 1759.5 c 128,-1,46
 604 1730 604 1730 581 1710 c 128,-1,47
 558 1690 558 1690 529.5 1690 c 128,-1,40
 501 1690 501 1690 482 1711 c 128,-1,41
158.5 1711 m 128,-1,49
 133 1690 133 1690 104 1690 c 128,-1,50
 75 1690 75 1690 59 1709.5 c 128,-1,51
 43 1729 43 1729 43 1758.5 c 128,-1,52
 43 1788 43 1788 63 1809.5 c 128,-1,53
 83 1831 83 1831 112.5 1831 c 128,-1,54
 142 1831 142 1831 163 1811 c 128,-1,55
 184 1791 184 1791 184 1761.5 c 128,-1,48
 184 1732 184 1732 158.5 1711 c 128,-1,49
EndSplineSet
EndChar

StartChar: Igrave
Encoding: 204 204 138
Width: 681
Flags: HW
LayerCount: 2
Fore
SplineSet
572 7 m 1,0,-1
 498 17 l 1,1,-1
 498 18 l 1,2,-1
 461 18 l 2,3,4
 451 18 451 18 434.5 12.5 c 0,5,6
 403.75 2.25 403.75 2.25 385 11 c 1,7,8
 256 11 256 11 256 61.5 c 128,-1,9
 256 112 256 112 318 112 c 1,10,-1
 361 109 l 1,11,12
 391 109 391 109 391 157 c 0,13,14
 391 315 391 315 372 630.5 c 128,-1,15
 353 946 353 946 353 1104 c 1,16,-1
 357 1313 l 1,17,18
 357 1379 357 1379 352 1427 c 1,19,20
 325 1418 325 1418 304 1418 c 0,21,22
 256 1418 256 1418 256 1467 c 0,23,24
 256 1492 256 1492 287 1510.5 c 128,-1,25
 318 1529 318 1529 364 1537 c 0,26,27
 450.25 1552 450.25 1552 491.625 1552 c 128,-1,28
 533 1552 533 1552 551 1535.5 c 128,-1,29
 569 1519 569 1519 569 1496.5 c 128,-1,30
 569 1474 569 1474 555.5 1457.5 c 128,-1,31
 542 1441 542 1441 521 1441 c 2,32,-1
 485 1442 l 2,33,34
 465 1442 465 1442 455.5 1433.5 c 128,-1,35
 446 1425 446 1425 446 1400 c 0,36,37
 446 1200 446 1200 472 801 c 128,-1,38
 498 402 498 402 498 202 c 2,39,-1
 498 123 l 1,40,41
 519 126 519 126 538 126 c 0,42,43
 623 126 623 126 623 54 c 2,44,-1
 623 42 l 1,45,-1
 572 7 l 1,0,-1
169 1763 m 1,46,47
 149 1761 149 1761 134 1761 c 0,48,49
 45 1761 45 1761 45 1823 c 0,50,51
 45 1874 45 1874 73 1891 c 1,52,53
 142 1891 142 1891 160 1882 c 128,-1,54
 178 1873 178 1873 184.5 1869 c 128,-1,55
 191 1865 191 1865 231 1852 c 128,-1,56
 271 1839 271 1839 296.5 1829 c 128,-1,57
 322 1819 322 1819 356.5 1803 c 0,58,59
 427 1770.30434783 427 1770.30434783 427 1730 c 0,60,61
 427 1713 427 1713 412 1701.5 c 128,-1,62
 397 1690 397 1690 383.5 1690 c 128,-1,63
 370 1690 370 1690 349.5 1696 c 128,-1,64
 329 1702 329 1702 301.5 1712 c 128,-1,65
 274 1722 274 1722 251.5 1730.5 c 128,-1,66
 229 1739 229 1739 202 1750 c 128,-1,67
 175 1761 175 1761 169 1763 c 1,46,47
EndSplineSet
EndChar

StartChar: Iacute
Encoding: 205 205 139
Width: 502
Flags: HW
LayerCount: 2
Fore
SplineSet
185 1690 m 1,0,1
 116 1690 116 1690 116 1744 c 2,2,-1
 116 1746 l 1,3,4
 117.687481237 1786.49954968 117.687481237 1786.49954968 297.5 1913.5 c 0,5,6
 369 1964 369 1964 384 1978 c 1,7,8
 462 1978 462 1978 462 1922 c 0,9,10
 462 1921 462 1921 453 1873 c 1,11,12
 387 1846 387 1846 310.5 1793.5 c 128,-1,13
 234 1741 234 1741 185 1690 c 1,0,1
377 10 m 1,14,-1
 303 20 l 1,15,-1
 303 21 l 1,16,-1
 266 21 l 2,17,18
 256 21 256 21 239.5 15.5 c 0,19,20
 208.75 5.25 208.75 5.25 190 14 c 1,21,22
 61 14 61 14 61 64.5 c 128,-1,23
 61 115 61 115 123 115 c 1,24,-1
 166 112 l 1,25,26
 196 112 196 112 196 160 c 0,27,28
 196 318 196 318 177 633.5 c 128,-1,29
 158 949 158 949 158 1107 c 1,30,-1
 162 1316 l 1,31,32
 162 1382 162 1382 157 1430 c 1,33,34
 130 1421 130 1421 109 1421 c 0,35,36
 61 1421 61 1421 61 1470 c 0,37,38
 61 1495 61 1495 92 1513.5 c 128,-1,39
 123 1532 123 1532 169 1540 c 0,40,41
 255.25 1555 255.25 1555 296.625 1555 c 128,-1,42
 338 1555 338 1555 356 1538.5 c 128,-1,43
 374 1522 374 1522 374 1499.5 c 128,-1,44
 374 1477 374 1477 360.5 1460.5 c 128,-1,45
 347 1444 347 1444 326 1444 c 2,46,-1
 290 1445 l 2,47,48
 270 1445 270 1445 260.5 1436.5 c 128,-1,49
 251 1428 251 1428 251 1403 c 0,50,51
 251 1203 251 1203 277 804 c 128,-1,52
 303 405 303 405 303 205 c 2,53,-1
 303 126 l 1,54,55
 324 129 324 129 343 129 c 0,56,57
 428 129 428 129 428 57 c 2,58,-1
 428 45 l 1,59,-1
 377 10 l 1,14,-1
EndSplineSet
EndChar

StartChar: Icircumflex
Encoding: 206 206 140
Width: 512
Flags: HW
LayerCount: 2
Fore
SplineSet
403 8 m 1,0,-1
 329 18 l 1,1,-1
 329 19 l 1,2,-1
 292 19 l 2,3,4
 282 19 282 19 265.5 13.5 c 0,5,6
 234.75 3.25 234.75 3.25 216 12 c 1,7,8
 87 12 87 12 87 62.5 c 128,-1,9
 87 113 87 113 149 113 c 1,10,-1
 192 110 l 1,11,12
 222 110 222 110 222 158 c 0,13,14
 222 316 222 316 203 631.5 c 128,-1,15
 184 947 184 947 184 1105 c 1,16,-1
 188 1314 l 1,17,18
 188 1380 188 1380 183 1428 c 1,19,20
 156 1419 156 1419 135 1419 c 0,21,22
 87 1419 87 1419 87 1468 c 0,23,24
 87 1493 87 1493 118 1511.5 c 128,-1,25
 149 1530 149 1530 195 1538 c 0,26,27
 281.25 1553 281.25 1553 322.625 1553 c 128,-1,28
 364 1553 364 1553 382 1536.5 c 128,-1,29
 400 1520 400 1520 400 1497.5 c 128,-1,30
 400 1475 400 1475 386.5 1458.5 c 128,-1,31
 373 1442 373 1442 352 1442 c 2,32,-1
 316 1443 l 2,33,34
 296 1443 296 1443 286.5 1434.5 c 128,-1,35
 277 1426 277 1426 277 1401 c 0,36,37
 277 1201 277 1201 303 802 c 128,-1,38
 329 403 329 403 329 203 c 2,39,-1
 329 124 l 1,40,41
 350 127 350 127 369 127 c 0,42,43
 454 127 454 127 454 55 c 2,44,-1
 454 43 l 1,45,-1
 403 8 l 1,0,-1
354 1767 m 1,46,-1
 372 1742 l 1,47,48
 372 1719 372 1719 351.5 1705.5 c 128,-1,49
 331 1692 331 1692 307 1692 c 2,50,-1
 263 1692 l 1,51,52
 246 1863 246 1863 223 1958 c 1,53,54
 215 1934 215 1934 201 1888.5 c 128,-1,55
 187 1843 187 1843 178.5 1818 c 0,56,57
 155.217391304 1749.52173913 155.217391304 1749.52173913 110 1693 c 1,58,-1
 43 1741 l 1,59,60
 47 1779 47 1779 79 1869 c 128,-1,61
 111 1959 111 1959 158.5 2041.5 c 128,-1,62
 206 2124 206 2124 240 2124 c 0,63,64
 292 2124 292 2124 292 2057 c 0,65,66
 292 2012 292 2012 323 1933 c 128,-1,67
 354 1854 354 1854 354 1819 c 2,68,-1
 354 1767 l 1,46,-1
EndSplineSet
EndChar

StartChar: Idieresis
Encoding: 207 207 141
Width: 650
Flags: HW
LayerCount: 2
Fore
SplineSet
522 7 m 1,0,-1
 448 17 l 1,1,-1
 448 18 l 1,2,-1
 411 18 l 2,3,4
 401 18 401 18 384.5 12.5 c 0,5,6
 353.75 2.25 353.75 2.25 335 11 c 1,7,8
 206 11 206 11 206 61.5 c 128,-1,9
 206 112 206 112 268 112 c 1,10,-1
 311 109 l 1,11,12
 341 109 341 109 341 157 c 0,13,14
 341 315 341 315 322 630.5 c 128,-1,15
 303 946 303 946 303 1104 c 1,16,-1
 307 1313 l 1,17,18
 307 1379 307 1379 302 1427 c 1,19,20
 275 1418 275 1418 254 1418 c 0,21,22
 206 1418 206 1418 206 1467 c 0,23,24
 206 1492 206 1492 237 1510.5 c 128,-1,25
 268 1529 268 1529 314 1537 c 0,26,27
 400.25 1552 400.25 1552 441.625 1552 c 128,-1,28
 483 1552 483 1552 501 1535.5 c 128,-1,29
 519 1519 519 1519 519 1496.5 c 128,-1,30
 519 1474 519 1474 505.5 1457.5 c 128,-1,31
 492 1441 492 1441 471 1441 c 2,32,-1
 435 1442 l 2,33,34
 415 1442 415 1442 405.5 1433.5 c 128,-1,35
 396 1425 396 1425 396 1400 c 0,36,37
 396 1200 396 1200 422 801 c 128,-1,38
 448 402 448 402 448 202 c 2,39,-1
 448 123 l 1,40,41
 469 126 469 126 488 126 c 0,42,43
 573 126 573 126 573 54 c 2,44,-1
 573 42 l 1,45,-1
 522 7 l 1,0,-1
484 1711 m 128,-1,47
 465 1732 465 1732 465 1760 c 128,-1,48
 465 1788 465 1788 487 1811 c 128,-1,49
 509 1834 509 1834 537 1834 c 128,-1,50
 565 1834 565 1834 585.5 1811.5 c 128,-1,51
 606 1789 606 1789 606 1759.5 c 128,-1,52
 606 1730 606 1730 583 1710 c 128,-1,53
 560 1690 560 1690 531.5 1690 c 128,-1,46
 503 1690 503 1690 484 1711 c 128,-1,47
160.5 1711 m 128,-1,55
 135 1690 135 1690 106 1690 c 128,-1,56
 77 1690 77 1690 61 1709.5 c 128,-1,57
 45 1729 45 1729 45 1758.5 c 128,-1,58
 45 1788 45 1788 65 1809.5 c 128,-1,59
 85 1831 85 1831 114.5 1831 c 128,-1,60
 144 1831 144 1831 165 1811 c 128,-1,61
 186 1791 186 1791 186 1761.5 c 128,-1,54
 186 1732 186 1732 160.5 1711 c 128,-1,55
EndSplineSet
EndChar

StartChar: Eth
Encoding: 208 208 142
Width: 868
Flags: HW
LayerCount: 2
Fore
SplineSet
320 1141 m 1,0,-1
 320 1140 l 1,1,2
 324 991 324 991 348 679 c 128,-1,3
 372 367 372 367 375 204 c 1,4,5
 626.723313407 424.257899231 626.723313407 424.257899231 653.5 804 c 0,6,7
 659 882 659 882 659 968 c 128,-1,8
 659 1054 659 1054 658.5 1105 c 128,-1,9
 658 1156 658 1156 654 1240 c 128,-1,10
 650 1324 650 1324 643 1388 c 128,-1,11
 636 1452 636 1452 622.5 1536 c 128,-1,12
 609 1620 609 1620 590 1684 c 128,-1,13
 571 1748 571 1748 541.5 1818 c 128,-1,14
 512 1888 512 1888 475.5 1938.5 c 0,15,16
 393.11047706 2052.49098379 393.11047706 2052.49098379 277 2097 c 1,17,-1
 277 1829 l 2,18,19
 277 1460 277 1460 319 1252 c 1,20,21
 352 1254 352 1254 430.5 1264 c 128,-1,22
 509 1274 509 1274 545 1274 c 128,-1,23
 581 1274 581 1274 599 1249 c 128,-1,24
 617 1224 617 1224 619 1194 c 1,25,-1
 585 1153 l 1,26,27
 416 1153 416 1153 320 1141 c 1,0,-1
47 1184 m 0,28,29
 47 1244 47 1244 172 1244 c 2,30,-1
 203 1244 l 1,31,32
 202 1392 202 1392 180.5 1695 c 128,-1,33
 159 1998 159 1998 159 2154 c 0,34,35
 159 2176 159 2176 176 2198 c 128,-1,36
 193 2220 193 2220 215 2220 c 0,37,38
 280 2220 280 2220 387 2151.5 c 128,-1,39
 494 2083 494 2083 576.5 1989 c 128,-1,40
 659 1895 659 1895 659 1831 c 0,41,42
 659 1627.46511628 659 1627.46511628 717.5 1320 c 128,-1,43
 776 1012.53488372 776 1012.53488372 776 794.26744186 c 128,-1,44
 776 576 776 576 658 362 c 128,-1,45
 540 148 540 148 340 45 c 1,46,-1
 340 47 l 1,47,48
 280 65 280 65 258 107 c 1,49,50
 258 792.5 258 792.5 206 1137 c 1,51,52
 122 1125 122 1125 98.5 1125 c 128,-1,53
 75 1125 75 1125 61 1142.5 c 128,-1,54
 47 1160 47 1160 47 1184 c 0,28,29
EndSplineSet
EndChar

StartChar: Ntilde
Encoding: 209 209 143
Width: 793
Flags: HW
LayerCount: 2
Fore
SplineSet
676 1444 m 2,0,-1
 668 687 l 1,1,-1
 668 61 l 2,2,3
 668 26 668 26 645 2.5 c 128,-1,4
 622 -21 622 -21 588 -21 c 128,-1,5
 554 -21 554 -21 538.5 -5.5 c 128,-1,6
 523 10 523 10 518.5 27 c 128,-1,7
 514 44 514 44 509.5 73.5 c 128,-1,8
 505 103 505 103 491 154 c 128,-1,9
 477 205 477 205 417.5 399.5 c 0,10,11
 297.454068614 791.91905302 297.454068614 791.91905302 254 1037 c 0,12,13
 253 1044 253 1044 252 1061 c 0,14,15
 249.9 1096.7 249.9 1096.7 238 1112 c 1,16,17
 239 1154 239 1154 219.5 1219.5 c 128,-1,18
 200 1285 200 1285 197 1298 c 1,19,-1
 197 2 l 1,20,-1
 125 2 l 1,21,-1
 125 40 l 1,22,23
 129 55 129 55 124 103 c 128,-1,24
 119 151 119 151 119 217 c 128,-1,25
 119 283 119 283 106 521 c 128,-1,26
 93 759 93 759 93 812 c 2,27,-1
 93 1073 l 1,28,-1
 107 1449 l 1,29,30
 107 1524.6 107 1524.6 118.5 1533.8 c 0,31,32
 143.75 1554 143.75 1554 176.875 1554 c 128,-1,33
 210 1554 210 1554 232 1536 c 128,-1,34
 254 1518 254 1518 254 1488.5 c 128,-1,35
 254 1459 254 1459 263 1425.5 c 128,-1,36
 272 1392 272 1392 288.5 1350.5 c 128,-1,37
 305 1309 305 1309 313.5 1279.5 c 128,-1,38
 322 1250 322 1250 330 1177.5 c 128,-1,39
 338 1105 338 1105 350.5 1041.5 c 128,-1,40
 363 978 363 978 410 830.5 c 128,-1,41
 457 683 457 683 493.5 548.5 c 128,-1,42
 530 414 530 414 538 298 c 1,43,44
 556 268 556 268 559 225 c 1,45,-1
 566 939 l 1,46,-1
 566 1545 l 1,47,48
 578 1596 578 1596 633.5 1596 c 128,-1,49
 689 1596 689 1596 689 1516 c 2,50,-1
 689 1504 l 1,51,52
 676 1477 676 1477 676 1444 c 2,0,-1
497 1846 m 1,53,-1
 484 1891 l 1,54,55
 500 1923 500 1923 531 1923 c 128,-1,56
 562 1923 562 1923 580 1894 c 128,-1,57
 598 1865 598 1865 598 1820.5 c 128,-1,58
 598 1776 598 1776 559 1736.5 c 128,-1,59
 520 1697 520 1697 474.5 1697 c 128,-1,60
 429 1697 429 1697 391 1718.5 c 128,-1,61
 353 1740 353 1740 330 1762.5 c 128,-1,62
 307 1785 307 1785 275 1823 c 1,63,-1
 275 1825 l 1,64,-1
 223 1794 l 1,65,-1
 223 1696 l 1,66,67
 189 1696 189 1696 157 1711.5 c 128,-1,68
 125 1727 125 1727 125 1755 c 0,69,70
 125 1824 125 1824 165 1874 c 128,-1,71
 205 1924 205 1924 272 1924 c 1,72,-1
 372 1872 l 1,73,74
 381 1848 381 1848 402.5 1824 c 128,-1,75
 424 1800 424 1800 445 1800 c 1,76,-1
 445 1801 l 1,77,78
 451 1807 451 1807 465.5 1813.5 c 0,79,80
 497 1827.62068966 497 1827.62068966 497 1846 c 1,53,-1
EndSplineSet
EndChar

StartChar: Ocircumflex
Encoding: 212 212 146
Width: 694
Flags: HW
LayerCount: 2
Fore
SplineSet
447 1766 m 1,0,-1
 465 1741 l 1,1,2
 465 1718 465 1718 444.5 1704.5 c 128,-1,3
 424 1691 424 1691 401 1691 c 2,4,-1
 358 1691 l 1,5,6
 340 1869 340 1869 319 1957 c 1,7,8
 311 1934 311 1934 297.5 1888 c 128,-1,9
 284 1842 284 1842 275.5 1817.5 c 0,10,11
 251.763371151 1749.08265802 251.763371151 1749.08265802 208 1692 c 1,12,-1
 142 1740 l 1,13,14
 149 1810 149 1810 218 1966.5 c 128,-1,15
 287 2123 287 2123 337 2123 c 128,-1,16
 387 2123 387 2123 387 2056 c 0,17,18
 387 2011 387 2011 417 1932 c 128,-1,19
 447 1853 447 1853 447 1818 c 2,20,-1
 447 1766 l 1,0,-1
268 1463 m 128,-1,22
 285 1477 285 1477 312.5 1477 c 128,-1,23
 340 1477 340 1477 369.5 1448.5 c 128,-1,24
 399 1420 399 1420 419 1367.5 c 128,-1,25
 439 1315 439 1315 454.5 1255 c 128,-1,26
 470 1195 470 1195 479 1118 c 128,-1,27
 488 1041 488 1041 494 977.5 c 128,-1,28
 500 914 500 914 502.5 841.5 c 0,29,30
 506 740 506 740 506 668 c 128,-1,31
 506 596 506 596 502 517 c 128,-1,32
 498 438 498 438 486.5 323 c 128,-1,33
 475 208 475 208 447 131.5 c 128,-1,34
 419 55 419 55 379 55 c 0,35,36
 323 55 323 55 279.5 158 c 128,-1,37
 236 261 236 261 214.5 406.5 c 0,38,39
 173 687.348837209 173 687.348837209 173 852 c 2,40,-1
 173 894 l 2,41,42
 173 983 173 983 175.5 1023 c 128,-1,43
 178 1063 178 1063 181 1114 c 128,-1,44
 184 1165 184 1165 189 1202 c 128,-1,45
 194 1239 194 1239 200.5 1284.5 c 128,-1,46
 207 1330 207 1330 217 1361.5 c 128,-1,47
 227 1393 227 1393 239 1421 c 128,-1,21
 251 1449 251 1449 268 1463 c 128,-1,22
586 359 m 1,48,-1
 599 618 l 1,49,50
 599 957.5 599 957.5 539 1311.5 c 0,51,52
 509.860503508 1483.4230293 509.860503508 1483.4230293 426.5 1545.5 c 0,53,54
 373.457142857 1585 373.457142857 1585 314.728571429 1585 c 128,-1,55
 256 1585 256 1585 225.5 1571.5 c 128,-1,56
 195 1558 195 1558 175 1537.5 c 128,-1,57
 155 1517 155 1517 140.5 1484 c 128,-1,58
 126 1451 126 1451 119 1421 c 128,-1,59
 112 1391 112 1391 107 1348.5 c 128,-1,60
 102 1306 102 1306 101 1277 c 128,-1,61
 100 1248 100 1248 99 1206 c 128,-1,62
 98 1164 98 1164 96.5 1139.5 c 128,-1,63
 95 1115 95 1115 90.5 1038.5 c 0,64,65
 81 877 81 877 81 813 c 128,-1,66
 81 749 81 749 83 691.5 c 128,-1,67
 85 634 85 634 92.5 547 c 128,-1,68
 100 460 100 460 112 381.5 c 128,-1,69
 124 303 124 303 147 220.5 c 128,-1,70
 170 138 170 138 199.5 78.5 c 128,-1,71
 229 19 229 19 274.5 -19 c 128,-1,72
 320 -57 320 -57 375 -57 c 128,-1,73
 430 -57 430 -57 476.5 -9.5 c 128,-1,74
 523 38 523 38 546 99.5 c 128,-1,75
 569 161 569 161 569 218 c 128,-1,76
 569 275 569 275 586 350 c 1,77,-1
 586 359 l 1,48,-1
EndSplineSet
EndChar

